{"glyphs":{"0":{"ha":1042,"x_min":0,"x_max":868,"o":"m 174 0 l 174 174 l 694 174 l 694 0 l 174 0 m 347 521 l 347 694 l 521 694 l 521 521 l 347 521 m 0 174 l 0 1042 l 174 1042 l 174 521 l 347 521 l 347 347 l 174 347 l 174 174 l 0 174 m 694 174 l 694 694 l 521 694 l 521 868 l 694 868 l 694 1042 l 868 1042 l 868 174 l 694 174 m 174 1042 l 174 1215 l 694 1215 l 694 1042 l 174 1042 z "},"1":{"ha":1042,"x_min":0,"x_max":868,"o":"m 0 0 l 0 174 l 347 174 l 347 868 l 174 868 l 174 1042 l 347 1042 l 347 1215 l 521 1215 l 521 174 l 868 174 l 868 0 l 0 0 z "},"2":{"ha":1042,"x_min":0,"x_max":868,"o":"m 0 0 l 0 347 l 174 347 l 174 174 l 868 174 l 868 0 l 0 0 m 174 347 l 174 521 l 347 521 l 347 347 l 174 347 m 347 521 l 347 694 l 694 694 l 694 521 l 347 521 m 0 868 l 0 1042 l 174 1042 l 174 868 l 0 868 m 694 694 l 694 1042 l 868 1042 l 868 694 l 694 694 m 174 1042 l 174 1215 l 694 1215 l 694 1042 l 174 1042 z "},"3":{"ha":1042,"x_min":0,"x_max":868,"o":"m 174 0 l 174 174 l 694 174 l 694 0 l 174 0 m 0 174 l 0 347 l 174 347 l 174 174 l 0 174 m 694 174 l 694 521 l 868 521 l 868 174 l 694 174 m 347 521 l 347 694 l 694 694 l 694 521 l 347 521 m 0 868 l 0 1042 l 174 1042 l 174 868 l 0 868 m 694 694 l 694 1042 l 868 1042 l 868 694 l 694 694 m 174 1042 l 174 1215 l 694 1215 l 694 1042 l 174 1042 z "},"4":{"ha":1042,"x_min":0,"x_max":868,"o":"m 174 694 l 174 868 l 347 868 l 347 694 l 174 694 m 347 868 l 347 1042 l 521 1042 l 521 868 l 347 868 m 694 0 l 694 347 l 0 347 l 0 694 l 174 694 l 174 521 l 694 521 l 694 1042 l 521 1042 l 521 1215 l 868 1215 l 868 0 l 694 0 z "},"5":{"ha":1042,"x_min":0,"x_max":868,"o":"m 174 0 l 174 174 l 694 174 l 694 0 l 174 0 m 0 174 l 0 347 l 174 347 l 174 174 l 0 174 m 694 174 l 694 694 l 868 694 l 868 174 l 694 174 m 0 694 l 0 1215 l 868 1215 l 868 1042 l 174 1042 l 174 868 l 694 868 l 694 694 l 0 694 z "},"6":{"ha":1042,"x_min":0,"x_max":868,"o":"m 174 0 l 174 174 l 694 174 l 694 0 l 174 0 m 694 174 l 694 521 l 868 521 l 868 174 l 694 174 m 0 174 l 0 868 l 174 868 l 174 694 l 694 694 l 694 521 l 174 521 l 174 174 l 0 174 m 174 868 l 174 1042 l 347 1042 l 347 868 l 174 868 m 347 1042 l 347 1215 l 694 1215 l 694 1042 l 347 1042 z "},"7":{"ha":1042,"x_min":0,"x_max":868,"o":"m 347 0 l 347 521 l 521 521 l 521 0 l 347 0 m 521 521 l 521 694 l 694 694 l 694 521 l 521 521 m 694 694 l 694 1042 l 174 1042 l 174 868 l 0 868 l 0 1215 l 868 1215 l 868 694 l 694 694 z "},"8":{"ha":1042,"x_min":0,"x_max":868,"o":"m 174 0 l 174 174 l 694 174 l 694 0 l 174 0 m 0 174 l 0 521 l 174 521 l 174 174 l 0 174 m 694 174 l 694 521 l 868 521 l 868 174 l 694 174 m 174 521 l 174 694 l 694 694 l 694 521 l 174 521 m 0 694 l 0 1042 l 174 1042 l 174 694 l 0 694 m 694 694 l 694 1042 l 868 1042 l 868 694 l 694 694 m 174 1042 l 174 1215 l 694 1215 l 694 1042 l 174 1042 z "},"9":{"ha":1042,"x_min":0,"x_max":868,"o":"m 174 0 l 174 174 l 521 174 l 521 0 l 174 0 m 521 174 l 521 347 l 694 347 l 694 174 l 521 174 m 0 694 l 0 1042 l 174 1042 l 174 694 l 0 694 m 694 347 l 694 521 l 174 521 l 174 694 l 694 694 l 694 1042 l 868 1042 l 868 347 l 694 347 m 174 1042 l 174 1215 l 694 1215 l 694 1042 l 174 1042 z "}," ":{"ha":434,"x_min":0,"x_max":0,"o":""},"!":{"ha":347,"x_min":0,"x_max":174,"o":"m 0 0 l 0 174 l 174 174 l 174 0 l 0 0 m 0 347 l 0 1215 l 174 1215 l 174 347 l 0 347 z "},"\"":{"ha":694,"x_min":0,"x_max":521,"o":"m 0 868 l 0 1215 l 174 1215 l 174 868 l 0 868 m 347 868 l 347 1215 l 521 1215 l 521 868 l 347 868 z "},"#":{"ha":1042,"x_min":0,"x_max":868,"o":"m 521 521 l 521 694 l 347 694 l 347 521 l 521 521 m 174 0 l 174 347 l 0 347 l 0 521 l 174 521 l 174 694 l 0 694 l 0 868 l 174 868 l 174 1215 l 347 1215 l 347 868 l 521 868 l 521 1215 l 694 1215 l 694 868 l 868 868 l 868 694 l 694 694 l 694 521 l 868 521 l 868 347 l 694 347 l 694 0 l 521 0 l 521 347 l 347 347 l 347 0 l 174 0 z "},"$":{"ha":1042,"x_min":0,"x_max":868,"o":"m 347 0 l 347 174 l 0 174 l 0 347 l 694 347 l 694 174 l 521 174 l 521 0 l 347 0 m 694 347 l 694 521 l 868 521 l 868 347 l 694 347 m 174 521 l 174 694 l 694 694 l 694 521 l 174 521 m 0 694 l 0 868 l 174 868 l 174 694 l 0 694 m 174 868 l 174 1042 l 347 1042 l 347 1215 l 521 1215 l 521 1042 l 868 1042 l 868 868 l 174 868 z "},"%":{"ha":1042,"x_min":0,"x_max":868,"o":"m 0 0 l 0 174 l 174 174 l 174 0 l 0 0 m 694 0 l 694 347 l 868 347 l 868 0 l 694 0 m 174 174 l 174 521 l 347 521 l 347 174 l 174 174 m 347 521 l 347 694 l 521 694 l 521 521 l 347 521 m 521 694 l 521 1042 l 694 1042 l 694 694 l 521 694 m 0 868 l 0 1215 l 174 1215 l 174 868 l 0 868 m 694 1042 l 694 1215 l 868 1215 l 868 1042 l 694 1042 z "},"&":{"ha":1042,"x_min":0,"x_max":868,"o":"m 174 0 l 174 174 l 521 174 l 521 0 l 174 0 m 694 0 l 694 174 l 868 174 l 868 0 l 694 0 m 0 174 l 0 521 l 174 521 l 174 174 l 0 174 m 694 521 l 694 694 l 868 694 l 868 521 l 694 521 m 521 174 l 521 347 l 347 347 l 347 521 l 174 521 l 174 694 l 347 694 l 347 868 l 521 868 l 521 521 l 694 521 l 694 174 l 521 174 m 174 868 l 174 1042 l 347 1042 l 347 868 l 174 868 m 521 868 l 521 1042 l 694 1042 l 694 868 l 521 868 m 347 1042 l 347 1215 l 521 1215 l 521 1042 l 347 1042 z "},"'":{"ha":347,"x_min":0,"x_max":174,"o":"m 0 868 l 0 1215 l 174 1215 l 174 868 l 0 868 z "},"(":{"ha":868,"x_min":0,"x_max":694,"o":"m 347 0 l 347 174 l 694 174 l 694 0 l 347 0 m 174 174 l 174 347 l 347 347 l 347 174 l 174 174 m 0 347 l 0 868 l 174 868 l 174 347 l 0 347 m 174 868 l 174 1042 l 347 1042 l 347 868 l 174 868 m 347 1042 l 347 1215 l 694 1215 l 694 1042 l 347 1042 z "},")":{"ha":868,"x_min":0,"x_max":694,"o":"m 0 0 l 0 174 l 347 174 l 347 0 l 0 0 m 347 174 l 347 347 l 521 347 l 521 174 l 347 174 m 521 347 l 521 868 l 694 868 l 694 347 l 521 347 m 347 868 l 347 1042 l 521 1042 l 521 868 l 347 868 m 0 1042 l 0 1215 l 347 1215 l 347 1042 l 0 1042 z "},"*":{"ha":694,"x_min":0,"x_max":521,"o":"m 0 694 l 0 868 l 174 868 l 174 694 l 0 694 m 347 694 l 347 868 l 521 868 l 521 694 l 347 694 m 174 868 l 174 1042 l 347 1042 l 347 868 l 174 868 m 0 1042 l 0 1215 l 174 1215 l 174 1042 l 0 1042 m 347 1042 l 347 1215 l 521 1215 l 521 1042 l 347 1042 z "},"+":{"ha":1042,"x_min":0,"x_max":868,"o":"m 347 174 l 347 521 l 0 521 l 0 694 l 347 694 l 347 1042 l 521 1042 l 521 694 l 868 694 l 868 521 l 521 521 l 521 174 l 347 174 z "},",":{"ha":347,"x_min":0,"x_max":174,"o":"m 0 -174 l 0 347 l 174 347 l 174 -174 l 0 -174 z "},"-":{"ha":1042,"x_min":0,"x_max":868,"o":"m 0 521 l 0 694 l 868 694 l 868 521 l 0 521 z "},".":{"ha":347,"x_min":0,"x_max":174,"o":"m 0 0 l 0 347 l 174 347 l 174 0 l 0 0 z "},"/":{"ha":1042,"x_min":0,"x_max":868,"o":"m 0 0 l 0 174 l 174 174 l 174 0 l 0 0 m 174 174 l 174 521 l 347 521 l 347 174 l 174 174 m 347 521 l 347 694 l 521 694 l 521 521 l 347 521 m 521 694 l 521 1042 l 694 1042 l 694 694 l 521 694 m 694 1042 l 694 1215 l 868 1215 l 868 1042 l 694 1042 z "},":":{"ha":347,"x_min":0,"x_max":174,"o":"m 0 0 l 0 347 l 174 347 l 174 0 l 0 0 m 0 694 l 0 1042 l 174 1042 l 174 694 l 0 694 z "},";":{"ha":347,"x_min":0,"x_max":174,"o":"m 0 -174 l 0 347 l 174 347 l 174 -174 l 0 -174 m 0 694 l 0 1042 l 174 1042 l 174 694 l 0 694 z "},"<":{"ha":868,"x_min":0,"x_max":694,"o":"m 521 0 l 521 174 l 694 174 l 694 0 l 521 0 m 347 174 l 347 347 l 521 347 l 521 174 l 347 174 m 174 347 l 174 521 l 347 521 l 347 347 l 174 347 m 0 521 l 0 694 l 174 694 l 174 521 l 0 521 m 174 694 l 174 868 l 347 868 l 347 694 l 174 694 m 347 868 l 347 1042 l 521 1042 l 521 868 l 347 868 m 521 1042 l 521 1215 l 694 1215 l 694 1042 l 521 1042 z "},"=":{"ha":1042,"x_min":0,"x_max":868,"o":"m 0 174 l 0 347 l 868 347 l 868 174 l 0 174 m 0 694 l 0 868 l 868 868 l 868 694 l 0 694 z "},">":{"ha":868,"x_min":0,"x_max":694,"o":"m 0 0 l 0 174 l 174 174 l 174 0 l 0 0 m 174 174 l 174 347 l 347 347 l 347 174 l 174 174 m 347 347 l 347 521 l 521 521 l 521 347 l 347 347 m 521 521 l 521 694 l 694 694 l 694 521 l 521 521 m 347 694 l 347 868 l 521 868 l 521 694 l 347 694 m 174 868 l 174 1042 l 347 1042 l 347 868 l 174 868 m 0 1042 l 0 1215 l 174 1215 l 174 1042 l 0 1042 z "},"?":{"ha":1042,"x_min":0,"x_max":868,"o":"m 347 0 l 347 174 l 521 174 l 521 0 l 347 0 m 347 347 l 347 521 l 521 521 l 521 347 l 347 347 m 521 521 l 521 694 l 694 694 l 694 521 l 521 521 m 0 868 l 0 1042 l 174 1042 l 174 868 l 0 868 m 694 694 l 694 1042 l 868 1042 l 868 694 l 694 694 m 174 1042 l 174 1215 l 694 1215 l 694 1042 l 174 1042 z "},"@":{"ha":1215,"x_min":0,"x_max":1042,"o":"m 174 -174 l 174 0 l 868 0 l 868 -174 l 174 -174 m 0 0 l 0 868 l 174 868 l 174 0 l 0 0 m 347 174 l 347 694 l 694 694 l 694 521 l 521 521 l 521 347 l 868 347 l 868 868 l 1042 868 l 1042 174 l 347 174 m 174 868 l 174 1042 l 868 1042 l 868 868 l 174 868 z "},"A":{"ha":1042,"x_min":0,"x_max":868,"o":"m 0 0 l 0 1042 l 174 1042 l 174 868 l 694 868 l 694 1042 l 868 1042 l 868 0 l 694 0 l 694 694 l 174 694 l 174 0 l 0 0 m 174 1042 l 174 1215 l 694 1215 l 694 1042 l 174 1042 z "},"B":{"ha":1042,"x_min":0,"x_max":868,"o":"m 694 174 l 694 694 l 868 694 l 868 174 l 694 174 m 694 868 l 694 1042 l 868 1042 l 868 868 l 694 868 m 0 0 l 0 1215 l 694 1215 l 694 1042 l 174 1042 l 174 868 l 694 868 l 694 694 l 174 694 l 174 174 l 694 174 l 694 0 l 0 0 z "},"C":{"ha":1042,"x_min":0,"x_max":868,"o":"m 174 0 l 174 174 l 694 174 l 694 0 l 174 0 m 694 174 l 694 347 l 868 347 l 868 174 l 694 174 m 0 174 l 0 1042 l 174 1042 l 174 174 l 0 174 m 694 868 l 694 1042 l 868 1042 l 868 868 l 694 868 m 174 1042 l 174 1215 l 694 1215 l 694 1042 l 174 1042 z "},"D":{"ha":1042,"x_min":0,"x_max":868,"o":"m 694 174 l 694 1042 l 868 1042 l 868 174 l 694 174 m 0 0 l 0 1215 l 694 1215 l 694 1042 l 174 1042 l 174 174 l 694 174 l 694 0 l 0 0 z "},"E":{"ha":1042,"x_min":0,"x_max":868,"o":"m 0 0 l 0 1215 l 868 1215 l 868 1042 l 174 1042 l 174 868 l 521 868 l 521 694 l 174 694 l 174 174 l 868 174 l 868 0 l 0 0 z "},"F":{"ha":1042,"x_min":0,"x_max":868,"o":"m 0 0 l 0 1215 l 868 1215 l 868 1042 l 174 1042 l 174 868 l 521 868 l 521 694 l 174 694 l 174 0 l 0 0 z "},"G":{"ha":1042,"x_min":0,"x_max":868,"o":"m 174 0 l 174 174 l 694 174 l 694 0 l 174 0 m 694 174 l 694 694 l 521 694 l 521 868 l 868 868 l 868 174 l 694 174 m 0 174 l 0 1042 l 174 1042 l 174 174 l 0 174 m 174 1042 l 174 1215 l 868 1215 l 868 1042 l 174 1042 z "},"H":{"ha":1042,"x_min":0,"x_max":868,"o":"m 0 0 l 0 1215 l 174 1215 l 174 868 l 694 868 l 694 1215 l 868 1215 l 868 0 l 694 0 l 694 694 l 174 694 l 174 0 l 0 0 z "},"I":{"ha":694,"x_min":0,"x_max":521,"o":"m 0 0 l 0 174 l 174 174 l 174 1042 l 0 1042 l 0 1215 l 521 1215 l 521 1042 l 347 1042 l 347 174 l 521 174 l 521 0 l 0 0 z "},"J":{"ha":1042,"x_min":0,"x_max":868,"o":"m 174 0 l 174 174 l 694 174 l 694 0 l 174 0 m 0 174 l 0 347 l 174 347 l 174 174 l 0 174 m 694 174 l 694 1215 l 868 1215 l 868 174 l 694 174 z "},"K":{"ha":1042,"x_min":0,"x_max":868,"o":"m 694 0 l 694 521 l 868 521 l 868 0 l 694 0 m 521 521 l 521 694 l 694 694 l 694 521 l 521 521 m 521 868 l 521 1042 l 694 1042 l 694 868 l 521 868 m 0 0 l 0 1215 l 174 1215 l 174 868 l 521 868 l 521 694 l 174 694 l 174 0 l 0 0 m 694 1042 l 694 1215 l 868 1215 l 868 1042 l 694 1042 z "},"L":{"ha":1042,"x_min":0,"x_max":868,"o":"m 0 0 l 0 1215 l 174 1215 l 174 174 l 868 174 l 868 0 l 0 0 z "},"M":{"ha":1042,"x_min":0,"x_max":868,"o":"m 347 694 l 347 868 l 521 868 l 521 694 l 347 694 m 0 0 l 0 1215 l 174 1215 l 174 1042 l 347 1042 l 347 868 l 174 868 l 174 0 l 0 0 m 694 0 l 694 868 l 521 868 l 521 1042 l 694 1042 l 694 1215 l 868 1215 l 868 0 l 694 0 z "},"N":{"ha":1042,"x_min":0,"x_max":868,"o":"m 347 694 l 347 868 l 521 868 l 521 694 l 347 694 m 0 0 l 0 1215 l 174 1215 l 174 1042 l 347 1042 l 347 868 l 174 868 l 174 0 l 0 0 m 694 0 l 694 521 l 521 521 l 521 694 l 694 694 l 694 1215 l 868 1215 l 868 0 l 694 0 z "},"O":{"ha":1042,"x_min":0,"x_max":868,"o":"m 174 0 l 174 174 l 694 174 l 694 0 l 174 0 m 0 174 l 0 1042 l 174 1042 l 174 174 l 0 174 m 694 174 l 694 1042 l 868 1042 l 868 174 l 694 174 m 174 1042 l 174 1215 l 694 1215 l 694 1042 l 174 1042 z "},"P":{"ha":1042,"x_min":0,"x_max":868,"o":"m 694 868 l 694 1042 l 868 1042 l 868 868 l 694 868 m 0 0 l 0 1215 l 694 1215 l 694 1042 l 174 1042 l 174 868 l 694 868 l 694 694 l 174 694 l 174 0 l 0 0 z "},"Q":{"ha":1042,"x_min":0,"x_max":868,"o":"m 174 0 l 174 174 l 521 174 l 521 0 l 174 0 m 694 0 l 694 174 l 868 174 l 868 0 l 694 0 m 521 174 l 521 347 l 694 347 l 694 174 l 521 174 m 0 174 l 0 1042 l 174 1042 l 174 174 l 0 174 m 694 347 l 694 1042 l 868 1042 l 868 347 l 694 347 m 174 1042 l 174 1215 l 694 1215 l 694 1042 l 174 1042 z "},"R":{"ha":1042,"x_min":0,"x_max":868,"o":"m 694 0 l 694 694 l 868 694 l 868 0 l 694 0 m 694 868 l 694 1042 l 868 1042 l 868 868 l 694 868 m 0 0 l 0 1215 l 694 1215 l 694 1042 l 174 1042 l 174 868 l 694 868 l 694 694 l 174 694 l 174 0 l 0 0 z "},"S":{"ha":1042,"x_min":0,"x_max":868,"o":"m 174 0 l 174 174 l 694 174 l 694 0 l 174 0 m 0 174 l 0 347 l 174 347 l 174 174 l 0 174 m 694 174 l 694 694 l 868 694 l 868 174 l 694 174 m 174 694 l 174 868 l 694 868 l 694 694 l 174 694 m 0 868 l 0 1042 l 174 1042 l 174 868 l 0 868 m 174 1042 l 174 1215 l 868 1215 l 868 1042 l 174 1042 z "},"T":{"ha":1042,"x_min":0,"x_max":868,"o":"m 347 0 l 347 1042 l 0 1042 l 0 1215 l 868 1215 l 868 1042 l 521 1042 l 521 0 l 347 0 z "},"U":{"ha":1042,"x_min":0,"x_max":868,"o":"m 174 0 l 174 174 l 694 174 l 694 0 l 174 0 m 0 174 l 0 1215 l 174 1215 l 174 174 l 0 174 m 694 174 l 694 1215 l 868 1215 l 868 174 l 694 174 z "},"V":{"ha":1042,"x_min":0,"x_max":868,"o":"m 347 0 l 347 174 l 521 174 l 521 0 l 347 0 m 174 174 l 174 521 l 347 521 l 347 174 l 174 174 m 521 174 l 521 521 l 694 521 l 694 174 l 521 174 m 0 521 l 0 1215 l 174 1215 l 174 521 l 0 521 m 694 521 l 694 1215 l 868 1215 l 868 521 l 694 521 z "},"W":{"ha":1042,"x_min":0,"x_max":868,"o":"m 347 347 l 347 521 l 521 521 l 521 347 l 347 347 m 0 0 l 0 1215 l 174 1215 l 174 347 l 347 347 l 347 174 l 174 174 l 174 0 l 0 0 m 694 0 l 694 174 l 521 174 l 521 347 l 694 347 l 694 1215 l 868 1215 l 868 0 l 694 0 z "},"X":{"ha":1042,"x_min":0,"x_max":868,"o":"m 0 0 l 0 521 l 174 521 l 174 0 l 0 0 m 694 0 l 694 521 l 868 521 l 868 0 l 694 0 m 174 521 l 174 694 l 347 694 l 347 521 l 174 521 m 521 521 l 521 694 l 694 694 l 694 521 l 521 521 m 347 694 l 347 868 l 521 868 l 521 694 l 347 694 m 174 868 l 174 1042 l 347 1042 l 347 868 l 174 868 m 521 868 l 521 1042 l 694 1042 l 694 868 l 521 868 m 0 1042 l 0 1215 l 174 1215 l 174 1042 l 0 1042 m 694 1042 l 694 1215 l 868 1215 l 868 1042 l 694 1042 z "},"Y":{"ha":1042,"x_min":0,"x_max":868,"o":"m 347 0 l 347 868 l 521 868 l 521 0 l 347 0 m 174 868 l 174 1042 l 347 1042 l 347 868 l 174 868 m 521 868 l 521 1042 l 694 1042 l 694 868 l 521 868 m 0 1042 l 0 1215 l 174 1215 l 174 1042 l 0 1042 m 694 1042 l 694 1215 l 868 1215 l 868 1042 l 694 1042 z "},"Z":{"ha":1042,"x_min":0,"x_max":868,"o":"m 0 0 l 0 347 l 174 347 l 174 174 l 868 174 l 868 0 l 0 0 m 174 347 l 174 521 l 347 521 l 347 347 l 174 347 m 347 521 l 347 694 l 521 694 l 521 521 l 347 521 m 521 694 l 521 868 l 694 868 l 694 694 l 521 694 m 694 868 l 694 1042 l 0 1042 l 0 1215 l 868 1215 l 868 868 l 694 868 z "},"[":{"ha":694,"x_min":0,"x_max":521,"o":"m 0 0 l 0 1215 l 521 1215 l 521 1042 l 174 1042 l 174 174 l 521 174 l 521 0 l 0 0 z "},"\\":{"ha":1042,"x_min":0,"x_max":868,"o":"m 694 0 l 694 174 l 868 174 l 868 0 l 694 0 m 521 174 l 521 521 l 694 521 l 694 174 l 521 174 m 347 521 l 347 694 l 521 694 l 521 521 l 347 521 m 174 694 l 174 1042 l 347 1042 l 347 694 l 174 694 m 0 1042 l 0 1215 l 174 1215 l 174 1042 l 0 1042 z "},"]":{"ha":694,"x_min":0,"x_max":521,"o":"m 0 0 l 0 174 l 347 174 l 347 1042 l 0 1042 l 0 1215 l 521 1215 l 521 0 l 0 0 z "},"^":{"ha":1042,"x_min":0,"x_max":868,"o":"m 0 694 l 0 868 l 174 868 l 174 694 l 0 694 m 694 694 l 694 868 l 868 868 l 868 694 l 694 694 m 174 868 l 174 1042 l 347 1042 l 347 868 l 174 868 m 521 868 l 521 1042 l 694 1042 l 694 868 l 521 868 m 347 1042 l 347 1215 l 521 1215 l 521 1042 l 347 1042 z "},"_":{"ha":1042,"x_min":0,"x_max":868,"o":"m 0 0 l 0 174 l 868 174 l 868 0 l 0 0 z "},"`":{"ha":521,"x_min":0,"x_max":347,"o":"m 174 868 l 174 1042 l 347 1042 l 347 868 l 174 868 m 0 1042 l 0 1215 l 174 1215 l 174 1042 l 0 1042 z "},"a":{"ha":1042,"x_min":0,"x_max":868,"o":"m 0 174 l 0 347 l 174 347 l 174 174 l 0 174 m 174 0 l 174 174 l 694 174 l 694 347 l 174 347 l 174 521 l 694 521 l 694 694 l 868 694 l 868 0 l 174 0 m 174 694 l 174 868 l 694 868 l 694 694 l 174 694 z "},"b":{"ha":1042,"x_min":0,"x_max":868,"o":"m 694 174 l 694 694 l 868 694 l 868 174 l 694 174 m 347 694 l 347 868 l 694 868 l 694 694 l 347 694 m 0 0 l 0 1215 l 174 1215 l 174 694 l 347 694 l 347 521 l 174 521 l 174 174 l 694 174 l 694 0 l 0 0 z "},"c":{"ha":1042,"x_min":0,"x_max":868,"o":"m 174 0 l 174 174 l 694 174 l 694 0 l 174 0 m 694 174 l 694 347 l 868 347 l 868 174 l 694 174 m 0 174 l 0 694 l 174 694 l 174 174 l 0 174 m 694 521 l 694 694 l 868 694 l 868 521 l 694 521 m 174 694 l 174 868 l 694 868 l 694 694 l 174 694 z "},"d":{"ha":1042,"x_min":0,"x_max":868,"o":"m 0 174 l 0 694 l 174 694 l 174 174 l 0 174 m 174 694 l 174 868 l 521 868 l 521 694 l 174 694 m 174 0 l 174 174 l 694 174 l 694 521 l 521 521 l 521 694 l 694 694 l 694 1215 l 868 1215 l 868 0 l 174 0 z "},"e":{"ha":1042,"x_min":0,"x_max":868,"o":"m 174 0 l 174 174 l 868 174 l 868 0 l 174 0 m 0 174 l 0 694 l 174 694 l 174 521 l 694 521 l 694 694 l 868 694 l 868 347 l 174 347 l 174 174 l 0 174 m 174 694 l 174 868 l 694 868 l 694 694 l 174 694 z "},"f":{"ha":868,"x_min":0,"x_max":694,"o":"m 174 0 l 174 694 l 0 694 l 0 868 l 174 868 l 174 1042 l 347 1042 l 347 868 l 694 868 l 694 694 l 347 694 l 347 0 l 174 0 m 347 1042 l 347 1215 l 694 1215 l 694 1042 l 347 1042 z "},"g":{"ha":1042,"x_min":0,"x_max":868,"o":"m 0 -174 l 0 0 l 694 0 l 694 -174 l 0 -174 m 0 347 l 0 694 l 174 694 l 174 347 l 0 347 m 694 0 l 694 174 l 174 174 l 174 347 l 694 347 l 694 694 l 174 694 l 174 868 l 868 868 l 868 0 l 694 0 z "},"h":{"ha":1042,"x_min":0,"x_max":868,"o":"m 694 0 l 694 694 l 868 694 l 868 0 l 694 0 m 347 694 l 347 868 l 694 868 l 694 694 l 347 694 m 0 0 l 0 1215 l 174 1215 l 174 694 l 347 694 l 347 521 l 174 521 l 174 0 l 0 0 z "},"i":{"ha":347,"x_min":0,"x_max":174,"o":"m 0 0 l 0 868 l 174 868 l 174 0 l 0 0 m 0 1042 l 0 1215 l 174 1215 l 174 1042 l 0 1042 z "},"j":{"ha":1042,"x_min":0,"x_max":868,"o":"m 174 -174 l 174 0 l 694 0 l 694 -174 l 174 -174 m 0 0 l 0 347 l 174 347 l 174 0 l 0 0 m 694 0 l 694 694 l 868 694 l 868 0 l 694 0 m 694 868 l 694 1042 l 868 1042 l 868 868 l 694 868 z "},"k":{"ha":868,"x_min":0,"x_max":694,"o":"m 521 0 l 521 174 l 694 174 l 694 0 l 521 0 m 347 174 l 347 347 l 521 347 l 521 174 l 347 174 m 347 521 l 347 694 l 521 694 l 521 521 l 347 521 m 521 694 l 521 868 l 694 868 l 694 694 l 521 694 m 0 0 l 0 1215 l 174 1215 l 174 521 l 347 521 l 347 347 l 174 347 l 174 0 l 0 0 z "},"l":{"ha":521,"x_min":0,"x_max":347,"o":"m 174 0 l 174 174 l 347 174 l 347 0 l 174 0 m 0 174 l 0 1215 l 174 1215 l 174 174 l 0 174 z "},"m":{"ha":1042,"x_min":0,"x_max":868,"o":"m 347 347 l 347 694 l 521 694 l 521 347 l 347 347 m 694 0 l 694 694 l 868 694 l 868 0 l 694 0 m 0 0 l 0 868 l 347 868 l 347 694 l 174 694 l 174 0 l 0 0 m 521 694 l 521 868 l 694 868 l 694 694 l 521 694 z "},"n":{"ha":1042,"x_min":0,"x_max":868,"o":"m 694 0 l 694 694 l 868 694 l 868 0 l 694 0 m 0 0 l 0 868 l 694 868 l 694 694 l 174 694 l 174 0 l 0 0 z "},"o":{"ha":1042,"x_min":0,"x_max":868,"o":"m 174 0 l 174 174 l 694 174 l 694 0 l 174 0 m 0 174 l 0 694 l 174 694 l 174 174 l 0 174 m 694 174 l 694 694 l 868 694 l 868 174 l 694 174 m 174 694 l 174 868 l 694 868 l 694 694 l 174 694 z "},"p":{"ha":1042,"x_min":0,"x_max":868,"o":"m 694 347 l 694 694 l 868 694 l 868 347 l 694 347 m 0 -174 l 0 868 l 174 868 l 174 694 l 347 694 l 347 521 l 174 521 l 174 347 l 694 347 l 694 174 l 174 174 l 174 -174 l 0 -174 m 347 694 l 347 868 l 694 868 l 694 694 l 347 694 z "},"q":{"ha":1042,"x_min":0,"x_max":868,"o":"m 0 347 l 0 694 l 174 694 l 174 347 l 0 347 m 174 694 l 174 868 l 521 868 l 521 694 l 174 694 m 694 -174 l 694 174 l 174 174 l 174 347 l 694 347 l 694 521 l 521 521 l 521 694 l 694 694 l 694 868 l 868 868 l 868 -174 l 694 -174 z "},"r":{"ha":1042,"x_min":0,"x_max":868,"o":"m 694 521 l 694 694 l 868 694 l 868 521 l 694 521 m 0 0 l 0 868 l 174 868 l 174 694 l 347 694 l 347 521 l 174 521 l 174 0 l 0 0 m 347 694 l 347 868 l 694 868 l 694 694 l 347 694 z "},"s":{"ha":1042,"x_min":0,"x_max":868,"o":"m 0 0 l 0 174 l 694 174 l 694 0 l 0 0 m 694 174 l 694 347 l 868 347 l 868 174 l 694 174 m 174 347 l 174 521 l 694 521 l 694 347 l 174 347 m 0 521 l 0 694 l 174 694 l 174 521 l 0 521 m 174 694 l 174 868 l 868 868 l 868 694 l 174 694 z "},"t":{"ha":694,"x_min":0,"x_max":521,"o":"m 347 0 l 347 174 l 521 174 l 521 0 l 347 0 m 174 174 l 174 694 l 0 694 l 0 868 l 174 868 l 174 1215 l 347 1215 l 347 868 l 521 868 l 521 694 l 347 694 l 347 174 l 174 174 z "},"u":{"ha":1042,"x_min":0,"x_max":868,"o":"m 0 174 l 0 868 l 174 868 l 174 174 l 0 174 m 174 0 l 174 174 l 694 174 l 694 868 l 868 868 l 868 0 l 174 0 z "},"v":{"ha":1042,"x_min":0,"x_max":868,"o":"m 347 0 l 347 174 l 521 174 l 521 0 l 347 0 m 174 174 l 174 347 l 347 347 l 347 174 l 174 174 m 521 174 l 521 347 l 694 347 l 694 174 l 521 174 m 0 347 l 0 868 l 174 868 l 174 347 l 0 347 m 694 347 l 694 868 l 868 868 l 868 347 l 694 347 z "},"w":{"ha":1042,"x_min":0,"x_max":868,"o":"m 0 174 l 0 868 l 174 868 l 174 174 l 0 174 m 174 0 l 174 174 l 347 174 l 347 521 l 521 521 l 521 174 l 694 174 l 694 868 l 868 868 l 868 0 l 174 0 z "},"x":{"ha":1042,"x_min":0,"x_max":868,"o":"m 0 0 l 0 174 l 174 174 l 174 0 l 0 0 m 694 0 l 694 174 l 868 174 l 868 0 l 694 0 m 174 174 l 174 347 l 347 347 l 347 174 l 174 174 m 521 174 l 521 347 l 694 347 l 694 174 l 521 174 m 347 347 l 347 521 l 521 521 l 521 347 l 347 347 m 174 521 l 174 694 l 347 694 l 347 521 l 174 521 m 521 521 l 521 694 l 694 694 l 694 521 l 521 521 m 0 694 l 0 868 l 174 868 l 174 694 l 0 694 m 694 694 l 694 868 l 868 868 l 868 694 l 694 694 z "},"y":{"ha":1042,"x_min":0,"x_max":868,"o":"m 0 -174 l 0 0 l 694 0 l 694 -174 l 0 -174 m 0 347 l 0 868 l 174 868 l 174 347 l 0 347 m 694 0 l 694 174 l 174 174 l 174 347 l 694 347 l 694 868 l 868 868 l 868 0 l 694 0 z "},"z":{"ha":1042,"x_min":0,"x_max":868,"o":"m 0 0 l 0 174 l 174 174 l 174 347 l 347 347 l 347 174 l 868 174 l 868 0 l 0 0 m 347 347 l 347 521 l 521 521 l 521 347 l 347 347 m 521 521 l 521 694 l 0 694 l 0 868 l 868 868 l 868 694 l 694 694 l 694 521 l 521 521 z "},"{":{"ha":868,"x_min":0,"x_max":694,"o":"m 347 0 l 347 174 l 694 174 l 694 0 l 347 0 m 174 174 l 174 521 l 347 521 l 347 174 l 174 174 m 0 521 l 0 694 l 174 694 l 174 521 l 0 521 m 174 694 l 174 1042 l 347 1042 l 347 694 l 174 694 m 347 1042 l 347 1215 l 694 1215 l 694 1042 l 347 1042 z "},"|":{"ha":347,"x_min":0,"x_max":174,"o":"m 0 0 l 0 1215 l 174 1215 l 174 0 l 0 0 z "},"}":{"ha":868,"x_min":0,"x_max":694,"o":"m 0 0 l 0 174 l 347 174 l 347 0 l 0 0 m 347 174 l 347 521 l 521 521 l 521 174 l 347 174 m 521 521 l 521 694 l 694 694 l 694 521 l 521 521 m 347 694 l 347 1042 l 521 1042 l 521 694 l 347 694 m 0 1042 l 0 1215 l 347 1215 l 347 1042 l 0 1042 z "},"~":{"ha":1215,"x_min":0,"x_max":1042,"o":"m 0 868 l 0 1042 l 174 1042 l 174 868 l 0 868 m 521 868 l 521 1042 l 868 1042 l 868 868 l 521 868 m 174 1042 l 174 1215 l 521 1215 l 521 1042 l 174 1042 m 868 1042 l 868 1215 l 1042 1215 l 1042 1042 l 868 1042 z "}," ":{"ha":1042,"x_min":0,"x_max":0,"o":""},"¡":{"ha":347,"x_min":0,"x_max":174,"o":"m 0 -174 l 0 521 l 174 521 l 174 -174 l 0 -174 m 0 694 l 0 868 l 174 868 l 174 694 l 0 694 z "},"¢":{"ha":1042,"x_min":0,"x_max":868,"o":"m 174 0 l 174 174 l 694 174 l 694 0 l 174 0 m 694 174 l 694 347 l 868 347 l 868 174 l 694 174 m 0 174 l 0 694 l 174 694 l 174 174 l 0 174 m 694 521 l 694 694 l 868 694 l 868 521 l 694 521 m 174 694 l 174 868 l 694 868 l 694 694 l 174 694 z "},"£":{"ha":1042,"x_min":0,"x_max":868,"o":"m 0 0 l 0 174 l 174 174 l 174 521 l 0 521 l 0 694 l 174 694 l 174 1042 l 347 1042 l 347 694 l 694 694 l 694 521 l 347 521 l 347 174 l 868 174 l 868 0 l 0 0 m 694 868 l 694 1042 l 868 1042 l 868 868 l 694 868 m 347 1042 l 347 1215 l 694 1215 l 694 1042 l 347 1042 z "},"¥":{"ha":1042,"x_min":0,"x_max":868,"o":"m 347 0 l 347 174 l 0 174 l 0 347 l 347 347 l 347 521 l 0 521 l 0 694 l 347 694 l 347 868 l 521 868 l 521 694 l 868 694 l 868 521 l 521 521 l 521 347 l 868 347 l 868 174 l 521 174 l 521 0 l 347 0 m 174 868 l 174 1042 l 347 1042 l 347 868 l 174 868 m 521 868 l 521 1042 l 694 1042 l 694 868 l 521 868 m 0 1042 l 0 1215 l 174 1215 l 174 1042 l 0 1042 m 694 1042 l 694 1215 l 868 1215 l 868 1042 l 694 1042 z "},"¦":{"ha":347,"x_min":0,"x_max":174,"o":"m 0 0 l 0 521 l 174 521 l 174 0 l 0 0 m 0 694 l 0 1215 l 174 1215 l 174 694 l 0 694 z "},"§":{"ha":174,"x_min":0,"x_max":0,"o":""},"¨":{"ha":694,"x_min":0,"x_max":521,"o":"m 0 1042 l 0 1215 l 174 1215 l 174 1042 l 0 1042 m 347 1042 l 347 1215 l 521 1215 l 521 1042 l 347 1042 z "},"©":{"ha":1389,"x_min":0,"x_max":1215,"o":"m 347 0 l 347 174 l 868 174 l 868 0 l 347 0 m 174 174 l 174 347 l 347 347 l 347 174 l 174 174 m 868 174 l 868 347 l 1042 347 l 1042 174 l 868 174 m 0 347 l 0 868 l 174 868 l 174 347 l 0 347 m 347 347 l 347 868 l 868 868 l 868 694 l 521 694 l 521 521 l 868 521 l 868 347 l 347 347 m 1042 347 l 1042 868 l 1215 868 l 1215 347 l 1042 347 m 174 868 l 174 1042 l 347 1042 l 347 868 l 174 868 m 868 868 l 868 1042 l 1042 1042 l 1042 868 l 868 868 m 347 1042 l 347 1215 l 868 1215 l 868 1042 l 347 1042 z "},"ª":{"ha":868,"x_min":0,"x_max":694,"o":"m 0 174 l 0 347 l 694 347 l 694 174 l 0 174 m 174 521 l 174 694 l 0 694 l 0 868 l 521 868 l 521 1042 l 694 1042 l 694 521 l 174 521 m 174 1042 l 174 1215 l 521 1215 l 521 1042 l 174 1042 z "},"«":{"ha":1215,"x_min":0,"x_max":1042,"o":"m 347 174 l 347 347 l 521 347 l 521 174 l 347 174 m 868 174 l 868 347 l 1042 347 l 1042 174 l 868 174 m 174 347 l 174 521 l 347 521 l 347 347 l 174 347 m 694 347 l 694 521 l 868 521 l 868 347 l 694 347 m 0 521 l 0 694 l 174 694 l 174 521 l 0 521 m 521 521 l 521 694 l 694 694 l 694 521 l 521 521 m 174 694 l 174 868 l 347 868 l 347 694 l 174 694 m 694 694 l 694 868 l 868 868 l 868 694 l 694 694 m 347 868 l 347 1042 l 521 1042 l 521 868 l 347 868 m 868 868 l 868 1042 l 1042 1042 l 1042 868 l 868 868 z "},"¬":{"ha":1042,"x_min":0,"x_max":868,"o":"m 694 174 l 694 521 l 0 521 l 0 694 l 868 694 l 868 174 l 694 174 z "},"­":{"ha":694,"x_min":0,"x_max":521,"o":"m 0 347 l 0 521 l 521 521 l 521 347 l 0 347 z "},"®":{"ha":1389,"x_min":0,"x_max":1215,"o":"m 347 0 l 347 174 l 868 174 l 868 0 l 347 0 m 174 174 l 174 347 l 347 347 l 347 174 l 174 174 m 868 174 l 868 347 l 1042 347 l 1042 174 l 868 174 m 694 347 l 694 521 l 868 521 l 868 347 l 694 347 m 0 347 l 0 868 l 174 868 l 174 347 l 0 347 m 347 347 l 347 868 l 521 868 l 521 694 l 694 694 l 694 521 l 521 521 l 521 347 l 347 347 m 694 694 l 694 868 l 868 868 l 868 694 l 694 694 m 1042 347 l 1042 868 l 1215 868 l 1215 347 l 1042 347 m 174 868 l 174 1042 l 347 1042 l 347 868 l 174 868 m 868 868 l 868 1042 l 1042 1042 l 1042 868 l 868 868 m 521 868 l 521 1042 l 347 1042 l 347 1215 l 868 1215 l 868 1042 l 694 1042 l 694 868 l 521 868 z "},"¯":{"ha":1042,"x_min":0,"x_max":868,"o":"m 0 1042 l 0 1215 l 868 1215 l 868 1042 l 0 1042 z "},"°":{"ha":868,"x_min":0,"x_max":694,"o":"m 174 521 l 174 694 l 521 694 l 521 521 l 174 521 m 0 694 l 0 1042 l 174 1042 l 174 694 l 0 694 m 521 694 l 521 1042 l 694 1042 l 694 694 l 521 694 m 174 1042 l 174 1215 l 521 1215 l 521 1042 l 174 1042 z "},"±":{"ha":1042,"x_min":0,"x_max":868,"o":"m 0 0 l 0 174 l 868 174 l 868 0 l 0 0 m 347 347 l 347 694 l 0 694 l 0 868 l 347 868 l 347 1215 l 521 1215 l 521 868 l 868 868 l 868 694 l 521 694 l 521 347 l 347 347 z "},"²":{"ha":868,"x_min":0,"x_max":694,"o":"m 0 347 l 0 521 l 174 521 l 174 694 l 347 694 l 347 521 l 694 521 l 694 347 l 0 347 m 347 694 l 347 868 l 521 868 l 521 694 l 347 694 m 0 868 l 0 1042 l 174 1042 l 174 868 l 0 868 m 521 868 l 521 1042 l 694 1042 l 694 868 l 521 868 m 174 1042 l 174 1215 l 521 1215 l 521 1042 l 174 1042 z "},"³":{"ha":868,"x_min":0,"x_max":694,"o":"m 174 347 l 174 521 l 521 521 l 521 347 l 174 347 m 0 521 l 0 694 l 174 694 l 174 521 l 0 521 m 521 521 l 521 694 l 694 694 l 694 521 l 521 521 m 347 694 l 347 868 l 521 868 l 521 694 l 347 694 m 0 868 l 0 1042 l 174 1042 l 174 868 l 0 868 m 521 868 l 521 1042 l 694 1042 l 694 868 l 521 868 m 174 1042 l 174 1215 l 521 1215 l 521 1042 l 174 1042 z "},"´":{"ha":521,"x_min":0,"x_max":347,"o":"m 0 868 l 0 1042 l 174 1042 l 174 868 l 0 868 m 174 1042 l 174 1215 l 347 1215 l 347 1042 l 174 1042 z "},"µ":{"ha":1042,"x_min":0,"x_max":868,"o":"m 0 -174 l 0 868 l 174 868 l 174 174 l 694 174 l 694 0 l 174 0 l 174 -174 l 0 -174 m 694 174 l 694 868 l 868 868 l 868 174 l 694 174 z "},"¶":{"ha":1215,"x_min":0,"x_max":1042,"o":"m 347 0 l 347 694 l 174 694 l 174 868 l 0 868 l 0 1042 l 174 1042 l 174 1215 l 1042 1215 l 1042 1042 l 868 1042 l 868 0 l 694 0 l 694 1042 l 521 1042 l 521 0 l 347 0 z "},"·":{"ha":347,"x_min":0,"x_max":174,"o":"m 0 521 l 0 694 l 174 694 l 174 521 l 0 521 z "},"¹":{"ha":694,"x_min":0,"x_max":521,"o":"m 0 521 l 0 694 l 174 694 l 174 868 l 0 868 l 0 1042 l 174 1042 l 174 1215 l 347 1215 l 347 694 l 521 694 l 521 521 l 0 521 z "},"º":{"ha":868,"x_min":0,"x_max":694,"o":"m 0 174 l 0 347 l 694 347 l 694 174 l 0 174 m 174 521 l 174 694 l 521 694 l 521 521 l 174 521 m 0 694 l 0 1042 l 174 1042 l 174 694 l 0 694 m 521 694 l 521 1042 l 694 1042 l 694 694 l 521 694 m 174 1042 l 174 1215 l 521 1215 l 521 1042 l 174 1042 z "},"»":{"ha":1215,"x_min":0,"x_max":1042,"o":"m 0 174 l 0 347 l 174 347 l 174 174 l 0 174 m 521 174 l 521 347 l 694 347 l 694 174 l 521 174 m 174 347 l 174 521 l 347 521 l 347 347 l 174 347 m 694 347 l 694 521 l 868 521 l 868 347 l 694 347 m 347 521 l 347 694 l 521 694 l 521 521 l 347 521 m 868 521 l 868 694 l 1042 694 l 1042 521 l 868 521 m 174 694 l 174 868 l 347 868 l 347 694 l 174 694 m 694 694 l 694 868 l 868 868 l 868 694 l 694 694 m 0 868 l 0 1042 l 174 1042 l 174 868 l 0 868 m 521 868 l 521 1042 l 694 1042 l 694 868 l 521 868 z "},"¼":{"ha":1389,"x_min":0,"x_max":1215,"o":"m 174 0 l 174 174 l 347 174 l 347 0 l 174 0 m 347 174 l 347 521 l 521 521 l 521 174 l 347 174 m 521 521 l 521 694 l 694 694 l 694 521 l 521 521 m 1042 0 l 1042 174 l 694 174 l 694 521 l 868 521 l 868 347 l 1042 347 l 1042 521 l 868 521 l 868 694 l 1215 694 l 1215 0 l 1042 0 m 694 694 l 694 1042 l 868 1042 l 868 694 l 694 694 m 174 521 l 174 868 l 0 868 l 0 1042 l 174 1042 l 174 1215 l 347 1215 l 347 521 l 174 521 m 868 1042 l 868 1215 l 1042 1215 l 1042 1042 l 868 1042 z "},"½":{"ha":1389,"x_min":0,"x_max":1215,"o":"m 174 0 l 174 174 l 347 174 l 347 0 l 174 0 m 868 0 l 868 347 l 1042 347 l 1042 174 l 1215 174 l 1215 0 l 868 0 m 347 174 l 347 521 l 521 521 l 521 174 l 347 174 m 521 521 l 521 694 l 694 694 l 694 521 l 521 521 m 1042 347 l 1042 521 l 868 521 l 868 694 l 1215 694 l 1215 347 l 1042 347 m 694 694 l 694 1042 l 868 1042 l 868 694 l 694 694 m 174 521 l 174 868 l 0 868 l 0 1042 l 174 1042 l 174 1215 l 347 1215 l 347 521 l 174 521 m 868 1042 l 868 1215 l 1042 1215 l 1042 1042 l 868 1042 z "},"¾":{"ha":1389,"x_min":0,"x_max":1215,"o":"m 174 0 l 174 174 l 347 174 l 347 0 l 174 0 m 347 174 l 347 521 l 521 521 l 521 174 l 347 174 m 0 521 l 0 694 l 347 694 l 347 521 l 0 521 m 521 521 l 521 694 l 694 694 l 694 521 l 521 521 m 1042 0 l 1042 174 l 694 174 l 694 521 l 868 521 l 868 347 l 1042 347 l 1042 521 l 868 521 l 868 694 l 1215 694 l 1215 0 l 1042 0 m 347 694 l 347 868 l 521 868 l 521 694 l 347 694 m 694 694 l 694 1042 l 868 1042 l 868 694 l 694 694 m 174 868 l 174 1042 l 0 1042 l 0 1215 l 521 1215 l 521 1042 l 347 1042 l 347 868 l 174 868 m 868 1042 l 868 1215 l 1042 1215 l 1042 1042 l 868 1042 z "},"¿":{"ha":1042,"x_min":0,"x_max":868,"o":"m 174 -174 l 174 0 l 694 0 l 694 -174 l 174 -174 m 694 0 l 694 174 l 868 174 l 868 0 l 694 0 m 0 0 l 0 347 l 174 347 l 174 0 l 0 0 m 174 347 l 174 521 l 347 521 l 347 347 l 174 347 m 347 521 l 347 694 l 521 694 l 521 521 l 347 521 m 347 868 l 347 1042 l 521 1042 l 521 868 l 347 868 z "},"À":{"ha":1042,"x_min":0,"x_max":868,"o":"m 0 0 l 0 1042 l 174 1042 l 174 868 l 694 868 l 694 1042 l 868 1042 l 868 0 l 694 0 l 694 694 l 174 694 l 174 0 l 0 0 m 174 1042 l 174 1215 l 694 1215 l 694 1042 l 174 1042 m 347 1389 l 347 1563 l 521 1563 l 521 1389 l 347 1389 m 174 1563 l 174 1736 l 347 1736 l 347 1563 l 174 1563 z "},"Á":{"ha":1042,"x_min":0,"x_max":868,"o":"m 0 0 l 0 1042 l 174 1042 l 174 868 l 694 868 l 694 1042 l 868 1042 l 868 0 l 694 0 l 694 694 l 174 694 l 174 0 l 0 0 m 174 1042 l 174 1215 l 694 1215 l 694 1042 l 174 1042 m 347 1389 l 347 1563 l 521 1563 l 521 1389 l 347 1389 m 521 1563 l 521 1736 l 694 1736 l 694 1563 l 521 1563 z "},"Â":{"ha":1042,"x_min":0,"x_max":868,"o":"m 0 0 l 0 1042 l 174 1042 l 174 868 l 694 868 l 694 1042 l 868 1042 l 868 0 l 694 0 l 694 694 l 174 694 l 174 0 l 0 0 m 174 1042 l 174 1215 l 694 1215 l 694 1042 l 174 1042 m 174 1389 l 174 1563 l 347 1563 l 347 1389 l 174 1389 m 521 1389 l 521 1563 l 694 1563 l 694 1389 l 521 1389 m 347 1563 l 347 1736 l 521 1736 l 521 1563 l 347 1563 z "},"Ã":{"ha":1042,"x_min":0,"x_max":868,"o":"m 0 0 l 0 1042 l 174 1042 l 174 868 l 694 868 l 694 1042 l 868 1042 l 868 0 l 694 0 l 694 694 l 174 694 l 174 0 l 0 0 m 174 1042 l 174 1215 l 694 1215 l 694 1042 l 174 1042 m 174 1389 l 174 1563 l 347 1563 l 347 1389 l 174 1389 m 521 1389 l 521 1563 l 694 1563 l 694 1389 l 521 1389 m 347 1563 l 347 1736 l 521 1736 l 521 1563 l 347 1563 m 694 1563 l 694 1736 l 868 1736 l 868 1563 l 694 1563 z "},"Ä":{"ha":1042,"x_min":0,"x_max":868,"o":"m 0 0 l 0 1042 l 174 1042 l 174 868 l 694 868 l 694 1042 l 868 1042 l 868 0 l 694 0 l 694 694 l 174 694 l 174 0 l 0 0 m 174 1042 l 174 1215 l 694 1215 l 694 1042 l 174 1042 m 174 1389 l 174 1563 l 347 1563 l 347 1389 l 174 1389 m 521 1389 l 521 1563 l 694 1563 l 694 1389 l 521 1389 z "},"Å":{"ha":1042,"x_min":0,"x_max":868,"o":"m 0 0 l 0 1042 l 174 1042 l 174 868 l 694 868 l 694 1042 l 868 1042 l 868 0 l 694 0 l 694 694 l 174 694 l 174 0 l 0 0 m 174 1042 l 174 1215 l 347 1215 l 347 1389 l 521 1389 l 521 1215 l 694 1215 l 694 1042 l 174 1042 m 174 1389 l 174 1563 l 347 1563 l 347 1389 l 174 1389 m 521 1389 l 521 1563 l 694 1563 l 694 1389 l 521 1389 m 347 1563 l 347 1736 l 521 1736 l 521 1563 l 347 1563 z "},"Æ":{"ha":1736,"x_min":0,"x_max":1563,"o":"m 0 0 l 0 1042 l 174 1042 l 174 868 l 694 868 l 694 1042 l 174 1042 l 174 1215 l 1563 1215 l 1563 1042 l 868 1042 l 868 868 l 1389 868 l 1389 694 l 868 694 l 868 174 l 1563 174 l 1563 0 l 694 0 l 694 694 l 174 694 l 174 0 l 0 0 z "},"Ç":{"ha":1042,"x_min":0,"x_max":868,"o":"m 347 -347 l 347 -174 l 521 -174 l 521 -347 l 347 -347 m 521 -174 l 521 0 l 174 0 l 174 174 l 694 174 l 694 -174 l 521 -174 m 694 174 l 694 347 l 868 347 l 868 174 l 694 174 m 0 174 l 0 1042 l 174 1042 l 174 174 l 0 174 m 694 868 l 694 1042 l 868 1042 l 868 868 l 694 868 m 174 1042 l 174 1215 l 694 1215 l 694 1042 l 174 1042 z "},"È":{"ha":1042,"x_min":0,"x_max":868,"o":"m 0 0 l 0 1215 l 868 1215 l 868 1042 l 174 1042 l 174 868 l 521 868 l 521 694 l 174 694 l 174 174 l 868 174 l 868 0 l 0 0 m 347 1389 l 347 1563 l 521 1563 l 521 1389 l 347 1389 m 174 1563 l 174 1736 l 347 1736 l 347 1563 l 174 1563 z "},"É":{"ha":1042,"x_min":0,"x_max":868,"o":"m 0 0 l 0 1215 l 868 1215 l 868 1042 l 174 1042 l 174 868 l 521 868 l 521 694 l 174 694 l 174 174 l 868 174 l 868 0 l 0 0 m 347 1389 l 347 1563 l 521 1563 l 521 1389 l 347 1389 m 521 1563 l 521 1736 l 694 1736 l 694 1563 l 521 1563 z "},"Ê":{"ha":1042,"x_min":0,"x_max":868,"o":"m 0 0 l 0 1215 l 868 1215 l 868 1042 l 174 1042 l 174 868 l 521 868 l 521 694 l 174 694 l 174 174 l 868 174 l 868 0 l 0 0 m 174 1389 l 174 1563 l 347 1563 l 347 1389 l 174 1389 m 521 1389 l 521 1563 l 694 1563 l 694 1389 l 521 1389 m 347 1563 l 347 1736 l 521 1736 l 521 1563 l 347 1563 z "},"Ë":{"ha":1042,"x_min":0,"x_max":868,"o":"m 0 0 l 0 1215 l 868 1215 l 868 1042 l 174 1042 l 174 868 l 521 868 l 521 694 l 174 694 l 174 174 l 868 174 l 868 0 l 0 0 m 174 1389 l 174 1563 l 347 1563 l 347 1389 l 174 1389 m 521 1389 l 521 1563 l 694 1563 l 694 1389 l 521 1389 z "},"Ì":{"ha":694,"x_min":0,"x_max":521,"o":"m 0 0 l 0 174 l 174 174 l 174 1042 l 0 1042 l 0 1215 l 521 1215 l 521 1042 l 347 1042 l 347 174 l 521 174 l 521 0 l 0 0 m 174 1389 l 174 1563 l 347 1563 l 347 1389 l 174 1389 m 0 1563 l 0 1736 l 174 1736 l 174 1563 l 0 1563 z "},"Í":{"ha":694,"x_min":0,"x_max":521,"o":"m 0 0 l 0 174 l 174 174 l 174 1042 l 0 1042 l 0 1215 l 521 1215 l 521 1042 l 347 1042 l 347 174 l 521 174 l 521 0 l 0 0 m 174 1389 l 174 1563 l 347 1563 l 347 1389 l 174 1389 m 347 1563 l 347 1736 l 521 1736 l 521 1563 l 347 1563 z "},"Î":{"ha":694,"x_min":0,"x_max":521,"o":"m 0 0 l 0 174 l 174 174 l 174 1042 l 0 1042 l 0 1215 l 521 1215 l 521 1042 l 347 1042 l 347 174 l 521 174 l 521 0 l 0 0 m 0 1389 l 0 1563 l 174 1563 l 174 1389 l 0 1389 m 347 1389 l 347 1563 l 521 1563 l 521 1389 l 347 1389 m 174 1563 l 174 1736 l 347 1736 l 347 1563 l 174 1563 z "},"Ï":{"ha":694,"x_min":0,"x_max":521,"o":"m 0 0 l 0 174 l 174 174 l 174 1042 l 0 1042 l 0 1215 l 521 1215 l 521 1042 l 347 1042 l 347 174 l 521 174 l 521 0 l 0 0 m 0 1389 l 0 1563 l 174 1563 l 174 1389 l 0 1389 m 347 1389 l 347 1563 l 521 1563 l 521 1389 l 347 1389 z "},"Ð":{"ha":1215,"x_min":0,"x_max":1042,"o":"m 868 174 l 868 1042 l 1042 1042 l 1042 174 l 868 174 m 174 0 l 174 694 l 0 694 l 0 868 l 174 868 l 174 1215 l 868 1215 l 868 1042 l 347 1042 l 347 868 l 521 868 l 521 694 l 347 694 l 347 174 l 868 174 l 868 0 l 174 0 z "},"Ñ":{"ha":1042,"x_min":0,"x_max":868,"o":"m 347 694 l 347 868 l 521 868 l 521 694 l 347 694 m 0 0 l 0 1215 l 174 1215 l 174 1042 l 347 1042 l 347 868 l 174 868 l 174 0 l 0 0 m 694 0 l 694 521 l 521 521 l 521 694 l 694 694 l 694 1215 l 868 1215 l 868 0 l 694 0 m 174 1389 l 174 1563 l 347 1563 l 347 1389 l 174 1389 m 521 1389 l 521 1563 l 694 1563 l 694 1389 l 521 1389 m 347 1563 l 347 1736 l 521 1736 l 521 1563 l 347 1563 m 694 1563 l 694 1736 l 868 1736 l 868 1563 l 694 1563 z "},"Ò":{"ha":1042,"x_min":0,"x_max":868,"o":"m 174 0 l 174 174 l 694 174 l 694 0 l 174 0 m 0 174 l 0 1042 l 174 1042 l 174 174 l 0 174 m 694 174 l 694 1042 l 868 1042 l 868 174 l 694 174 m 174 1042 l 174 1215 l 694 1215 l 694 1042 l 174 1042 m 347 1389 l 347 1563 l 521 1563 l 521 1389 l 347 1389 m 174 1563 l 174 1736 l 347 1736 l 347 1563 l 174 1563 z "},"Ó":{"ha":1042,"x_min":0,"x_max":868,"o":"m 174 0 l 174 174 l 694 174 l 694 0 l 174 0 m 0 174 l 0 1042 l 174 1042 l 174 174 l 0 174 m 694 174 l 694 1042 l 868 1042 l 868 174 l 694 174 m 174 1042 l 174 1215 l 694 1215 l 694 1042 l 174 1042 m 347 1389 l 347 1563 l 521 1563 l 521 1389 l 347 1389 m 521 1563 l 521 1736 l 694 1736 l 694 1563 l 521 1563 z "},"Ô":{"ha":1042,"x_min":0,"x_max":868,"o":"m 174 0 l 174 174 l 694 174 l 694 0 l 174 0 m 0 174 l 0 1042 l 174 1042 l 174 174 l 0 174 m 694 174 l 694 1042 l 868 1042 l 868 174 l 694 174 m 174 1042 l 174 1215 l 694 1215 l 694 1042 l 174 1042 m 174 1389 l 174 1563 l 347 1563 l 347 1389 l 174 1389 m 521 1389 l 521 1563 l 694 1563 l 694 1389 l 521 1389 m 347 1563 l 347 1736 l 521 1736 l 521 1563 l 347 1563 z "},"Õ":{"ha":1042,"x_min":0,"x_max":868,"o":"m 174 0 l 174 174 l 694 174 l 694 0 l 174 0 m 0 174 l 0 1042 l 174 1042 l 174 174 l 0 174 m 694 174 l 694 1042 l 868 1042 l 868 174 l 694 174 m 174 1042 l 174 1215 l 694 1215 l 694 1042 l 174 1042 m 174 1389 l 174 1563 l 347 1563 l 347 1389 l 174 1389 m 521 1389 l 521 1563 l 694 1563 l 694 1389 l 521 1389 m 347 1563 l 347 1736 l 521 1736 l 521 1563 l 347 1563 m 694 1563 l 694 1736 l 868 1736 l 868 1563 l 694 1563 z "},"Ö":{"ha":1042,"x_min":0,"x_max":868,"o":"m 174 0 l 174 174 l 694 174 l 694 0 l 174 0 m 0 174 l 0 1042 l 174 1042 l 174 174 l 0 174 m 694 174 l 694 1042 l 868 1042 l 868 174 l 694 174 m 174 1042 l 174 1215 l 694 1215 l 694 1042 l 174 1042 m 174 1389 l 174 1563 l 347 1563 l 347 1389 l 174 1389 m 521 1389 l 521 1563 l 694 1563 l 694 1389 l 521 1389 z "},"×":{"ha":1042,"x_min":0,"x_max":868,"o":"m 0 174 l 0 347 l 174 347 l 174 174 l 0 174 m 694 174 l 694 347 l 868 347 l 868 174 l 694 174 m 174 347 l 174 521 l 347 521 l 347 347 l 174 347 m 521 347 l 521 521 l 694 521 l 694 347 l 521 347 m 347 521 l 347 694 l 521 694 l 521 521 l 347 521 m 174 694 l 174 868 l 347 868 l 347 694 l 174 694 m 521 694 l 521 868 l 694 868 l 694 694 l 521 694 m 0 868 l 0 1042 l 174 1042 l 174 868 l 0 868 m 694 868 l 694 1042 l 868 1042 l 868 868 l 694 868 z "},"Ø":{"ha":1042,"x_min":0,"x_max":868,"o":"m 347 521 l 347 694 l 521 694 l 521 521 l 347 521 m 174 0 l 174 174 l 0 174 l 0 1042 l 174 1042 l 174 521 l 347 521 l 347 174 l 694 174 l 694 0 l 174 0 m 694 174 l 694 694 l 521 694 l 521 1042 l 174 1042 l 174 1215 l 694 1215 l 694 1042 l 868 1042 l 868 174 l 694 174 z "},"Ù":{"ha":1042,"x_min":0,"x_max":868,"o":"m 174 0 l 174 174 l 694 174 l 694 0 l 174 0 m 0 174 l 0 1215 l 174 1215 l 174 174 l 0 174 m 694 174 l 694 1215 l 868 1215 l 868 174 l 694 174 m 347 1389 l 347 1563 l 521 1563 l 521 1389 l 347 1389 m 174 1563 l 174 1736 l 347 1736 l 347 1563 l 174 1563 z "},"Ú":{"ha":1042,"x_min":0,"x_max":868,"o":"m 174 0 l 174 174 l 694 174 l 694 0 l 174 0 m 0 174 l 0 1215 l 174 1215 l 174 174 l 0 174 m 694 174 l 694 1215 l 868 1215 l 868 174 l 694 174 m 347 1389 l 347 1563 l 521 1563 l 521 1389 l 347 1389 m 521 1563 l 521 1736 l 694 1736 l 694 1563 l 521 1563 z "},"Û":{"ha":1042,"x_min":0,"x_max":868,"o":"m 174 0 l 174 174 l 694 174 l 694 0 l 174 0 m 0 174 l 0 1215 l 174 1215 l 174 174 l 0 174 m 694 174 l 694 1215 l 868 1215 l 868 174 l 694 174 m 174 1389 l 174 1563 l 347 1563 l 347 1389 l 174 1389 m 521 1389 l 521 1563 l 694 1563 l 694 1389 l 521 1389 m 347 1563 l 347 1736 l 521 1736 l 521 1563 l 347 1563 z "},"Ü":{"ha":1042,"x_min":0,"x_max":868,"o":"m 174 0 l 174 174 l 694 174 l 694 0 l 174 0 m 0 174 l 0 1215 l 174 1215 l 174 174 l 0 174 m 694 174 l 694 1215 l 868 1215 l 868 174 l 694 174 m 174 1389 l 174 1563 l 347 1563 l 347 1389 l 174 1389 m 521 1389 l 521 1563 l 694 1563 l 694 1389 l 521 1389 z "},"Ý":{"ha":1042,"x_min":0,"x_max":868,"o":"m 347 0 l 347 868 l 521 868 l 521 0 l 347 0 m 174 868 l 174 1042 l 347 1042 l 347 868 l 174 868 m 521 868 l 521 1042 l 694 1042 l 694 868 l 521 868 m 0 1042 l 0 1215 l 174 1215 l 174 1042 l 0 1042 m 694 1042 l 694 1215 l 868 1215 l 868 1042 l 694 1042 m 347 1389 l 347 1563 l 521 1563 l 521 1389 l 347 1389 m 521 1563 l 521 1736 l 694 1736 l 694 1563 l 521 1563 z "},"Þ":{"ha":1042,"x_min":0,"x_max":868,"o":"m 694 521 l 694 694 l 868 694 l 868 521 l 694 521 m 0 0 l 0 1215 l 174 1215 l 174 868 l 694 868 l 694 694 l 174 694 l 174 521 l 694 521 l 694 347 l 174 347 l 174 0 l 0 0 z "},"ß":{"ha":1042,"x_min":0,"x_max":868,"o":"m 347 0 l 347 174 l 694 174 l 694 0 l 347 0 m 694 174 l 694 694 l 868 694 l 868 174 l 694 174 m 347 694 l 347 868 l 694 868 l 694 694 l 347 694 m 0 -174 l 0 1042 l 174 1042 l 174 -174 l 0 -174 m 694 868 l 694 1042 l 868 1042 l 868 868 l 694 868 m 174 1042 l 174 1215 l 694 1215 l 694 1042 l 174 1042 z "},"à":{"ha":1042,"x_min":0,"x_max":868,"o":"m 0 174 l 0 347 l 174 347 l 174 174 l 0 174 m 174 0 l 174 174 l 694 174 l 694 347 l 174 347 l 174 521 l 694 521 l 694 694 l 868 694 l 868 0 l 174 0 m 174 694 l 174 868 l 694 868 l 694 694 l 174 694 m 347 1042 l 347 1215 l 521 1215 l 521 1042 l 347 1042 m 174 1215 l 174 1389 l 347 1389 l 347 1215 l 174 1215 z "},"á":{"ha":1042,"x_min":0,"x_max":868,"o":"m 0 174 l 0 347 l 174 347 l 174 174 l 0 174 m 174 0 l 174 174 l 694 174 l 694 347 l 174 347 l 174 521 l 694 521 l 694 694 l 868 694 l 868 0 l 174 0 m 174 694 l 174 868 l 694 868 l 694 694 l 174 694 m 347 1042 l 347 1215 l 521 1215 l 521 1042 l 347 1042 m 521 1215 l 521 1389 l 694 1389 l 694 1215 l 521 1215 z "},"â":{"ha":1042,"x_min":0,"x_max":868,"o":"m 0 174 l 0 347 l 174 347 l 174 174 l 0 174 m 174 0 l 174 174 l 694 174 l 694 347 l 174 347 l 174 521 l 694 521 l 694 694 l 868 694 l 868 0 l 174 0 m 174 694 l 174 868 l 694 868 l 694 694 l 174 694 m 174 1042 l 174 1215 l 347 1215 l 347 1042 l 174 1042 m 521 1042 l 521 1215 l 694 1215 l 694 1042 l 521 1042 m 347 1215 l 347 1389 l 521 1389 l 521 1215 l 347 1215 z "},"ã":{"ha":1042,"x_min":0,"x_max":868,"o":"m 0 174 l 0 347 l 174 347 l 174 174 l 0 174 m 174 0 l 174 174 l 694 174 l 694 347 l 174 347 l 174 521 l 694 521 l 694 694 l 868 694 l 868 0 l 174 0 m 174 694 l 174 868 l 694 868 l 694 694 l 174 694 m 174 1042 l 174 1215 l 347 1215 l 347 1042 l 174 1042 m 521 1042 l 521 1215 l 694 1215 l 694 1042 l 521 1042 m 347 1215 l 347 1389 l 521 1389 l 521 1215 l 347 1215 m 694 1215 l 694 1389 l 868 1389 l 868 1215 l 694 1215 z "},"ä":{"ha":1042,"x_min":0,"x_max":868,"o":"m 0 174 l 0 347 l 174 347 l 174 174 l 0 174 m 174 0 l 174 174 l 694 174 l 694 347 l 174 347 l 174 521 l 694 521 l 694 694 l 868 694 l 868 0 l 174 0 m 174 694 l 174 868 l 694 868 l 694 694 l 174 694 m 174 1042 l 174 1215 l 347 1215 l 347 1042 l 174 1042 m 521 1042 l 521 1215 l 694 1215 l 694 1042 l 521 1042 z "},"å":{"ha":1042,"x_min":0,"x_max":868,"o":"m 0 174 l 0 347 l 174 347 l 174 174 l 0 174 m 174 0 l 174 174 l 694 174 l 694 347 l 174 347 l 174 521 l 694 521 l 694 694 l 868 694 l 868 0 l 174 0 m 174 694 l 174 868 l 694 868 l 694 694 l 174 694 m 347 1042 l 347 1215 l 521 1215 l 521 1042 l 347 1042 m 174 1215 l 174 1389 l 347 1389 l 347 1215 l 174 1215 m 521 1215 l 521 1389 l 694 1389 l 694 1215 l 521 1215 m 347 1389 l 347 1563 l 521 1563 l 521 1389 l 347 1389 z "},"æ":{"ha":1736,"x_min":0,"x_max":1563,"o":"m 174 0 l 174 174 l 694 174 l 694 0 l 174 0 m 868 0 l 868 174 l 1563 174 l 1563 0 l 868 0 m 0 174 l 0 347 l 174 347 l 174 174 l 0 174 m 694 174 l 694 347 l 174 347 l 174 521 l 694 521 l 694 694 l 868 694 l 868 521 l 1389 521 l 1389 694 l 1563 694 l 1563 347 l 868 347 l 868 174 l 694 174 m 174 694 l 174 868 l 694 868 l 694 694 l 174 694 m 868 694 l 868 868 l 1389 868 l 1389 694 l 868 694 z "},"ç":{"ha":1042,"x_min":0,"x_max":868,"o":"m 347 -347 l 347 -174 l 521 -174 l 521 -347 l 347 -347 m 521 -174 l 521 0 l 174 0 l 174 174 l 694 174 l 694 -174 l 521 -174 m 694 174 l 694 347 l 868 347 l 868 174 l 694 174 m 0 174 l 0 694 l 174 694 l 174 174 l 0 174 m 694 521 l 694 694 l 868 694 l 868 521 l 694 521 m 174 694 l 174 868 l 694 868 l 694 694 l 174 694 z "},"è":{"ha":1042,"x_min":0,"x_max":868,"o":"m 174 0 l 174 174 l 868 174 l 868 0 l 174 0 m 0 174 l 0 694 l 174 694 l 174 521 l 694 521 l 694 694 l 868 694 l 868 347 l 174 347 l 174 174 l 0 174 m 174 694 l 174 868 l 694 868 l 694 694 l 174 694 m 347 1042 l 347 1215 l 521 1215 l 521 1042 l 347 1042 m 174 1215 l 174 1389 l 347 1389 l 347 1215 l 174 1215 z "},"é":{"ha":1042,"x_min":0,"x_max":868,"o":"m 174 0 l 174 174 l 868 174 l 868 0 l 174 0 m 0 174 l 0 694 l 174 694 l 174 521 l 694 521 l 694 694 l 868 694 l 868 347 l 174 347 l 174 174 l 0 174 m 174 694 l 174 868 l 694 868 l 694 694 l 174 694 m 347 1042 l 347 1215 l 521 1215 l 521 1042 l 347 1042 m 521 1215 l 521 1389 l 694 1389 l 694 1215 l 521 1215 z "},"ê":{"ha":1042,"x_min":0,"x_max":868,"o":"m 174 0 l 174 174 l 868 174 l 868 0 l 174 0 m 0 174 l 0 694 l 174 694 l 174 521 l 694 521 l 694 694 l 868 694 l 868 347 l 174 347 l 174 174 l 0 174 m 174 694 l 174 868 l 694 868 l 694 694 l 174 694 m 174 1042 l 174 1215 l 347 1215 l 347 1042 l 174 1042 m 521 1042 l 521 1215 l 694 1215 l 694 1042 l 521 1042 m 347 1215 l 347 1389 l 521 1389 l 521 1215 l 347 1215 z "},"ë":{"ha":1042,"x_min":0,"x_max":868,"o":"m 174 0 l 174 174 l 868 174 l 868 0 l 174 0 m 0 174 l 0 694 l 174 694 l 174 521 l 694 521 l 694 694 l 868 694 l 868 347 l 174 347 l 174 174 l 0 174 m 174 694 l 174 868 l 694 868 l 694 694 l 174 694 m 174 1042 l 174 1215 l 347 1215 l 347 1042 l 174 1042 m 521 1042 l 521 1215 l 694 1215 l 694 1042 l 521 1042 z "},"ì":{"ha":521,"x_min":0,"x_max":347,"o":"m 174 0 l 174 868 l 347 868 l 347 0 l 174 0 m 174 1042 l 174 1215 l 347 1215 l 347 1042 l 174 1042 m 0 1215 l 0 1389 l 174 1389 l 174 1215 l 0 1215 z "},"í":{"ha":521,"x_min":0,"x_max":347,"o":"m 0 0 l 0 868 l 174 868 l 174 0 l 0 0 m 0 1042 l 0 1215 l 174 1215 l 174 1042 l 0 1042 m 174 1215 l 174 1389 l 347 1389 l 347 1215 l 174 1215 z "},"î":{"ha":694,"x_min":0,"x_max":521,"o":"m 174 0 l 174 868 l 347 868 l 347 0 l 174 0 m 0 1042 l 0 1215 l 174 1215 l 174 1042 l 0 1042 m 347 1042 l 347 1215 l 521 1215 l 521 1042 l 347 1042 m 174 1215 l 174 1389 l 347 1389 l 347 1215 l 174 1215 z "},"ï":{"ha":694,"x_min":0,"x_max":521,"o":"m 174 0 l 174 868 l 347 868 l 347 0 l 174 0 m 0 1042 l 0 1215 l 174 1215 l 174 1042 l 0 1042 m 347 1042 l 347 1215 l 521 1215 l 521 1042 l 347 1042 z "},"ð":{"ha":1042,"x_min":0,"x_max":868,"o":"m 174 0 l 174 174 l 694 174 l 694 0 l 174 0 m 0 174 l 0 347 l 174 347 l 174 174 l 0 174 m 347 694 l 347 868 l 521 868 l 521 694 l 347 694 m 694 174 l 694 347 l 174 347 l 174 521 l 694 521 l 694 868 l 868 868 l 868 174 l 694 174 m 521 868 l 521 1042 l 694 1042 l 694 868 l 521 868 m 174 1042 l 174 1215 l 521 1215 l 521 1042 l 174 1042 m 694 1042 l 694 1215 l 868 1215 l 868 1042 l 694 1042 z "},"ñ":{"ha":1042,"x_min":0,"x_max":868,"o":"m 694 0 l 694 694 l 868 694 l 868 0 l 694 0 m 0 0 l 0 868 l 694 868 l 694 694 l 174 694 l 174 0 l 0 0 m 174 1042 l 174 1215 l 347 1215 l 347 1042 l 174 1042 m 521 1042 l 521 1215 l 694 1215 l 694 1042 l 521 1042 m 347 1215 l 347 1389 l 521 1389 l 521 1215 l 347 1215 m 694 1215 l 694 1389 l 868 1389 l 868 1215 l 694 1215 z "},"ò":{"ha":1042,"x_min":0,"x_max":868,"o":"m 174 0 l 174 174 l 694 174 l 694 0 l 174 0 m 0 174 l 0 694 l 174 694 l 174 174 l 0 174 m 694 174 l 694 694 l 868 694 l 868 174 l 694 174 m 174 694 l 174 868 l 694 868 l 694 694 l 174 694 m 347 1042 l 347 1215 l 521 1215 l 521 1042 l 347 1042 m 174 1215 l 174 1389 l 347 1389 l 347 1215 l 174 1215 z "},"ó":{"ha":1042,"x_min":0,"x_max":868,"o":"m 174 0 l 174 174 l 694 174 l 694 0 l 174 0 m 0 174 l 0 694 l 174 694 l 174 174 l 0 174 m 694 174 l 694 694 l 868 694 l 868 174 l 694 174 m 174 694 l 174 868 l 694 868 l 694 694 l 174 694 m 347 1042 l 347 1215 l 521 1215 l 521 1042 l 347 1042 m 521 1215 l 521 1389 l 694 1389 l 694 1215 l 521 1215 z "},"ô":{"ha":1042,"x_min":0,"x_max":868,"o":"m 174 0 l 174 174 l 694 174 l 694 0 l 174 0 m 0 174 l 0 694 l 174 694 l 174 174 l 0 174 m 694 174 l 694 694 l 868 694 l 868 174 l 694 174 m 174 694 l 174 868 l 694 868 l 694 694 l 174 694 m 174 1042 l 174 1215 l 347 1215 l 347 1042 l 174 1042 m 521 1042 l 521 1215 l 694 1215 l 694 1042 l 521 1042 m 347 1215 l 347 1389 l 521 1389 l 521 1215 l 347 1215 z "},"õ":{"ha":1042,"x_min":0,"x_max":868,"o":"m 174 0 l 174 174 l 694 174 l 694 0 l 174 0 m 0 174 l 0 694 l 174 694 l 174 174 l 0 174 m 694 174 l 694 694 l 868 694 l 868 174 l 694 174 m 174 694 l 174 868 l 694 868 l 694 694 l 174 694 m 174 1042 l 174 1215 l 347 1215 l 347 1042 l 174 1042 m 521 1042 l 521 1215 l 694 1215 l 694 1042 l 521 1042 m 347 1215 l 347 1389 l 521 1389 l 521 1215 l 347 1215 m 694 1215 l 694 1389 l 868 1389 l 868 1215 l 694 1215 z "},"ö":{"ha":1042,"x_min":0,"x_max":868,"o":"m 174 0 l 174 174 l 694 174 l 694 0 l 174 0 m 0 174 l 0 694 l 174 694 l 174 174 l 0 174 m 694 174 l 694 694 l 868 694 l 868 174 l 694 174 m 174 694 l 174 868 l 694 868 l 694 694 l 174 694 m 174 1042 l 174 1215 l 347 1215 l 347 1042 l 174 1042 m 521 1042 l 521 1215 l 694 1215 l 694 1042 l 521 1042 z "},"÷":{"ha":1042,"x_min":0,"x_max":868,"o":"m 347 174 l 347 347 l 521 347 l 521 174 l 347 174 m 0 521 l 0 694 l 868 694 l 868 521 l 0 521 m 347 868 l 347 1042 l 521 1042 l 521 868 l 347 868 z "},"ø":{"ha":1042,"x_min":0,"x_max":868,"o":"m 347 347 l 347 521 l 521 521 l 521 347 l 347 347 m 174 0 l 174 174 l 0 174 l 0 694 l 174 694 l 174 347 l 347 347 l 347 174 l 694 174 l 694 0 l 174 0 m 694 174 l 694 521 l 521 521 l 521 694 l 174 694 l 174 868 l 694 868 l 694 694 l 868 694 l 868 174 l 694 174 z "},"ù":{"ha":1042,"x_min":0,"x_max":868,"o":"m 0 174 l 0 868 l 174 868 l 174 174 l 0 174 m 174 0 l 174 174 l 694 174 l 694 868 l 868 868 l 868 0 l 174 0 m 347 1042 l 347 1215 l 521 1215 l 521 1042 l 347 1042 m 174 1215 l 174 1389 l 347 1389 l 347 1215 l 174 1215 z "},"ú":{"ha":1042,"x_min":0,"x_max":868,"o":"m 0 174 l 0 868 l 174 868 l 174 174 l 0 174 m 174 0 l 174 174 l 694 174 l 694 868 l 868 868 l 868 0 l 174 0 m 347 1042 l 347 1215 l 521 1215 l 521 1042 l 347 1042 m 521 1215 l 521 1389 l 694 1389 l 694 1215 l 521 1215 z "},"û":{"ha":1042,"x_min":0,"x_max":868,"o":"m 0 174 l 0 868 l 174 868 l 174 174 l 0 174 m 174 0 l 174 174 l 694 174 l 694 868 l 868 868 l 868 0 l 174 0 m 174 1042 l 174 1215 l 347 1215 l 347 1042 l 174 1042 m 521 1042 l 521 1215 l 694 1215 l 694 1042 l 521 1042 m 347 1215 l 347 1389 l 521 1389 l 521 1215 l 347 1215 z "},"ü":{"ha":1042,"x_min":0,"x_max":868,"o":"m 0 174 l 0 868 l 174 868 l 174 174 l 0 174 m 174 0 l 174 174 l 694 174 l 694 868 l 868 868 l 868 0 l 174 0 m 174 1042 l 174 1215 l 347 1215 l 347 1042 l 174 1042 m 521 1042 l 521 1215 l 694 1215 l 694 1042 l 521 1042 z "},"ý":{"ha":1042,"x_min":0,"x_max":868,"o":"m 0 -174 l 0 0 l 694 0 l 694 -174 l 0 -174 m 0 347 l 0 868 l 174 868 l 174 347 l 0 347 m 694 0 l 694 174 l 174 174 l 174 347 l 694 347 l 694 868 l 868 868 l 868 0 l 694 0 m 347 1042 l 347 1215 l 521 1215 l 521 1042 l 347 1042 m 521 1215 l 521 1389 l 694 1389 l 694 1215 l 521 1215 z "},"þ":{"ha":1042,"x_min":0,"x_max":868,"o":"m 694 347 l 694 694 l 868 694 l 868 347 l 694 347 m 0 -174 l 0 1215 l 174 1215 l 174 868 l 694 868 l 694 694 l 174 694 l 174 347 l 694 347 l 694 174 l 174 174 l 174 -174 l 0 -174 z "},"ÿ":{"ha":1042,"x_min":0,"x_max":868,"o":"m 0 -174 l 0 0 l 694 0 l 694 -174 l 0 -174 m 0 347 l 0 868 l 174 868 l 174 347 l 0 347 m 694 0 l 694 174 l 174 174 l 174 347 l 694 347 l 694 868 l 868 868 l 868 0 l 694 0 m 174 1042 l 174 1215 l 347 1215 l 347 1042 l 174 1042 m 521 1042 l 521 1215 l 694 1215 l 694 1042 l 521 1042 z "},"Ā":{"ha":1042,"x_min":0,"x_max":868,"o":"m 0 0 l 0 1042 l 174 1042 l 174 868 l 694 868 l 694 1042 l 868 1042 l 868 0 l 694 0 l 694 694 l 174 694 l 174 0 l 0 0 m 174 1042 l 174 1215 l 694 1215 l 694 1042 l 174 1042 m 174 1389 l 174 1563 l 694 1563 l 694 1389 l 174 1389 z "},"ā":{"ha":1042,"x_min":0,"x_max":868,"o":"m 0 174 l 0 347 l 174 347 l 174 174 l 0 174 m 174 0 l 174 174 l 694 174 l 694 347 l 174 347 l 174 521 l 694 521 l 694 694 l 868 694 l 868 0 l 174 0 m 174 694 l 174 868 l 694 868 l 694 694 l 174 694 m 174 1042 l 174 1215 l 694 1215 l 694 1042 l 174 1042 z "},"Ă":{"ha":1042,"x_min":0,"x_max":868,"o":"m 0 0 l 0 1042 l 174 1042 l 174 868 l 694 868 l 694 1042 l 868 1042 l 868 0 l 694 0 l 694 694 l 174 694 l 174 0 l 0 0 m 174 1042 l 174 1215 l 694 1215 l 694 1042 l 174 1042 m 347 1389 l 347 1563 l 694 1563 l 694 1389 l 347 1389 m 174 1563 l 174 1736 l 347 1736 l 347 1563 l 174 1563 m 694 1563 l 694 1736 l 868 1736 l 868 1563 l 694 1563 z "},"ă":{"ha":1042,"x_min":0,"x_max":868,"o":"m 0 174 l 0 347 l 174 347 l 174 174 l 0 174 m 174 0 l 174 174 l 694 174 l 694 347 l 174 347 l 174 521 l 694 521 l 694 694 l 868 694 l 868 0 l 174 0 m 174 694 l 174 868 l 694 868 l 694 694 l 174 694 m 347 1042 l 347 1215 l 694 1215 l 694 1042 l 347 1042 m 174 1215 l 174 1389 l 347 1389 l 347 1215 l 174 1215 m 694 1215 l 694 1389 l 868 1389 l 868 1215 l 694 1215 z "},"Ć":{"ha":1042,"x_min":0,"x_max":868,"o":"m 174 0 l 174 174 l 694 174 l 694 0 l 174 0 m 694 174 l 694 347 l 868 347 l 868 174 l 694 174 m 0 174 l 0 1042 l 174 1042 l 174 174 l 0 174 m 694 868 l 694 1042 l 868 1042 l 868 868 l 694 868 m 174 1042 l 174 1215 l 694 1215 l 694 1042 l 174 1042 m 347 1389 l 347 1563 l 521 1563 l 521 1389 l 347 1389 m 521 1563 l 521 1736 l 694 1736 l 694 1563 l 521 1563 z "},"ć":{"ha":1042,"x_min":0,"x_max":868,"o":"m 174 0 l 174 174 l 694 174 l 694 0 l 174 0 m 694 174 l 694 347 l 868 347 l 868 174 l 694 174 m 0 174 l 0 694 l 174 694 l 174 174 l 0 174 m 694 521 l 694 694 l 868 694 l 868 521 l 694 521 m 174 694 l 174 868 l 694 868 l 694 694 l 174 694 m 347 1042 l 347 1215 l 521 1215 l 521 1042 l 347 1042 m 521 1215 l 521 1389 l 694 1389 l 694 1215 l 521 1215 z "},"Ĉ":{"ha":1042,"x_min":0,"x_max":868,"o":"m 174 0 l 174 174 l 694 174 l 694 0 l 174 0 m 694 174 l 694 347 l 868 347 l 868 174 l 694 174 m 0 174 l 0 1042 l 174 1042 l 174 174 l 0 174 m 694 868 l 694 1042 l 868 1042 l 868 868 l 694 868 m 174 1042 l 174 1215 l 694 1215 l 694 1042 l 174 1042 m 174 1389 l 174 1563 l 347 1563 l 347 1389 l 174 1389 m 521 1389 l 521 1563 l 694 1563 l 694 1389 l 521 1389 m 347 1563 l 347 1736 l 521 1736 l 521 1563 l 347 1563 z "},"ĉ":{"ha":1042,"x_min":0,"x_max":868,"o":"m 174 0 l 174 174 l 694 174 l 694 0 l 174 0 m 694 174 l 694 347 l 868 347 l 868 174 l 694 174 m 0 174 l 0 694 l 174 694 l 174 174 l 0 174 m 694 521 l 694 694 l 868 694 l 868 521 l 694 521 m 174 694 l 174 868 l 694 868 l 694 694 l 174 694 m 174 1042 l 174 1215 l 347 1215 l 347 1042 l 174 1042 m 521 1042 l 521 1215 l 694 1215 l 694 1042 l 521 1042 m 347 1215 l 347 1389 l 521 1389 l 521 1215 l 347 1215 z "},"Ċ":{"ha":1042,"x_min":0,"x_max":868,"o":"m 174 0 l 174 174 l 694 174 l 694 0 l 174 0 m 694 174 l 694 347 l 868 347 l 868 174 l 694 174 m 0 174 l 0 1042 l 174 1042 l 174 174 l 0 174 m 694 868 l 694 1042 l 868 1042 l 868 868 l 694 868 m 174 1042 l 174 1215 l 694 1215 l 694 1042 l 174 1042 m 347 1389 l 347 1563 l 521 1563 l 521 1389 l 347 1389 z "},"ċ":{"ha":1042,"x_min":0,"x_max":868,"o":"m 174 0 l 174 174 l 694 174 l 694 0 l 174 0 m 694 174 l 694 347 l 868 347 l 868 174 l 694 174 m 0 174 l 0 694 l 174 694 l 174 174 l 0 174 m 694 521 l 694 694 l 868 694 l 868 521 l 694 521 m 174 694 l 174 868 l 694 868 l 694 694 l 174 694 m 347 1042 l 347 1215 l 521 1215 l 521 1042 l 347 1042 z "},"Č":{"ha":1042,"x_min":0,"x_max":868,"o":"m 174 0 l 174 174 l 694 174 l 694 0 l 174 0 m 694 174 l 694 347 l 868 347 l 868 174 l 694 174 m 0 174 l 0 1042 l 174 1042 l 174 174 l 0 174 m 694 868 l 694 1042 l 868 1042 l 868 868 l 694 868 m 174 1042 l 174 1215 l 694 1215 l 694 1042 l 174 1042 m 347 1389 l 347 1563 l 521 1563 l 521 1389 l 347 1389 m 174 1563 l 174 1736 l 347 1736 l 347 1563 l 174 1563 m 521 1563 l 521 1736 l 694 1736 l 694 1563 l 521 1563 z "},"č":{"ha":1042,"x_min":0,"x_max":868,"o":"m 174 0 l 174 174 l 694 174 l 694 0 l 174 0 m 694 174 l 694 347 l 868 347 l 868 174 l 694 174 m 0 174 l 0 694 l 174 694 l 174 174 l 0 174 m 694 521 l 694 694 l 868 694 l 868 521 l 694 521 m 174 694 l 174 868 l 694 868 l 694 694 l 174 694 m 347 1042 l 347 1215 l 521 1215 l 521 1042 l 347 1042 m 174 1215 l 174 1389 l 347 1389 l 347 1215 l 174 1215 m 521 1215 l 521 1389 l 694 1389 l 694 1215 l 521 1215 z "},"Ď":{"ha":1042,"x_min":0,"x_max":868,"o":"m 694 174 l 694 1042 l 868 1042 l 868 174 l 694 174 m 0 0 l 0 1215 l 694 1215 l 694 1042 l 174 1042 l 174 174 l 694 174 l 694 0 l 0 0 m 347 1389 l 347 1563 l 521 1563 l 521 1389 l 347 1389 m 174 1563 l 174 1736 l 347 1736 l 347 1563 l 174 1563 m 521 1563 l 521 1736 l 694 1736 l 694 1563 l 521 1563 z "},"Đ":{"ha":1215,"x_min":0,"x_max":1042,"o":"m 868 174 l 868 1042 l 1042 1042 l 1042 174 l 868 174 m 174 0 l 174 694 l 0 694 l 0 868 l 174 868 l 174 1215 l 868 1215 l 868 1042 l 347 1042 l 347 868 l 521 868 l 521 694 l 347 694 l 347 174 l 868 174 l 868 0 l 174 0 z "},"đ":{"ha":1215,"x_min":0,"x_max":1042,"o":"m 0 174 l 0 521 l 174 521 l 174 174 l 0 174 m 174 521 l 174 694 l 521 694 l 521 521 l 174 521 m 174 0 l 174 174 l 694 174 l 694 347 l 521 347 l 521 521 l 694 521 l 694 868 l 521 868 l 521 1042 l 694 1042 l 694 1215 l 868 1215 l 868 1042 l 1042 1042 l 1042 868 l 868 868 l 868 0 l 174 0 z "},"Ē":{"ha":1042,"x_min":0,"x_max":868,"o":"m 0 0 l 0 1215 l 868 1215 l 868 1042 l 174 1042 l 174 868 l 521 868 l 521 694 l 174 694 l 174 174 l 868 174 l 868 0 l 0 0 m 174 1389 l 174 1563 l 694 1563 l 694 1389 l 174 1389 z "},"ē":{"ha":1042,"x_min":0,"x_max":868,"o":"m 174 0 l 174 174 l 868 174 l 868 0 l 174 0 m 0 174 l 0 694 l 174 694 l 174 521 l 694 521 l 694 694 l 868 694 l 868 347 l 174 347 l 174 174 l 0 174 m 174 694 l 174 868 l 694 868 l 694 694 l 174 694 m 174 1042 l 174 1215 l 694 1215 l 694 1042 l 174 1042 z "},"Ĕ":{"ha":1042,"x_min":0,"x_max":868,"o":"m 0 0 l 0 1215 l 868 1215 l 868 1042 l 174 1042 l 174 868 l 521 868 l 521 694 l 174 694 l 174 174 l 868 174 l 868 0 l 0 0 m 347 1389 l 347 1563 l 694 1563 l 694 1389 l 347 1389 m 174 1563 l 174 1736 l 347 1736 l 347 1563 l 174 1563 m 694 1563 l 694 1736 l 868 1736 l 868 1563 l 694 1563 z "},"ĕ":{"ha":1042,"x_min":0,"x_max":868,"o":"m 174 0 l 174 174 l 868 174 l 868 0 l 174 0 m 0 174 l 0 694 l 174 694 l 174 521 l 694 521 l 694 694 l 868 694 l 868 347 l 174 347 l 174 174 l 0 174 m 174 694 l 174 868 l 694 868 l 694 694 l 174 694 m 347 1042 l 347 1215 l 694 1215 l 694 1042 l 347 1042 m 174 1215 l 174 1389 l 347 1389 l 347 1215 l 174 1215 m 694 1215 l 694 1389 l 868 1389 l 868 1215 l 694 1215 z "},"Ė":{"ha":1042,"x_min":0,"x_max":868,"o":"m 0 0 l 0 1215 l 868 1215 l 868 1042 l 174 1042 l 174 868 l 521 868 l 521 694 l 174 694 l 174 174 l 868 174 l 868 0 l 0 0 m 347 1389 l 347 1563 l 521 1563 l 521 1389 l 347 1389 z "},"ė":{"ha":1042,"x_min":0,"x_max":868,"o":"m 174 0 l 174 174 l 868 174 l 868 0 l 174 0 m 0 174 l 0 694 l 174 694 l 174 521 l 694 521 l 694 694 l 868 694 l 868 347 l 174 347 l 174 174 l 0 174 m 174 694 l 174 868 l 694 868 l 694 694 l 174 694 m 347 1042 l 347 1215 l 521 1215 l 521 1042 l 347 1042 z "},"Ě":{"ha":1042,"x_min":0,"x_max":868,"o":"m 0 0 l 0 1215 l 868 1215 l 868 1042 l 174 1042 l 174 868 l 521 868 l 521 694 l 174 694 l 174 174 l 868 174 l 868 0 l 0 0 m 347 1389 l 347 1563 l 521 1563 l 521 1389 l 347 1389 m 174 1563 l 174 1736 l 347 1736 l 347 1563 l 174 1563 m 521 1563 l 521 1736 l 694 1736 l 694 1563 l 521 1563 z "},"ě":{"ha":1042,"x_min":0,"x_max":868,"o":"m 174 0 l 174 174 l 868 174 l 868 0 l 174 0 m 0 174 l 0 694 l 174 694 l 174 521 l 694 521 l 694 694 l 868 694 l 868 347 l 174 347 l 174 174 l 0 174 m 174 694 l 174 868 l 694 868 l 694 694 l 174 694 m 347 1042 l 347 1215 l 521 1215 l 521 1042 l 347 1042 m 174 1215 l 174 1389 l 347 1389 l 347 1215 l 174 1215 m 521 1215 l 521 1389 l 694 1389 l 694 1215 l 521 1215 z "},"Ĝ":{"ha":1042,"x_min":0,"x_max":868,"o":"m 174 0 l 174 174 l 694 174 l 694 0 l 174 0 m 694 174 l 694 694 l 521 694 l 521 868 l 868 868 l 868 174 l 694 174 m 0 174 l 0 1042 l 174 1042 l 174 174 l 0 174 m 174 1042 l 174 1215 l 868 1215 l 868 1042 l 174 1042 m 174 1389 l 174 1563 l 347 1563 l 347 1389 l 174 1389 m 521 1389 l 521 1563 l 694 1563 l 694 1389 l 521 1389 m 347 1563 l 347 1736 l 521 1736 l 521 1563 l 347 1563 z "},"ĝ":{"ha":1042,"x_min":0,"x_max":868,"o":"m 0 -174 l 0 0 l 694 0 l 694 -174 l 0 -174 m 0 347 l 0 694 l 174 694 l 174 347 l 0 347 m 694 0 l 694 174 l 174 174 l 174 347 l 694 347 l 694 694 l 174 694 l 174 868 l 868 868 l 868 0 l 694 0 m 174 1042 l 174 1215 l 347 1215 l 347 1042 l 174 1042 m 521 1042 l 521 1215 l 694 1215 l 694 1042 l 521 1042 m 347 1215 l 347 1389 l 521 1389 l 521 1215 l 347 1215 z "},"Ğ":{"ha":1042,"x_min":0,"x_max":868,"o":"m 174 0 l 174 174 l 694 174 l 694 0 l 174 0 m 694 174 l 694 694 l 521 694 l 521 868 l 868 868 l 868 174 l 694 174 m 0 174 l 0 1042 l 174 1042 l 174 174 l 0 174 m 174 1042 l 174 1215 l 868 1215 l 868 1042 l 174 1042 m 347 1389 l 347 1563 l 694 1563 l 694 1389 l 347 1389 m 174 1563 l 174 1736 l 347 1736 l 347 1563 l 174 1563 m 694 1563 l 694 1736 l 868 1736 l 868 1563 l 694 1563 z "},"ğ":{"ha":1042,"x_min":0,"x_max":868,"o":"m 0 -174 l 0 0 l 694 0 l 694 -174 l 0 -174 m 0 347 l 0 694 l 174 694 l 174 347 l 0 347 m 694 0 l 694 174 l 174 174 l 174 347 l 694 347 l 694 694 l 174 694 l 174 868 l 868 868 l 868 0 l 694 0 m 347 1042 l 347 1215 l 694 1215 l 694 1042 l 347 1042 m 174 1215 l 174 1389 l 347 1389 l 347 1215 l 174 1215 m 694 1215 l 694 1389 l 868 1389 l 868 1215 l 694 1215 z "},"Ġ":{"ha":1042,"x_min":0,"x_max":868,"o":"m 174 0 l 174 174 l 694 174 l 694 0 l 174 0 m 694 174 l 694 694 l 521 694 l 521 868 l 868 868 l 868 174 l 694 174 m 0 174 l 0 1042 l 174 1042 l 174 174 l 0 174 m 174 1042 l 174 1215 l 868 1215 l 868 1042 l 174 1042 m 347 1389 l 347 1563 l 521 1563 l 521 1389 l 347 1389 z "},"ġ":{"ha":1042,"x_min":0,"x_max":868,"o":"m 0 -174 l 0 0 l 694 0 l 694 -174 l 0 -174 m 0 347 l 0 694 l 174 694 l 174 347 l 0 347 m 694 0 l 694 174 l 174 174 l 174 347 l 694 347 l 694 694 l 174 694 l 174 868 l 868 868 l 868 0 l 694 0 m 347 1042 l 347 1215 l 521 1215 l 521 1042 l 347 1042 z "},"Ģ":{"ha":1042,"x_min":0,"x_max":868,"o":"m 174 0 l 174 174 l 694 174 l 694 0 l 174 0 m 694 174 l 694 694 l 521 694 l 521 868 l 868 868 l 868 174 l 694 174 m 0 174 l 0 1042 l 174 1042 l 174 174 l 0 174 m 174 1042 l 174 1215 l 868 1215 l 868 1042 l 174 1042 z "},"Ĥ":{"ha":1042,"x_min":0,"x_max":868,"o":"m 0 0 l 0 1215 l 174 1215 l 174 868 l 694 868 l 694 1215 l 868 1215 l 868 0 l 694 0 l 694 694 l 174 694 l 174 0 l 0 0 m 174 1389 l 174 1563 l 347 1563 l 347 1389 l 174 1389 m 521 1389 l 521 1563 l 694 1563 l 694 1389 l 521 1389 m 347 1563 l 347 1736 l 521 1736 l 521 1563 l 347 1563 z "},"ĥ":{"ha":1042,"x_min":0,"x_max":868,"o":"m 694 0 l 694 694 l 868 694 l 868 0 l 694 0 m 347 694 l 347 868 l 694 868 l 694 694 l 347 694 m 0 0 l 0 1215 l 174 1215 l 174 694 l 347 694 l 347 521 l 174 521 l 174 0 l 0 0 m 174 1389 l 174 1563 l 347 1563 l 347 1389 l 174 1389 m 521 1389 l 521 1563 l 694 1563 l 694 1389 l 521 1389 m 347 1563 l 347 1736 l 521 1736 l 521 1563 l 347 1563 z "},"Ħ":{"ha":1389,"x_min":0,"x_max":1215,"o":"m 868 694 l 868 868 l 347 868 l 347 694 l 868 694 m 174 0 l 174 868 l 0 868 l 0 1042 l 174 1042 l 174 1215 l 347 1215 l 347 1042 l 868 1042 l 868 1215 l 1042 1215 l 1042 1042 l 1215 1042 l 1215 868 l 1042 868 l 1042 0 l 868 0 l 868 521 l 347 521 l 347 0 l 174 0 z "},"ħ":{"ha":1215,"x_min":0,"x_max":1042,"o":"m 868 0 l 868 521 l 1042 521 l 1042 0 l 868 0 m 521 521 l 521 694 l 868 694 l 868 521 l 521 521 m 174 0 l 174 868 l 0 868 l 0 1042 l 174 1042 l 174 1215 l 347 1215 l 347 1042 l 521 1042 l 521 868 l 347 868 l 347 521 l 521 521 l 521 347 l 347 347 l 347 0 l 174 0 z "},"Ĩ":{"ha":868,"x_min":0,"x_max":694,"o":"m 0 0 l 0 174 l 174 174 l 174 1042 l 0 1042 l 0 1215 l 521 1215 l 521 1042 l 347 1042 l 347 174 l 521 174 l 521 0 l 0 0 m 0 1389 l 0 1563 l 174 1563 l 174 1389 l 0 1389 m 347 1389 l 347 1563 l 521 1563 l 521 1389 l 347 1389 m 174 1563 l 174 1736 l 347 1736 l 347 1563 l 174 1563 m 521 1563 l 521 1736 l 694 1736 l 694 1563 l 521 1563 z "},"ĩ":{"ha":868,"x_min":0,"x_max":694,"o":"m 174 0 l 174 868 l 347 868 l 347 0 l 174 0 m 0 1042 l 0 1215 l 174 1215 l 174 1042 l 0 1042 m 347 1042 l 347 1215 l 521 1215 l 521 1042 l 347 1042 m 174 1215 l 174 1389 l 347 1389 l 347 1215 l 174 1215 m 521 1215 l 521 1389 l 694 1389 l 694 1215 l 521 1215 z "},"Ī":{"ha":694,"x_min":0,"x_max":521,"o":"m 0 0 l 0 174 l 174 174 l 174 1042 l 0 1042 l 0 1215 l 521 1215 l 521 1042 l 347 1042 l 347 174 l 521 174 l 521 0 l 0 0 m 0 1389 l 0 1563 l 521 1563 l 521 1389 l 0 1389 z "},"ī":{"ha":694,"x_min":0,"x_max":521,"o":"m 174 0 l 174 868 l 347 868 l 347 0 l 174 0 m 0 1042 l 0 1215 l 521 1215 l 521 1042 l 0 1042 z "},"İ":{"ha":694,"x_min":0,"x_max":521,"o":"m 0 0 l 0 174 l 174 174 l 174 1042 l 0 1042 l 0 1215 l 521 1215 l 521 1042 l 347 1042 l 347 174 l 521 174 l 521 0 l 0 0 m 174 1389 l 174 1563 l 347 1563 l 347 1389 l 174 1389 z "},"ı":{"ha":347,"x_min":0,"x_max":174,"o":"m 0 0 l 0 868 l 174 868 l 174 0 l 0 0 z "},"Ĳ":{"ha":1042,"x_min":0,"x_max":868,"o":"m 174 0 l 174 174 l 694 174 l 694 0 l 174 0 m 0 174 l 0 347 l 174 347 l 174 174 l 0 174 m 0 521 l 0 1215 l 174 1215 l 174 521 l 0 521 m 694 174 l 694 1215 l 868 1215 l 868 174 l 694 174 z "},"ĳ":{"ha":868,"x_min":0,"x_max":694,"o":"m 0 -174 l 0 0 l 521 0 l 521 -174 l 0 -174 m 0 174 l 0 868 l 174 868 l 174 174 l 0 174 m 521 0 l 521 868 l 694 868 l 694 0 l 521 0 m 0 1042 l 0 1215 l 174 1215 l 174 1042 l 0 1042 m 521 1042 l 521 1215 l 694 1215 l 694 1042 l 521 1042 z "},"Ĵ":{"ha":1042,"x_min":0,"x_max":868,"o":"m 174 -174 l 174 0 l 694 0 l 694 -174 l 174 -174 m 0 0 l 0 174 l 174 174 l 174 0 l 0 0 m 694 0 l 694 1215 l 868 1215 l 868 0 l 694 0 m 174 1389 l 174 1563 l 347 1563 l 347 1389 l 174 1389 m 521 1389 l 521 1563 l 694 1563 l 694 1389 l 521 1389 m 347 1563 l 347 1736 l 521 1736 l 521 1563 l 347 1563 z "},"Ŀ":{"ha":1042,"x_min":0,"x_max":868,"o":"m 347 521 l 347 694 l 521 694 l 521 521 l 347 521 m 0 0 l 0 1215 l 174 1215 l 174 174 l 868 174 l 868 0 l 0 0 z "},"ŀ":{"ha":694,"x_min":0,"x_max":521,"o":"m 174 0 l 174 174 l 347 174 l 347 0 l 174 0 m 347 521 l 347 694 l 521 694 l 521 521 l 347 521 m 0 174 l 0 1215 l 174 1215 l 174 174 l 0 174 z "},"Ł":{"ha":1215,"x_min":0,"x_max":1042,"o":"m 521 694 l 521 868 l 694 868 l 694 694 l 521 694 m 174 0 l 174 347 l 0 347 l 0 521 l 174 521 l 174 1215 l 347 1215 l 347 694 l 521 694 l 521 521 l 347 521 l 347 174 l 1042 174 l 1042 0 l 174 0 z "},"ł":{"ha":868,"x_min":0,"x_max":694,"o":"m 347 0 l 347 174 l 521 174 l 521 0 l 347 0 m 521 694 l 521 868 l 694 868 l 694 694 l 521 694 m 174 174 l 174 347 l 0 347 l 0 521 l 174 521 l 174 1215 l 347 1215 l 347 694 l 521 694 l 521 521 l 347 521 l 347 174 l 174 174 z "},"Ń":{"ha":1042,"x_min":0,"x_max":868,"o":"m 347 694 l 347 868 l 521 868 l 521 694 l 347 694 m 0 0 l 0 1215 l 174 1215 l 174 1042 l 347 1042 l 347 868 l 174 868 l 174 0 l 0 0 m 694 0 l 694 521 l 521 521 l 521 694 l 694 694 l 694 1215 l 868 1215 l 868 0 l 694 0 m 347 1389 l 347 1563 l 521 1563 l 521 1389 l 347 1389 m 521 1563 l 521 1736 l 694 1736 l 694 1563 l 521 1563 z "},"ń":{"ha":1042,"x_min":0,"x_max":868,"o":"m 694 0 l 694 694 l 868 694 l 868 0 l 694 0 m 0 0 l 0 868 l 694 868 l 694 694 l 174 694 l 174 0 l 0 0 m 347 1042 l 347 1215 l 521 1215 l 521 1042 l 347 1042 m 521 1215 l 521 1389 l 694 1389 l 694 1215 l 521 1215 z "},"Ņ":{"ha":1042,"x_min":0,"x_max":868,"o":"m 174 -347 l 174 -174 l 347 -174 l 347 -347 l 174 -347 m 347 -174 l 347 0 l 521 0 l 521 -174 l 347 -174 m 347 694 l 347 868 l 521 868 l 521 694 l 347 694 m 0 0 l 0 1215 l 174 1215 l 174 1042 l 347 1042 l 347 868 l 174 868 l 174 0 l 0 0 m 694 0 l 694 521 l 521 521 l 521 694 l 694 694 l 694 1215 l 868 1215 l 868 0 l 694 0 z "},"ņ":{"ha":1042,"x_min":0,"x_max":868,"o":"m 174 -347 l 174 -174 l 347 -174 l 347 -347 l 174 -347 m 347 -174 l 347 0 l 521 0 l 521 -174 l 347 -174 m 694 0 l 694 694 l 868 694 l 868 0 l 694 0 m 0 0 l 0 868 l 694 868 l 694 694 l 174 694 l 174 0 l 0 0 z "},"Ň":{"ha":1042,"x_min":0,"x_max":868,"o":"m 347 694 l 347 868 l 521 868 l 521 694 l 347 694 m 0 0 l 0 1215 l 174 1215 l 174 1042 l 347 1042 l 347 868 l 174 868 l 174 0 l 0 0 m 694 0 l 694 521 l 521 521 l 521 694 l 694 694 l 694 1215 l 868 1215 l 868 0 l 694 0 m 347 1389 l 347 1563 l 521 1563 l 521 1389 l 347 1389 m 174 1563 l 174 1736 l 347 1736 l 347 1563 l 174 1563 m 521 1563 l 521 1736 l 694 1736 l 694 1563 l 521 1563 z "},"ň":{"ha":1042,"x_min":0,"x_max":868,"o":"m 694 0 l 694 694 l 868 694 l 868 0 l 694 0 m 0 0 l 0 868 l 694 868 l 694 694 l 174 694 l 174 0 l 0 0 m 347 1042 l 347 1215 l 521 1215 l 521 1042 l 347 1042 m 174 1215 l 174 1389 l 347 1389 l 347 1215 l 174 1215 m 521 1215 l 521 1389 l 694 1389 l 694 1215 l 521 1215 z "},"ŉ":{"ha":1389,"x_min":0,"x_max":1215,"o":"m 1042 0 l 1042 694 l 1215 694 l 1215 0 l 1042 0 m 347 0 l 347 868 l 1042 868 l 1042 694 l 521 694 l 521 0 l 347 0 m 0 868 l 0 1215 l 174 1215 l 174 868 l 0 868 z "},"Ŋ":{"ha":1042,"x_min":0,"x_max":868,"o":"m 521 -174 l 521 0 l 694 0 l 694 -174 l 521 -174 m 347 694 l 347 868 l 521 868 l 521 694 l 347 694 m 0 0 l 0 1215 l 174 1215 l 174 1042 l 347 1042 l 347 868 l 174 868 l 174 0 l 0 0 m 694 0 l 694 521 l 521 521 l 521 694 l 694 694 l 694 1215 l 868 1215 l 868 0 l 694 0 z "},"ŋ":{"ha":1042,"x_min":0,"x_max":868,"o":"m 521 -174 l 521 0 l 694 0 l 694 -174 l 521 -174 m 694 0 l 694 694 l 868 694 l 868 0 l 694 0 m 0 0 l 0 868 l 694 868 l 694 694 l 174 694 l 174 0 l 0 0 z "},"Ō":{"ha":1042,"x_min":0,"x_max":868,"o":"m 174 0 l 174 174 l 694 174 l 694 0 l 174 0 m 0 174 l 0 1042 l 174 1042 l 174 174 l 0 174 m 694 174 l 694 1042 l 868 1042 l 868 174 l 694 174 m 174 1042 l 174 1215 l 694 1215 l 694 1042 l 174 1042 m 174 1389 l 174 1563 l 694 1563 l 694 1389 l 174 1389 z "},"ō":{"ha":1042,"x_min":0,"x_max":868,"o":"m 174 0 l 174 174 l 694 174 l 694 0 l 174 0 m 0 174 l 0 694 l 174 694 l 174 174 l 0 174 m 694 174 l 694 694 l 868 694 l 868 174 l 694 174 m 174 694 l 174 868 l 694 868 l 694 694 l 174 694 m 174 1042 l 174 1215 l 694 1215 l 694 1042 l 174 1042 z "},"Ŏ":{"ha":1042,"x_min":0,"x_max":868,"o":"m 174 0 l 174 174 l 694 174 l 694 0 l 174 0 m 0 174 l 0 1042 l 174 1042 l 174 174 l 0 174 m 694 174 l 694 1042 l 868 1042 l 868 174 l 694 174 m 174 1042 l 174 1215 l 694 1215 l 694 1042 l 174 1042 m 347 1389 l 347 1563 l 694 1563 l 694 1389 l 347 1389 m 174 1563 l 174 1736 l 347 1736 l 347 1563 l 174 1563 m 694 1563 l 694 1736 l 868 1736 l 868 1563 l 694 1563 z "},"ŏ":{"ha":1042,"x_min":0,"x_max":868,"o":"m 174 0 l 174 174 l 694 174 l 694 0 l 174 0 m 0 174 l 0 694 l 174 694 l 174 174 l 0 174 m 694 174 l 694 694 l 868 694 l 868 174 l 694 174 m 174 694 l 174 868 l 694 868 l 694 694 l 174 694 m 347 1042 l 347 1215 l 694 1215 l 694 1042 l 347 1042 m 174 1215 l 174 1389 l 347 1389 l 347 1215 l 174 1215 m 694 1215 l 694 1389 l 868 1389 l 868 1215 l 694 1215 z "},"Ő":{"ha":1042,"x_min":0,"x_max":868,"o":"m 174 0 l 174 174 l 694 174 l 694 0 l 174 0 m 0 174 l 0 1042 l 174 1042 l 174 174 l 0 174 m 694 174 l 694 1042 l 868 1042 l 868 174 l 694 174 m 174 1042 l 174 1215 l 694 1215 l 694 1042 l 174 1042 m 0 1389 l 0 1563 l 174 1563 l 174 1389 l 0 1389 m 521 1389 l 521 1563 l 694 1563 l 694 1389 l 521 1389 m 174 1563 l 174 1736 l 347 1736 l 347 1563 l 174 1563 m 694 1563 l 694 1736 l 868 1736 l 868 1563 l 694 1563 z "},"ő":{"ha":1042,"x_min":0,"x_max":868,"o":"m 174 0 l 174 174 l 694 174 l 694 0 l 174 0 m 0 174 l 0 694 l 174 694 l 174 174 l 0 174 m 694 174 l 694 694 l 868 694 l 868 174 l 694 174 m 174 694 l 174 868 l 694 868 l 694 694 l 174 694 m 0 1042 l 0 1215 l 174 1215 l 174 1042 l 0 1042 m 521 1042 l 521 1215 l 694 1215 l 694 1042 l 521 1042 m 174 1215 l 174 1389 l 347 1389 l 347 1215 l 174 1215 m 694 1215 l 694 1389 l 868 1389 l 868 1215 l 694 1215 z "},"Œ":{"ha":1736,"x_min":0,"x_max":1563,"o":"m 0 174 l 0 1042 l 174 1042 l 174 174 l 0 174 m 174 0 l 174 174 l 694 174 l 694 1042 l 174 1042 l 174 1215 l 1563 1215 l 1563 1042 l 868 1042 l 868 868 l 1215 868 l 1215 694 l 868 694 l 868 174 l 1563 174 l 1563 0 l 174 0 z "},"œ":{"ha":1736,"x_min":0,"x_max":1563,"o":"m 174 0 l 174 174 l 694 174 l 694 0 l 174 0 m 868 0 l 868 174 l 1563 174 l 1563 0 l 868 0 m 0 174 l 0 694 l 174 694 l 174 174 l 0 174 m 694 174 l 694 694 l 868 694 l 868 521 l 1389 521 l 1389 694 l 1563 694 l 1563 347 l 868 347 l 868 174 l 694 174 m 174 694 l 174 868 l 694 868 l 694 694 l 174 694 m 868 694 l 868 868 l 1389 868 l 1389 694 l 868 694 z "},"Ŕ":{"ha":1042,"x_min":0,"x_max":868,"o":"m 694 0 l 694 694 l 868 694 l 868 0 l 694 0 m 694 868 l 694 1042 l 868 1042 l 868 868 l 694 868 m 0 0 l 0 1215 l 694 1215 l 694 1042 l 174 1042 l 174 868 l 694 868 l 694 694 l 174 694 l 174 0 l 0 0 m 347 1389 l 347 1563 l 521 1563 l 521 1389 l 347 1389 m 521 1563 l 521 1736 l 694 1736 l 694 1563 l 521 1563 z "},"ŕ":{"ha":1042,"x_min":0,"x_max":868,"o":"m 694 521 l 694 694 l 868 694 l 868 521 l 694 521 m 0 0 l 0 868 l 174 868 l 174 694 l 347 694 l 347 521 l 174 521 l 174 0 l 0 0 m 347 694 l 347 868 l 694 868 l 694 694 l 347 694 m 347 1042 l 347 1215 l 521 1215 l 521 1042 l 347 1042 m 521 1215 l 521 1389 l 694 1389 l 694 1215 l 521 1215 z "},"Ŗ":{"ha":1042,"x_min":0,"x_max":868,"o":"m 174 -347 l 174 -174 l 347 -174 l 347 -347 l 174 -347 m 347 -174 l 347 0 l 521 0 l 521 -174 l 347 -174 m 694 0 l 694 694 l 868 694 l 868 0 l 694 0 m 694 868 l 694 1042 l 868 1042 l 868 868 l 694 868 m 0 0 l 0 1215 l 694 1215 l 694 1042 l 174 1042 l 174 868 l 694 868 l 694 694 l 174 694 l 174 0 l 0 0 z "},"ŗ":{"ha":1042,"x_min":0,"x_max":868,"o":"m 174 -347 l 174 -174 l 347 -174 l 347 -347 l 174 -347 m 347 -174 l 347 0 l 521 0 l 521 -174 l 347 -174 m 694 521 l 694 694 l 868 694 l 868 521 l 694 521 m 0 0 l 0 868 l 174 868 l 174 694 l 347 694 l 347 521 l 174 521 l 174 0 l 0 0 m 347 694 l 347 868 l 694 868 l 694 694 l 347 694 z "},"Ř":{"ha":1042,"x_min":0,"x_max":868,"o":"m 694 0 l 694 694 l 868 694 l 868 0 l 694 0 m 694 868 l 694 1042 l 868 1042 l 868 868 l 694 868 m 0 0 l 0 1215 l 694 1215 l 694 1042 l 174 1042 l 174 868 l 694 868 l 694 694 l 174 694 l 174 0 l 0 0 m 347 1389 l 347 1563 l 521 1563 l 521 1389 l 347 1389 m 174 1563 l 174 1736 l 347 1736 l 347 1563 l 174 1563 m 521 1563 l 521 1736 l 694 1736 l 694 1563 l 521 1563 z "},"ř":{"ha":1042,"x_min":0,"x_max":868,"o":"m 694 521 l 694 694 l 868 694 l 868 521 l 694 521 m 0 0 l 0 868 l 174 868 l 174 694 l 347 694 l 347 521 l 174 521 l 174 0 l 0 0 m 347 694 l 347 868 l 694 868 l 694 694 l 347 694 m 347 1042 l 347 1215 l 521 1215 l 521 1042 l 347 1042 m 174 1215 l 174 1389 l 347 1389 l 347 1215 l 174 1215 m 521 1215 l 521 1389 l 694 1389 l 694 1215 l 521 1215 z "},"Ś":{"ha":1042,"x_min":0,"x_max":868,"o":"m 174 0 l 174 174 l 694 174 l 694 0 l 174 0 m 0 174 l 0 347 l 174 347 l 174 174 l 0 174 m 694 174 l 694 694 l 868 694 l 868 174 l 694 174 m 174 694 l 174 868 l 694 868 l 694 694 l 174 694 m 0 868 l 0 1042 l 174 1042 l 174 868 l 0 868 m 174 1042 l 174 1215 l 868 1215 l 868 1042 l 174 1042 m 347 1389 l 347 1563 l 521 1563 l 521 1389 l 347 1389 m 521 1563 l 521 1736 l 694 1736 l 694 1563 l 521 1563 z "},"ś":{"ha":1042,"x_min":0,"x_max":868,"o":"m 0 0 l 0 174 l 694 174 l 694 0 l 0 0 m 694 174 l 694 347 l 868 347 l 868 174 l 694 174 m 174 347 l 174 521 l 694 521 l 694 347 l 174 347 m 0 521 l 0 694 l 174 694 l 174 521 l 0 521 m 174 694 l 174 868 l 868 868 l 868 694 l 174 694 m 174 1042 l 174 1215 l 347 1215 l 347 1042 l 174 1042 m 521 1042 l 521 1215 l 694 1215 l 694 1042 l 521 1042 m 347 1215 l 347 1389 l 521 1389 l 521 1215 l 347 1215 z "},"Ŝ":{"ha":1042,"x_min":0,"x_max":868,"o":"m 174 0 l 174 174 l 694 174 l 694 0 l 174 0 m 0 174 l 0 347 l 174 347 l 174 174 l 0 174 m 694 174 l 694 694 l 868 694 l 868 174 l 694 174 m 174 694 l 174 868 l 694 868 l 694 694 l 174 694 m 0 868 l 0 1042 l 174 1042 l 174 868 l 0 868 m 174 1042 l 174 1215 l 868 1215 l 868 1042 l 174 1042 m 174 1389 l 174 1563 l 347 1563 l 347 1389 l 174 1389 m 521 1389 l 521 1563 l 694 1563 l 694 1389 l 521 1389 m 347 1563 l 347 1736 l 521 1736 l 521 1563 l 347 1563 z "},"ŝ":{"ha":1042,"x_min":0,"x_max":868,"o":"m 0 0 l 0 174 l 694 174 l 694 0 l 0 0 m 694 174 l 694 347 l 868 347 l 868 174 l 694 174 m 174 347 l 174 521 l 694 521 l 694 347 l 174 347 m 0 521 l 0 694 l 174 694 l 174 521 l 0 521 m 174 694 l 174 868 l 868 868 l 868 694 l 174 694 m 174 1042 l 174 1215 l 347 1215 l 347 1042 l 174 1042 m 521 1042 l 521 1215 l 694 1215 l 694 1042 l 521 1042 m 347 1215 l 347 1389 l 521 1389 l 521 1215 l 347 1215 z "},"Ş":{"ha":1042,"x_min":0,"x_max":868,"o":"m 347 -347 l 347 -174 l 521 -174 l 521 -347 l 347 -347 m 521 -174 l 521 0 l 174 0 l 174 174 l 694 174 l 694 -174 l 521 -174 m 0 174 l 0 347 l 174 347 l 174 174 l 0 174 m 694 174 l 694 694 l 868 694 l 868 174 l 694 174 m 174 694 l 174 868 l 694 868 l 694 694 l 174 694 m 0 868 l 0 1042 l 174 1042 l 174 868 l 0 868 m 174 1042 l 174 1215 l 868 1215 l 868 1042 l 174 1042 z "},"ş":{"ha":1042,"x_min":0,"x_max":868,"o":"m 347 -347 l 347 -174 l 521 -174 l 521 -347 l 347 -347 m 521 -174 l 521 0 l 0 0 l 0 174 l 694 174 l 694 -174 l 521 -174 m 694 174 l 694 347 l 868 347 l 868 174 l 694 174 m 174 347 l 174 521 l 694 521 l 694 347 l 174 347 m 0 521 l 0 694 l 174 694 l 174 521 l 0 521 m 174 694 l 174 868 l 868 868 l 868 694 l 174 694 z "},"Š":{"ha":1042,"x_min":0,"x_max":868,"o":"m 174 0 l 174 174 l 694 174 l 694 0 l 174 0 m 0 174 l 0 347 l 174 347 l 174 174 l 0 174 m 694 174 l 694 694 l 868 694 l 868 174 l 694 174 m 174 694 l 174 868 l 694 868 l 694 694 l 174 694 m 0 868 l 0 1042 l 174 1042 l 174 868 l 0 868 m 174 1042 l 174 1215 l 868 1215 l 868 1042 l 174 1042 m 347 1389 l 347 1563 l 521 1563 l 521 1389 l 347 1389 m 174 1563 l 174 1736 l 347 1736 l 347 1563 l 174 1563 m 521 1563 l 521 1736 l 694 1736 l 694 1563 l 521 1563 z "},"š":{"ha":1042,"x_min":0,"x_max":868,"o":"m 0 0 l 0 174 l 694 174 l 694 0 l 0 0 m 694 174 l 694 347 l 868 347 l 868 174 l 694 174 m 174 347 l 174 521 l 694 521 l 694 347 l 174 347 m 0 521 l 0 694 l 174 694 l 174 521 l 0 521 m 174 694 l 174 868 l 868 868 l 868 694 l 174 694 m 347 1042 l 347 1215 l 521 1215 l 521 1042 l 347 1042 m 174 1215 l 174 1389 l 347 1389 l 347 1215 l 174 1215 m 521 1215 l 521 1389 l 694 1389 l 694 1215 l 521 1215 z "},"Ţ":{"ha":1042,"x_min":0,"x_max":868,"o":"m 347 -347 l 347 -174 l 521 -174 l 521 -347 l 347 -347 m 521 -174 l 521 0 l 694 0 l 694 -174 l 521 -174 m 347 0 l 347 1042 l 0 1042 l 0 1215 l 868 1215 l 868 1042 l 521 1042 l 521 0 l 347 0 z "},"ţ":{"ha":694,"x_min":0,"x_max":521,"o":"m 174 -347 l 174 -174 l 347 -174 l 347 -347 l 174 -347 m 347 -174 l 347 174 l 521 174 l 521 -174 l 347 -174 m 174 174 l 174 694 l 0 694 l 0 868 l 174 868 l 174 1215 l 347 1215 l 347 868 l 521 868 l 521 694 l 347 694 l 347 174 l 174 174 z "},"Ť":{"ha":1042,"x_min":0,"x_max":868,"o":"m 347 0 l 347 1042 l 0 1042 l 0 1215 l 868 1215 l 868 1042 l 521 1042 l 521 0 l 347 0 m 347 1389 l 347 1563 l 521 1563 l 521 1389 l 347 1389 m 174 1563 l 174 1736 l 347 1736 l 347 1563 l 174 1563 m 521 1563 l 521 1736 l 694 1736 l 694 1563 l 521 1563 z "},"ť":{"ha":868,"x_min":0,"x_max":694,"o":"m 347 0 l 347 174 l 521 174 l 521 0 l 347 0 m 174 174 l 174 694 l 0 694 l 0 868 l 174 868 l 174 1215 l 347 1215 l 347 868 l 521 868 l 521 694 l 347 694 l 347 174 l 174 174 m 521 1042 l 521 1389 l 694 1389 l 694 1042 l 521 1042 z "},"Ŧ":{"ha":1042,"x_min":0,"x_max":868,"o":"m 347 0 l 347 694 l 174 694 l 174 868 l 347 868 l 347 1042 l 0 1042 l 0 1215 l 868 1215 l 868 1042 l 521 1042 l 521 868 l 694 868 l 694 694 l 521 694 l 521 0 l 347 0 z "},"ŧ":{"ha":694,"x_min":0,"x_max":521,"o":"m 347 0 l 347 174 l 521 174 l 521 0 l 347 0 m 174 174 l 174 347 l 0 347 l 0 521 l 174 521 l 174 694 l 0 694 l 0 868 l 174 868 l 174 1215 l 347 1215 l 347 868 l 521 868 l 521 694 l 347 694 l 347 521 l 521 521 l 521 347 l 347 347 l 347 174 l 174 174 z "},"Ũ":{"ha":1042,"x_min":0,"x_max":868,"o":"m 174 0 l 174 174 l 694 174 l 694 0 l 174 0 m 0 174 l 0 1215 l 174 1215 l 174 174 l 0 174 m 694 174 l 694 1215 l 868 1215 l 868 174 l 694 174 m 174 1389 l 174 1563 l 347 1563 l 347 1389 l 174 1389 m 521 1389 l 521 1563 l 694 1563 l 694 1389 l 521 1389 m 347 1563 l 347 1736 l 521 1736 l 521 1563 l 347 1563 m 694 1563 l 694 1736 l 868 1736 l 868 1563 l 694 1563 z "},"ũ":{"ha":1042,"x_min":0,"x_max":868,"o":"m 0 174 l 0 868 l 174 868 l 174 174 l 0 174 m 174 0 l 174 174 l 694 174 l 694 868 l 868 868 l 868 0 l 174 0 m 174 1042 l 174 1215 l 347 1215 l 347 1042 l 174 1042 m 521 1042 l 521 1215 l 694 1215 l 694 1042 l 521 1042 m 347 1215 l 347 1389 l 521 1389 l 521 1215 l 347 1215 m 694 1215 l 694 1389 l 868 1389 l 868 1215 l 694 1215 z "},"Ū":{"ha":1042,"x_min":0,"x_max":868,"o":"m 174 0 l 174 174 l 694 174 l 694 0 l 174 0 m 0 174 l 0 1215 l 174 1215 l 174 174 l 0 174 m 694 174 l 694 1215 l 868 1215 l 868 174 l 694 174 m 174 1389 l 174 1563 l 694 1563 l 694 1389 l 174 1389 z "},"ū":{"ha":1042,"x_min":0,"x_max":868,"o":"m 0 174 l 0 868 l 174 868 l 174 174 l 0 174 m 174 0 l 174 174 l 694 174 l 694 868 l 868 868 l 868 0 l 174 0 m 174 1042 l 174 1215 l 694 1215 l 694 1042 l 174 1042 z "},"Ŭ":{"ha":1042,"x_min":0,"x_max":868,"o":"m 174 0 l 174 174 l 694 174 l 694 0 l 174 0 m 0 174 l 0 1215 l 174 1215 l 174 174 l 0 174 m 694 174 l 694 1215 l 868 1215 l 868 174 l 694 174 m 347 1389 l 347 1563 l 694 1563 l 694 1389 l 347 1389 m 174 1563 l 174 1736 l 347 1736 l 347 1563 l 174 1563 m 694 1563 l 694 1736 l 868 1736 l 868 1563 l 694 1563 z "},"ŭ":{"ha":1042,"x_min":0,"x_max":868,"o":"m 0 174 l 0 868 l 174 868 l 174 174 l 0 174 m 174 0 l 174 174 l 694 174 l 694 868 l 868 868 l 868 0 l 174 0 m 347 1042 l 347 1215 l 694 1215 l 694 1042 l 347 1042 m 174 1215 l 174 1389 l 347 1389 l 347 1215 l 174 1215 m 694 1215 l 694 1389 l 868 1389 l 868 1215 l 694 1215 z "},"Ů":{"ha":1042,"x_min":0,"x_max":868,"o":"m 174 0 l 174 174 l 694 174 l 694 0 l 174 0 m 0 174 l 0 1215 l 174 1215 l 174 174 l 0 174 m 694 174 l 694 1215 l 868 1215 l 868 174 l 694 174 m 347 1215 l 347 1389 l 521 1389 l 521 1215 l 347 1215 m 174 1389 l 174 1563 l 347 1563 l 347 1389 l 174 1389 m 521 1389 l 521 1563 l 694 1563 l 694 1389 l 521 1389 m 347 1563 l 347 1736 l 521 1736 l 521 1563 l 347 1563 z "},"ů":{"ha":1042,"x_min":0,"x_max":868,"o":"m 0 174 l 0 868 l 174 868 l 174 174 l 0 174 m 174 0 l 174 174 l 694 174 l 694 868 l 868 868 l 868 0 l 174 0 m 347 1042 l 347 1215 l 521 1215 l 521 1042 l 347 1042 m 174 1215 l 174 1389 l 347 1389 l 347 1215 l 174 1215 m 521 1215 l 521 1389 l 694 1389 l 694 1215 l 521 1215 m 347 1389 l 347 1563 l 521 1563 l 521 1389 l 347 1389 z "},"Ű":{"ha":1042,"x_min":0,"x_max":868,"o":"m 174 0 l 174 174 l 694 174 l 694 0 l 174 0 m 0 174 l 0 1215 l 174 1215 l 174 174 l 0 174 m 694 174 l 694 1215 l 868 1215 l 868 174 l 694 174 m 0 1389 l 0 1563 l 174 1563 l 174 1389 l 0 1389 m 521 1389 l 521 1563 l 694 1563 l 694 1389 l 521 1389 m 174 1563 l 174 1736 l 347 1736 l 347 1563 l 174 1563 m 694 1563 l 694 1736 l 868 1736 l 868 1563 l 694 1563 z "},"ű":{"ha":1042,"x_min":0,"x_max":868,"o":"m 0 174 l 0 868 l 174 868 l 174 174 l 0 174 m 174 0 l 174 174 l 694 174 l 694 868 l 868 868 l 868 0 l 174 0 m 0 1042 l 0 1215 l 174 1215 l 174 1042 l 0 1042 m 521 1042 l 521 1215 l 694 1215 l 694 1042 l 521 1042 m 174 1215 l 174 1389 l 347 1389 l 347 1215 l 174 1215 m 694 1215 l 694 1389 l 868 1389 l 868 1215 l 694 1215 z "},"Ų":{"ha":1042,"x_min":0,"x_max":868,"o":"m 694 -347 l 694 -174 l 868 -174 l 868 -347 l 694 -347 m 521 -174 l 521 0 l 174 0 l 174 174 l 694 174 l 694 -174 l 521 -174 m 0 174 l 0 1215 l 174 1215 l 174 174 l 0 174 m 694 174 l 694 1215 l 868 1215 l 868 174 l 694 174 z "},"ų":{"ha":1042,"x_min":0,"x_max":868,"o":"m 694 -347 l 694 -174 l 868 -174 l 868 -347 l 694 -347 m 0 174 l 0 868 l 174 868 l 174 174 l 0 174 m 521 -174 l 521 0 l 174 0 l 174 174 l 694 174 l 694 868 l 868 868 l 868 0 l 694 0 l 694 -174 l 521 -174 z "},"Ŵ":{"ha":1042,"x_min":0,"x_max":868,"o":"m 347 347 l 347 521 l 521 521 l 521 347 l 347 347 m 0 0 l 0 1215 l 174 1215 l 174 347 l 347 347 l 347 174 l 174 174 l 174 0 l 0 0 m 694 0 l 694 174 l 521 174 l 521 347 l 694 347 l 694 1215 l 868 1215 l 868 0 l 694 0 m 174 1389 l 174 1563 l 347 1563 l 347 1389 l 174 1389 m 521 1389 l 521 1563 l 694 1563 l 694 1389 l 521 1389 m 347 1563 l 347 1736 l 521 1736 l 521 1563 l 347 1563 z "},"ŵ":{"ha":1042,"x_min":0,"x_max":868,"o":"m 0 174 l 0 868 l 174 868 l 174 174 l 0 174 m 174 0 l 174 174 l 347 174 l 347 521 l 521 521 l 521 174 l 694 174 l 694 868 l 868 868 l 868 0 l 174 0 m 174 1042 l 174 1215 l 347 1215 l 347 1042 l 174 1042 m 521 1042 l 521 1215 l 694 1215 l 694 1042 l 521 1042 m 347 1215 l 347 1389 l 521 1389 l 521 1215 l 347 1215 z "},"Ŷ":{"ha":1042,"x_min":0,"x_max":868,"o":"m 347 0 l 347 868 l 521 868 l 521 0 l 347 0 m 174 868 l 174 1042 l 347 1042 l 347 868 l 174 868 m 521 868 l 521 1042 l 694 1042 l 694 868 l 521 868 m 0 1042 l 0 1215 l 174 1215 l 174 1042 l 0 1042 m 694 1042 l 694 1215 l 868 1215 l 868 1042 l 694 1042 m 174 1389 l 174 1563 l 347 1563 l 347 1389 l 174 1389 m 521 1389 l 521 1563 l 694 1563 l 694 1389 l 521 1389 m 347 1563 l 347 1736 l 521 1736 l 521 1563 l 347 1563 z "},"ŷ":{"ha":1042,"x_min":0,"x_max":868,"o":"m 0 -174 l 0 0 l 694 0 l 694 -174 l 0 -174 m 0 347 l 0 868 l 174 868 l 174 347 l 0 347 m 694 0 l 694 174 l 174 174 l 174 347 l 694 347 l 694 868 l 868 868 l 868 0 l 694 0 m 174 1042 l 174 1215 l 347 1215 l 347 1042 l 174 1042 m 521 1042 l 521 1215 l 694 1215 l 694 1042 l 521 1042 m 347 1215 l 347 1389 l 521 1389 l 521 1215 l 347 1215 z "},"Ÿ":{"ha":1042,"x_min":0,"x_max":868,"o":"m 347 0 l 347 868 l 521 868 l 521 0 l 347 0 m 174 868 l 174 1042 l 347 1042 l 347 868 l 174 868 m 521 868 l 521 1042 l 694 1042 l 694 868 l 521 868 m 0 1042 l 0 1215 l 174 1215 l 174 1042 l 0 1042 m 694 1042 l 694 1215 l 868 1215 l 868 1042 l 694 1042 m 174 1389 l 174 1563 l 347 1563 l 347 1389 l 174 1389 m 521 1389 l 521 1563 l 694 1563 l 694 1389 l 521 1389 z "},"Ź":{"ha":1042,"x_min":0,"x_max":868,"o":"m 0 0 l 0 347 l 174 347 l 174 174 l 868 174 l 868 0 l 0 0 m 174 347 l 174 521 l 347 521 l 347 347 l 174 347 m 347 521 l 347 694 l 521 694 l 521 521 l 347 521 m 521 694 l 521 868 l 694 868 l 694 694 l 521 694 m 694 868 l 694 1042 l 0 1042 l 0 1215 l 868 1215 l 868 868 l 694 868 m 347 1389 l 347 1563 l 521 1563 l 521 1389 l 347 1389 m 521 1563 l 521 1736 l 694 1736 l 694 1563 l 521 1563 z "},"ź":{"ha":1042,"x_min":0,"x_max":868,"o":"m 0 0 l 0 174 l 174 174 l 174 347 l 347 347 l 347 174 l 868 174 l 868 0 l 0 0 m 347 347 l 347 521 l 521 521 l 521 347 l 347 347 m 521 521 l 521 694 l 0 694 l 0 868 l 868 868 l 868 694 l 694 694 l 694 521 l 521 521 m 347 1042 l 347 1215 l 521 1215 l 521 1042 l 347 1042 m 521 1215 l 521 1389 l 694 1389 l 694 1215 l 521 1215 z "},"Ż":{"ha":1042,"x_min":0,"x_max":868,"o":"m 0 0 l 0 347 l 174 347 l 174 174 l 868 174 l 868 0 l 0 0 m 174 347 l 174 521 l 347 521 l 347 347 l 174 347 m 347 521 l 347 694 l 521 694 l 521 521 l 347 521 m 521 694 l 521 868 l 694 868 l 694 694 l 521 694 m 694 868 l 694 1042 l 0 1042 l 0 1215 l 868 1215 l 868 868 l 694 868 m 347 1389 l 347 1563 l 521 1563 l 521 1389 l 347 1389 z "},"ż":{"ha":1042,"x_min":0,"x_max":868,"o":"m 0 0 l 0 174 l 174 174 l 174 347 l 347 347 l 347 174 l 868 174 l 868 0 l 0 0 m 347 347 l 347 521 l 521 521 l 521 347 l 347 347 m 521 521 l 521 694 l 0 694 l 0 868 l 868 868 l 868 694 l 694 694 l 694 521 l 521 521 m 347 1042 l 347 1215 l 521 1215 l 521 1042 l 347 1042 z "},"Ž":{"ha":1042,"x_min":0,"x_max":868,"o":"m 0 0 l 0 347 l 174 347 l 174 174 l 868 174 l 868 0 l 0 0 m 174 347 l 174 521 l 347 521 l 347 347 l 174 347 m 347 521 l 347 694 l 521 694 l 521 521 l 347 521 m 521 694 l 521 868 l 694 868 l 694 694 l 521 694 m 694 868 l 694 1042 l 0 1042 l 0 1215 l 868 1215 l 868 868 l 694 868 m 347 1389 l 347 1563 l 521 1563 l 521 1389 l 347 1389 m 174 1563 l 174 1736 l 347 1736 l 347 1563 l 174 1563 m 521 1563 l 521 1736 l 694 1736 l 694 1563 l 521 1563 z "},"ž":{"ha":1042,"x_min":0,"x_max":868,"o":"m 0 0 l 0 174 l 174 174 l 174 347 l 347 347 l 347 174 l 868 174 l 868 0 l 0 0 m 347 347 l 347 521 l 521 521 l 521 347 l 347 347 m 521 521 l 521 694 l 0 694 l 0 868 l 868 868 l 868 694 l 694 694 l 694 521 l 521 521 m 347 1042 l 347 1215 l 521 1215 l 521 1042 l 347 1042 m 174 1215 l 174 1389 l 347 1389 l 347 1215 l 174 1215 m 521 1215 l 521 1389 l 694 1389 l 694 1215 l 521 1215 z "},"ſ":{"ha":694,"x_min":0,"x_max":521,"o":"m 0 0 l 0 1042 l 174 1042 l 174 0 l 0 0 m 174 1042 l 174 1215 l 521 1215 l 521 1042 l 174 1042 z "},"ƀ":{"ha":1215,"x_min":0,"x_max":1042,"o":"m 868 174 l 868 521 l 521 521 l 521 694 l 1042 694 l 1042 174 l 868 174 m 174 0 l 174 868 l 0 868 l 0 1042 l 174 1042 l 174 1215 l 347 1215 l 347 1042 l 694 1042 l 694 868 l 347 868 l 347 521 l 521 521 l 521 347 l 347 347 l 347 174 l 868 174 l 868 0 l 174 0 z "},"Ɓ":{"ha":1389,"x_min":0,"x_max":1215,"o":"m 1042 174 l 1042 694 l 1215 694 l 1215 174 l 1042 174 m 0 868 l 0 1042 l 174 1042 l 174 868 l 0 868 m 1042 868 l 1042 1042 l 1215 1042 l 1215 868 l 1042 868 m 347 0 l 347 1042 l 174 1042 l 174 1215 l 1042 1215 l 1042 1042 l 521 1042 l 521 868 l 1042 868 l 1042 694 l 521 694 l 521 174 l 1042 174 l 1042 0 l 347 0 z "},"Ƃ":{"ha":1042,"x_min":0,"x_max":868,"o":"m 694 174 l 694 694 l 868 694 l 868 174 l 694 174 m 0 0 l 0 1215 l 868 1215 l 868 1042 l 174 1042 l 174 868 l 694 868 l 694 694 l 174 694 l 174 174 l 694 174 l 694 0 l 0 0 z "},"ƃ":{"ha":1042,"x_min":0,"x_max":868,"o":"m 694 174 l 694 694 l 868 694 l 868 174 l 694 174 m 347 694 l 347 868 l 694 868 l 694 694 l 347 694 m 0 0 l 0 1215 l 868 1215 l 868 1042 l 174 1042 l 174 694 l 347 694 l 347 521 l 174 521 l 174 174 l 694 174 l 694 0 l 0 0 z "},"Ƅ":{"ha":1215,"x_min":0,"x_max":1042,"o":"m 868 174 l 868 521 l 1042 521 l 1042 174 l 868 174 m 174 0 l 174 868 l 0 868 l 0 1042 l 174 1042 l 174 1215 l 347 1215 l 347 694 l 868 694 l 868 521 l 347 521 l 347 174 l 868 174 l 868 0 l 174 0 z "},"ƅ":{"ha":1215,"x_min":0,"x_max":1042,"o":"m 868 174 l 868 694 l 1042 694 l 1042 174 l 868 174 m 521 694 l 521 868 l 868 868 l 868 694 l 521 694 m 174 0 l 174 868 l 0 868 l 0 1042 l 174 1042 l 174 1215 l 347 1215 l 347 694 l 521 694 l 521 521 l 347 521 l 347 174 l 868 174 l 868 0 l 174 0 z "},"Ɔ":{"ha":1042,"x_min":0,"x_max":868,"o":"m 174 0 l 174 174 l 694 174 l 694 0 l 174 0 m 0 174 l 0 347 l 174 347 l 174 174 l 0 174 m 0 868 l 0 1042 l 174 1042 l 174 868 l 0 868 m 694 174 l 694 1042 l 868 1042 l 868 174 l 694 174 m 174 1042 l 174 1215 l 694 1215 l 694 1042 l 174 1042 z "},"Ƈ":{"ha":1215,"x_min":0,"x_max":1042,"o":"m 174 0 l 174 174 l 694 174 l 694 0 l 174 0 m 694 174 l 694 347 l 868 347 l 868 174 l 694 174 m 0 174 l 0 1042 l 174 1042 l 174 174 l 0 174 m 694 868 l 694 1042 l 868 1042 l 868 868 l 694 868 m 174 1042 l 174 1215 l 694 1215 l 694 1042 l 174 1042 m 694 1215 l 694 1389 l 868 1389 l 868 1215 l 694 1215 m 868 1389 l 868 1563 l 1042 1563 l 1042 1389 l 868 1389 z "},"ƈ":{"ha":1215,"x_min":0,"x_max":1042,"o":"m 174 0 l 174 174 l 694 174 l 694 0 l 174 0 m 694 174 l 694 347 l 868 347 l 868 174 l 694 174 m 0 174 l 0 694 l 174 694 l 174 174 l 0 174 m 694 521 l 694 694 l 868 694 l 868 521 l 694 521 m 174 694 l 174 868 l 694 868 l 694 694 l 174 694 m 694 868 l 694 1042 l 868 1042 l 868 868 l 694 868 m 868 1042 l 868 1215 l 1042 1215 l 1042 1042 l 868 1042 z "},"Ɖ":{"ha":1215,"x_min":0,"x_max":1042,"o":"m 868 174 l 868 1042 l 1042 1042 l 1042 174 l 868 174 m 174 0 l 174 694 l 0 694 l 0 868 l 174 868 l 174 1215 l 868 1215 l 868 1042 l 347 1042 l 347 868 l 521 868 l 521 694 l 347 694 l 347 174 l 868 174 l 868 0 l 174 0 z "},"Ɗ":{"ha":1389,"x_min":0,"x_max":1215,"o":"m 0 868 l 0 1042 l 174 1042 l 174 868 l 0 868 m 1042 174 l 1042 1042 l 1215 1042 l 1215 174 l 1042 174 m 347 0 l 347 1042 l 174 1042 l 174 1215 l 1042 1215 l 1042 1042 l 521 1042 l 521 174 l 1042 174 l 1042 0 l 347 0 z "},"Ƌ":{"ha":1042,"x_min":0,"x_max":868,"o":"m 0 174 l 0 694 l 174 694 l 174 174 l 0 174 m 174 0 l 174 174 l 694 174 l 694 694 l 174 694 l 174 868 l 694 868 l 694 1042 l 0 1042 l 0 1215 l 868 1215 l 868 0 l 174 0 z "},"ƌ":{"ha":1042,"x_min":0,"x_max":868,"o":"m 0 174 l 0 694 l 174 694 l 174 174 l 0 174 m 174 694 l 174 868 l 521 868 l 521 694 l 174 694 m 174 0 l 174 174 l 694 174 l 694 521 l 521 521 l 521 694 l 694 694 l 694 1042 l 0 1042 l 0 1215 l 868 1215 l 868 0 l 174 0 z "},"ƍ":{"ha":1042,"x_min":0,"x_max":868,"o":"m 174 -347 l 174 -174 l 521 -174 l 521 -347 l 174 -347 m 521 -174 l 521 0 l 694 0 l 694 -174 l 521 -174 m 347 0 l 347 174 l 521 174 l 521 0 l 347 0 m 174 174 l 174 347 l 347 347 l 347 174 l 174 174 m 521 174 l 521 347 l 694 347 l 694 174 l 521 174 m 0 347 l 0 694 l 174 694 l 174 347 l 0 347 m 694 347 l 694 694 l 868 694 l 868 347 l 694 347 m 174 694 l 174 868 l 694 868 l 694 694 l 174 694 z "},"Ǝ":{"ha":1042,"x_min":0,"x_max":868,"o":"m 0 0 l 0 174 l 694 174 l 694 347 l 174 347 l 174 521 l 694 521 l 694 1042 l 0 1042 l 0 1215 l 868 1215 l 868 0 l 0 0 z "},"Ə":{"ha":1042,"x_min":0,"x_max":868,"o":"m 174 0 l 174 174 l 694 174 l 694 0 l 174 0 m 0 868 l 0 1042 l 174 1042 l 174 868 l 0 868 m 0 174 l 0 694 l 694 694 l 694 1042 l 868 1042 l 868 174 l 694 174 l 694 521 l 174 521 l 174 174 l 0 174 m 174 1042 l 174 1215 l 694 1215 l 694 1042 l 174 1042 z "},"Ɛ":{"ha":1042,"x_min":0,"x_max":868,"o":"m 174 0 l 174 174 l 694 174 l 694 0 l 174 0 m 694 174 l 694 347 l 868 347 l 868 174 l 694 174 m 0 174 l 0 521 l 174 521 l 174 174 l 0 174 m 174 521 l 174 694 l 521 694 l 521 521 l 174 521 m 0 694 l 0 1042 l 174 1042 l 174 694 l 0 694 m 694 868 l 694 1042 l 868 1042 l 868 868 l 694 868 m 174 1042 l 174 1215 l 694 1215 l 694 1042 l 174 1042 z "},"Ƒ":{"ha":1215,"x_min":0,"x_max":1042,"o":"m 0 -174 l 0 0 l 174 0 l 174 -174 l 0 -174 m 174 0 l 174 1215 l 1042 1215 l 1042 1042 l 347 1042 l 347 868 l 694 868 l 694 694 l 347 694 l 347 0 l 174 0 z "},"ƒ":{"ha":1042,"x_min":0,"x_max":868,"o":"m 174 -174 l 174 0 l 347 0 l 347 -174 l 174 -174 m 0 0 l 0 174 l 174 174 l 174 0 l 0 0 m 347 0 l 347 521 l 174 521 l 174 694 l 347 694 l 347 1042 l 521 1042 l 521 694 l 694 694 l 694 521 l 521 521 l 521 0 l 347 0 m 694 868 l 694 1042 l 868 1042 l 868 868 l 694 868 m 521 1042 l 521 1215 l 694 1215 l 694 1042 l 521 1042 z "},"Ɠ":{"ha":1215,"x_min":0,"x_max":1042,"o":"m 174 0 l 174 174 l 694 174 l 694 0 l 174 0 m 694 174 l 694 694 l 347 694 l 347 868 l 868 868 l 868 174 l 694 174 m 0 174 l 0 1042 l 174 1042 l 174 174 l 0 174 m 174 1042 l 174 1215 l 694 1215 l 694 1389 l 868 1389 l 868 1042 l 174 1042 m 868 1389 l 868 1563 l 1042 1563 l 1042 1389 l 868 1389 z "},"Ɣ":{"ha":1042,"x_min":0,"x_max":868,"o":"m 347 -174 l 347 0 l 521 0 l 521 -174 l 347 -174 m 174 0 l 174 347 l 347 347 l 347 0 l 174 0 m 521 0 l 521 347 l 694 347 l 694 0 l 521 0 m 347 347 l 347 521 l 521 521 l 521 347 l 347 347 m 174 521 l 174 868 l 347 868 l 347 521 l 174 521 m 521 521 l 521 868 l 694 868 l 694 521 l 521 521 m 0 868 l 0 1215 l 174 1215 l 174 868 l 0 868 m 694 868 l 694 1215 l 868 1215 l 868 868 l 694 868 z "},"ƕ":{"ha":1563,"x_min":0,"x_max":1389,"o":"m 868 0 l 868 174 l 1215 174 l 1215 0 l 868 0 m 694 174 l 694 694 l 868 694 l 868 174 l 694 174 m 347 694 l 347 868 l 694 868 l 694 694 l 347 694 m 1215 174 l 1215 868 l 1389 868 l 1389 174 l 1215 174 m 0 0 l 0 1215 l 174 1215 l 174 694 l 347 694 l 347 521 l 174 521 l 174 0 l 0 0 z "},"Ɩ":{"ha":694,"x_min":0,"x_max":521,"o":"m 347 0 l 347 174 l 521 174 l 521 0 l 347 0 m 174 174 l 174 1042 l 0 1042 l 0 1215 l 521 1215 l 521 1042 l 347 1042 l 347 174 l 174 174 z "},"Ɨ":{"ha":694,"x_min":0,"x_max":521,"o":"m 0 0 l 0 174 l 174 174 l 174 521 l 0 521 l 0 694 l 174 694 l 174 1042 l 0 1042 l 0 1215 l 521 1215 l 521 1042 l 347 1042 l 347 694 l 521 694 l 521 521 l 347 521 l 347 174 l 521 174 l 521 0 l 0 0 z "},"Ƙ":{"ha":1042,"x_min":0,"x_max":868,"o":"m 694 0 l 694 521 l 868 521 l 868 0 l 694 0 m 521 521 l 521 694 l 694 694 l 694 521 l 521 521 m 0 0 l 0 1042 l 174 1042 l 174 868 l 521 868 l 521 694 l 174 694 l 174 0 l 0 0 m 521 868 l 521 1042 l 694 1042 l 694 868 l 521 868 m 174 1042 l 174 1215 l 347 1215 l 347 1042 l 174 1042 m 694 1042 l 694 1215 l 868 1215 l 868 1042 l 694 1042 z "},"ƙ":{"ha":868,"x_min":0,"x_max":694,"o":"m 521 0 l 521 174 l 694 174 l 694 0 l 521 0 m 347 174 l 347 347 l 521 347 l 521 174 l 347 174 m 347 521 l 347 694 l 521 694 l 521 521 l 347 521 m 521 694 l 521 868 l 694 868 l 694 694 l 521 694 m 0 0 l 0 1042 l 174 1042 l 174 521 l 347 521 l 347 347 l 174 347 l 174 0 l 0 0 m 174 1042 l 174 1215 l 347 1215 l 347 1042 l 174 1042 z "},"ƚ":{"ha":694,"x_min":0,"x_max":521,"o":"m 347 0 l 347 174 l 521 174 l 521 0 l 347 0 m 174 174 l 174 521 l 0 521 l 0 694 l 174 694 l 174 1215 l 347 1215 l 347 694 l 521 694 l 521 521 l 347 521 l 347 174 l 174 174 z "},"ƛ":{"ha":1042,"x_min":0,"x_max":868,"o":"m 0 0 l 0 347 l 174 347 l 174 0 l 0 0 m 694 0 l 694 347 l 868 347 l 868 0 l 694 0 m 174 347 l 174 521 l 347 521 l 347 347 l 174 347 m 521 347 l 521 521 l 694 521 l 694 347 l 521 347 m 347 521 l 347 694 l 174 694 l 174 868 l 347 868 l 347 1042 l 521 1042 l 521 868 l 694 868 l 694 694 l 521 694 l 521 521 l 347 521 m 0 1042 l 0 1215 l 347 1215 l 347 1042 l 0 1042 z "},"Ɯ":{"ha":1042,"x_min":0,"x_max":868,"o":"m 174 0 l 174 174 l 347 174 l 347 0 l 174 0 m 347 174 l 347 868 l 521 868 l 521 174 l 347 174 m 0 174 l 0 1215 l 174 1215 l 174 174 l 0 174 m 521 0 l 521 174 l 694 174 l 694 1215 l 868 1215 l 868 0 l 521 0 z "},"Ɲ":{"ha":1215,"x_min":0,"x_max":1042,"o":"m 0 -174 l 0 0 l 174 0 l 174 -174 l 0 -174 m 521 694 l 521 868 l 694 868 l 694 694 l 521 694 m 174 0 l 174 1215 l 347 1215 l 347 1042 l 521 1042 l 521 868 l 347 868 l 347 0 l 174 0 m 868 0 l 868 521 l 694 521 l 694 694 l 868 694 l 868 1215 l 1042 1215 l 1042 0 l 868 0 z "},"ƞ":{"ha":1042,"x_min":0,"x_max":868,"o":"m 694 -174 l 694 694 l 868 694 l 868 -174 l 694 -174 m 0 0 l 0 868 l 694 868 l 694 694 l 174 694 l 174 0 l 0 0 z "},"Ɵ":{"ha":1042,"x_min":0,"x_max":868,"o":"m 174 0 l 174 174 l 694 174 l 694 0 l 174 0 m 0 174 l 0 1042 l 174 1042 l 174 694 l 694 694 l 694 1042 l 868 1042 l 868 174 l 694 174 l 694 521 l 174 521 l 174 174 l 0 174 m 174 1042 l 174 1215 l 694 1215 l 694 1042 l 174 1042 z "},"Ơ":{"ha":1389,"x_min":0,"x_max":1215,"o":"m 174 0 l 174 174 l 694 174 l 694 0 l 174 0 m 0 174 l 0 1042 l 174 1042 l 174 174 l 0 174 m 694 174 l 694 1042 l 868 1042 l 868 868 l 1042 868 l 1042 694 l 868 694 l 868 174 l 694 174 m 174 1042 l 174 1215 l 694 1215 l 694 1042 l 174 1042 m 1042 868 l 1042 1215 l 1215 1215 l 1215 868 l 1042 868 z "},"ơ":{"ha":1389,"x_min":0,"x_max":1215,"o":"m 174 0 l 174 174 l 694 174 l 694 0 l 174 0 m 0 174 l 0 694 l 174 694 l 174 174 l 0 174 m 694 174 l 694 694 l 868 694 l 868 521 l 1042 521 l 1042 347 l 868 347 l 868 174 l 694 174 m 174 694 l 174 868 l 694 868 l 694 694 l 174 694 m 1042 521 l 1042 868 l 1215 868 l 1215 521 l 1042 521 z "},"Ƣ":{"ha":1389,"x_min":0,"x_max":1215,"o":"m 174 0 l 174 174 l 694 174 l 694 0 l 174 0 m 0 174 l 0 1042 l 174 1042 l 174 174 l 0 174 m 1042 -174 l 1042 1042 l 868 1042 l 868 174 l 694 174 l 694 1042 l 174 1042 l 174 1215 l 1215 1215 l 1215 -174 l 1042 -174 z "},"ƣ":{"ha":1389,"x_min":0,"x_max":1215,"o":"m 174 0 l 174 174 l 694 174 l 694 0 l 174 0 m 0 174 l 0 694 l 174 694 l 174 174 l 0 174 m 1042 -174 l 1042 694 l 868 694 l 868 174 l 694 174 l 694 694 l 174 694 l 174 868 l 1215 868 l 1215 -174 l 1042 -174 z "},"Ƥ":{"ha":1389,"x_min":0,"x_max":1215,"o":"m 0 868 l 0 1042 l 174 1042 l 174 868 l 0 868 m 1042 868 l 1042 1042 l 1215 1042 l 1215 868 l 1042 868 m 347 0 l 347 1042 l 174 1042 l 174 1215 l 1042 1215 l 1042 1042 l 521 1042 l 521 868 l 1042 868 l 1042 694 l 521 694 l 521 0 l 347 0 z "},"ƥ":{"ha":1042,"x_min":0,"x_max":868,"o":"m 694 347 l 694 694 l 868 694 l 868 347 l 694 347 m 347 694 l 347 868 l 694 868 l 694 694 l 347 694 m 0 -174 l 0 1042 l 174 1042 l 174 694 l 347 694 l 347 521 l 174 521 l 174 347 l 694 347 l 694 174 l 174 174 l 174 -174 l 0 -174 m 174 1042 l 174 1215 l 347 1215 l 347 1042 l 174 1042 z "},"Ʀ":{"ha":1042,"x_min":0,"x_max":868,"o":"m 694 -174 l 694 521 l 868 521 l 868 -174 l 694 -174 m 694 694 l 694 868 l 868 868 l 868 694 l 694 694 m 0 0 l 0 1215 l 174 1215 l 174 1042 l 694 1042 l 694 868 l 174 868 l 174 694 l 694 694 l 694 521 l 174 521 l 174 0 l 0 0 z "},"Ƨ":{"ha":1042,"x_min":0,"x_max":868,"o":"m 174 0 l 174 174 l 694 174 l 694 0 l 174 0 m 694 174 l 694 347 l 868 347 l 868 174 l 694 174 m 0 174 l 0 694 l 174 694 l 174 174 l 0 174 m 174 694 l 174 868 l 694 868 l 694 694 l 174 694 m 694 868 l 694 1042 l 868 1042 l 868 868 l 694 868 m 0 1042 l 0 1215 l 694 1215 l 694 1042 l 0 1042 z "},"ƨ":{"ha":1042,"x_min":0,"x_max":868,"o":"m 174 0 l 174 174 l 868 174 l 868 0 l 174 0 m 0 174 l 0 347 l 174 347 l 174 174 l 0 174 m 174 347 l 174 521 l 694 521 l 694 347 l 174 347 m 694 521 l 694 694 l 868 694 l 868 521 l 694 521 m 0 694 l 0 868 l 694 868 l 694 694 l 0 694 z "},"Ʃ":{"ha":1042,"x_min":0,"x_max":868,"o":"m 0 0 l 0 347 l 174 347 l 174 174 l 868 174 l 868 0 l 0 0 m 174 347 l 174 521 l 347 521 l 347 347 l 174 347 m 347 521 l 347 694 l 521 694 l 521 521 l 347 521 m 174 694 l 174 868 l 347 868 l 347 694 l 174 694 m 0 868 l 0 1215 l 868 1215 l 868 1042 l 174 1042 l 174 868 l 0 868 z "},"ƪ":{"ha":1042,"x_min":0,"x_max":868,"o":"m 521 -174 l 521 0 l 868 0 l 868 -174 l 521 -174 m 0 868 l 0 1042 l 174 1042 l 174 868 l 0 868 m 347 0 l 347 694 l 174 694 l 174 868 l 347 868 l 347 1042 l 521 1042 l 521 0 l 347 0 m 174 1042 l 174 1215 l 347 1215 l 347 1042 l 174 1042 z "},"ƫ":{"ha":694,"x_min":0,"x_max":521,"o":"m 174 -347 l 174 -174 l 347 -174 l 347 -347 l 174 -347 m 347 -174 l 347 0 l 521 0 l 521 -174 l 347 -174 m 174 0 l 174 694 l 0 694 l 0 868 l 174 868 l 174 1215 l 347 1215 l 347 868 l 521 868 l 521 694 l 347 694 l 347 0 l 174 0 z "},"Ƭ":{"ha":1215,"x_min":0,"x_max":1042,"o":"m 0 868 l 0 1042 l 174 1042 l 174 868 l 0 868 m 521 0 l 521 1042 l 174 1042 l 174 1215 l 1042 1215 l 1042 1042 l 694 1042 l 694 0 l 521 0 z "},"ƭ":{"ha":694,"x_min":0,"x_max":521,"o":"m 347 0 l 347 174 l 521 174 l 521 0 l 347 0 m 174 174 l 174 694 l 0 694 l 0 868 l 174 868 l 174 1042 l 347 1042 l 347 868 l 521 868 l 521 694 l 347 694 l 347 174 l 174 174 m 347 1042 l 347 1215 l 521 1215 l 521 1042 l 347 1042 z "},"Ʈ":{"ha":1042,"x_min":0,"x_max":868,"o":"m 521 -174 l 521 0 l 694 0 l 694 -174 l 521 -174 m 347 0 l 347 1042 l 0 1042 l 0 1215 l 868 1215 l 868 1042 l 521 1042 l 521 0 l 347 0 z "},"Ư":{"ha":1389,"x_min":0,"x_max":1215,"o":"m 174 0 l 174 174 l 694 174 l 694 0 l 174 0 m 0 174 l 0 1215 l 174 1215 l 174 174 l 0 174 m 694 174 l 694 1215 l 868 1215 l 868 868 l 1042 868 l 1042 694 l 868 694 l 868 174 l 694 174 m 1042 868 l 1042 1215 l 1215 1215 l 1215 868 l 1042 868 z "},"ư":{"ha":1389,"x_min":0,"x_max":1215,"o":"m 0 174 l 0 868 l 174 868 l 174 174 l 0 174 m 174 0 l 174 174 l 694 174 l 694 868 l 868 868 l 868 521 l 1042 521 l 1042 347 l 868 347 l 868 0 l 174 0 m 1042 521 l 1042 868 l 1215 868 l 1215 521 l 1042 521 z "},"Ʊ":{"ha":1042,"x_min":0,"x_max":868,"o":"m 174 0 l 174 174 l 694 174 l 694 0 l 174 0 m 0 174 l 0 868 l 174 868 l 174 174 l 0 174 m 694 174 l 694 868 l 868 868 l 868 174 l 694 174 m 174 868 l 174 1042 l 0 1042 l 0 1215 l 347 1215 l 347 868 l 174 868 m 521 868 l 521 1215 l 868 1215 l 868 1042 l 694 1042 l 694 868 l 521 868 z "},"Ʋ":{"ha":1042,"x_min":0,"x_max":868,"o":"m 521 174 l 521 347 l 694 347 l 694 174 l 521 174 m 694 347 l 694 1042 l 868 1042 l 868 347 l 694 347 m 0 0 l 0 1215 l 174 1215 l 174 174 l 521 174 l 521 0 l 0 0 m 521 1042 l 521 1215 l 694 1215 l 694 1042 l 521 1042 z "},"Ƴ":{"ha":1215,"x_min":0,"x_max":1042,"o":"m 347 0 l 347 868 l 521 868 l 521 0 l 347 0 m 174 868 l 174 1042 l 347 1042 l 347 868 l 174 868 m 521 868 l 521 1042 l 694 1042 l 694 868 l 521 868 m 868 868 l 868 1042 l 1042 1042 l 1042 868 l 868 868 m 0 1042 l 0 1215 l 174 1215 l 174 1042 l 0 1042 m 694 1042 l 694 1215 l 868 1215 l 868 1042 l 694 1042 z "},"ƴ":{"ha":1389,"x_min":0,"x_max":1215,"o":"m 0 -174 l 0 0 l 694 0 l 694 -174 l 0 -174 m 0 347 l 0 868 l 174 868 l 174 347 l 0 347 m 1042 868 l 1042 1042 l 1215 1042 l 1215 868 l 1042 868 m 694 0 l 694 174 l 174 174 l 174 347 l 694 347 l 694 1215 l 1042 1215 l 1042 1042 l 868 1042 l 868 0 l 694 0 z "},"Ƶ":{"ha":1042,"x_min":0,"x_max":868,"o":"m 0 0 l 0 347 l 174 347 l 174 174 l 868 174 l 868 0 l 0 0 m 174 347 l 174 521 l 0 521 l 0 694 l 521 694 l 521 868 l 694 868 l 694 694 l 868 694 l 868 521 l 347 521 l 347 347 l 174 347 m 694 868 l 694 1042 l 0 1042 l 0 1215 l 868 1215 l 868 868 l 694 868 z "},"ƶ":{"ha":1042,"x_min":0,"x_max":868,"o":"m 0 0 l 0 174 l 174 174 l 174 347 l 0 347 l 0 521 l 521 521 l 521 694 l 0 694 l 0 868 l 868 868 l 868 694 l 694 694 l 694 521 l 868 521 l 868 347 l 347 347 l 347 174 l 868 174 l 868 0 l 0 0 z "},"Ʒ":{"ha":1042,"x_min":0,"x_max":868,"o":"m 174 -174 l 174 0 l 694 0 l 694 -174 l 174 -174 m 0 0 l 0 174 l 174 174 l 174 0 l 0 0 m 694 0 l 694 694 l 868 694 l 868 0 l 694 0 m 347 694 l 347 868 l 694 868 l 694 694 l 347 694 m 694 868 l 694 1042 l 0 1042 l 0 1215 l 868 1215 l 868 868 l 694 868 z "},"Ƹ":{"ha":1042,"x_min":0,"x_max":868,"o":"m 174 -174 l 174 0 l 694 0 l 694 -174 l 174 -174 m 694 0 l 694 174 l 868 174 l 868 0 l 694 0 m 0 0 l 0 694 l 174 694 l 174 0 l 0 0 m 174 694 l 174 868 l 521 868 l 521 694 l 174 694 m 0 868 l 0 1215 l 868 1215 l 868 1042 l 174 1042 l 174 868 l 0 868 z "},"ƹ":{"ha":1042,"x_min":0,"x_max":868,"o":"m 174 -174 l 174 0 l 694 0 l 694 -174 l 174 -174 m 694 0 l 694 174 l 868 174 l 868 0 l 694 0 m 0 0 l 0 347 l 174 347 l 174 0 l 0 0 m 174 347 l 174 521 l 521 521 l 521 347 l 174 347 m 0 521 l 0 868 l 868 868 l 868 694 l 174 694 l 174 521 l 0 521 z "},"ƺ":{"ha":1042,"x_min":0,"x_max":868,"o":"m 174 -347 l 174 -174 l 868 -174 l 868 -347 l 174 -347 m 0 -174 l 0 0 l 174 0 l 174 -174 l 0 -174 m 174 0 l 174 174 l 694 174 l 694 0 l 174 0 m 694 174 l 694 347 l 868 347 l 868 174 l 694 174 m 347 347 l 347 521 l 694 521 l 694 347 l 347 347 m 694 521 l 694 694 l 0 694 l 0 868 l 868 868 l 868 521 l 694 521 z "},"ƻ":{"ha":1042,"x_min":0,"x_max":868,"o":"m 0 0 l 0 347 l 174 347 l 174 174 l 694 174 l 694 347 l 868 347 l 868 0 l 0 0 m 174 347 l 174 521 l 0 521 l 0 694 l 521 694 l 521 868 l 694 868 l 694 694 l 868 694 l 868 521 l 347 521 l 347 347 l 174 347 m 0 868 l 0 1042 l 174 1042 l 174 868 l 0 868 m 694 868 l 694 1042 l 868 1042 l 868 868 l 694 868 m 174 1042 l 174 1215 l 694 1215 l 694 1042 l 174 1042 z "},"Ƽ":{"ha":1042,"x_min":0,"x_max":868,"o":"m 174 0 l 174 174 l 694 174 l 694 0 l 174 0 m 0 174 l 0 347 l 174 347 l 174 174 l 0 174 m 694 174 l 694 694 l 868 694 l 868 174 l 694 174 m 174 694 l 174 1042 l 0 1042 l 0 1215 l 868 1215 l 868 1042 l 347 1042 l 347 868 l 694 868 l 694 694 l 174 694 z "},"ƽ":{"ha":1042,"x_min":0,"x_max":868,"o":"m 0 0 l 0 174 l 694 174 l 694 0 l 0 0 m 694 174 l 694 347 l 868 347 l 868 174 l 694 174 m 174 347 l 174 694 l 0 694 l 0 868 l 868 868 l 868 694 l 347 694 l 347 521 l 694 521 l 694 347 l 174 347 z "},"ƾ":{"ha":1042,"x_min":0,"x_max":868,"o":"m 0 0 l 0 174 l 694 174 l 694 0 l 0 0 m 694 174 l 694 347 l 868 347 l 868 174 l 694 174 m 347 347 l 347 521 l 694 521 l 694 347 l 347 347 m 174 521 l 174 694 l 0 694 l 0 868 l 174 868 l 174 1215 l 347 1215 l 347 868 l 521 868 l 521 694 l 347 694 l 347 521 l 174 521 z "},"ƿ":{"ha":1042,"x_min":0,"x_max":868,"o":"m 521 174 l 521 347 l 694 347 l 694 174 l 521 174 m 694 347 l 694 694 l 868 694 l 868 347 l 694 347 m 0 -174 l 0 868 l 174 868 l 174 694 l 347 694 l 347 521 l 174 521 l 174 174 l 521 174 l 521 0 l 174 0 l 174 -174 l 0 -174 m 347 694 l 347 868 l 694 868 l 694 694 l 347 694 z "},"ǀ":{"ha":347,"x_min":0,"x_max":174,"o":"m 0 0 l 0 1215 l 174 1215 l 174 0 l 0 0 z "},"ǁ":{"ha":694,"x_min":0,"x_max":521,"o":"m 0 0 l 0 1215 l 174 1215 l 174 0 l 0 0 m 347 0 l 347 1215 l 521 1215 l 521 0 l 347 0 z "},"ǂ":{"ha":1042,"x_min":0,"x_max":868,"o":"m 347 0 l 347 347 l 0 347 l 0 521 l 347 521 l 347 694 l 0 694 l 0 868 l 347 868 l 347 1215 l 521 1215 l 521 868 l 868 868 l 868 694 l 521 694 l 521 521 l 868 521 l 868 347 l 521 347 l 521 0 l 347 0 z "},"ǃ":{"ha":347,"x_min":0,"x_max":174,"o":"m 0 0 l 0 174 l 174 174 l 174 0 l 0 0 m 0 347 l 0 1215 l 174 1215 l 174 347 l 0 347 z "},"Ǆ":{"ha":1736,"x_min":0,"x_max":1563,"o":"m 868 0 l 868 347 l 1042 347 l 1042 174 l 1563 174 l 1563 0 l 868 0 m 1042 347 l 1042 694 l 1215 694 l 1215 347 l 1042 347 m 1215 694 l 1215 868 l 1389 868 l 1389 694 l 1215 694 m 521 174 l 521 1042 l 694 1042 l 694 174 l 521 174 m 0 0 l 0 1215 l 521 1215 l 521 1042 l 174 1042 l 174 174 l 521 174 l 521 0 l 0 0 m 1389 868 l 1389 1042 l 868 1042 l 868 1215 l 1563 1215 l 1563 868 l 1389 868 m 1215 1389 l 1215 1563 l 1389 1563 l 1389 1389 l 1215 1389 m 1042 1563 l 1042 1736 l 1215 1736 l 1215 1563 l 1042 1563 m 1389 1563 l 1389 1736 l 1563 1736 l 1563 1563 l 1389 1563 z "},"ǅ":{"ha":1736,"x_min":0,"x_max":1563,"o":"m 868 0 l 868 347 l 1042 347 l 1042 174 l 1563 174 l 1563 0 l 868 0 m 1042 347 l 1042 521 l 1389 521 l 1389 347 l 1042 347 m 1389 521 l 1389 694 l 868 694 l 868 868 l 1563 868 l 1563 521 l 1389 521 m 521 174 l 521 1042 l 694 1042 l 694 174 l 521 174 m 0 0 l 0 1215 l 521 1215 l 521 1042 l 174 1042 l 174 174 l 521 174 l 521 0 l 0 0 m 1215 1042 l 1215 1215 l 1389 1215 l 1389 1042 l 1215 1042 m 1042 1215 l 1042 1389 l 1215 1389 l 1215 1215 l 1042 1215 m 1389 1215 l 1389 1389 l 1563 1389 l 1563 1215 l 1389 1215 z "},"ǆ":{"ha":1736,"x_min":0,"x_max":1563,"o":"m 868 0 l 868 347 l 1042 347 l 1042 174 l 1563 174 l 1563 0 l 868 0 m 1042 347 l 1042 521 l 1389 521 l 1389 347 l 1042 347 m 0 174 l 0 694 l 174 694 l 174 174 l 0 174 m 174 694 l 174 868 l 347 868 l 347 694 l 174 694 m 1389 521 l 1389 694 l 868 694 l 868 868 l 1563 868 l 1563 521 l 1389 521 m 174 0 l 174 174 l 521 174 l 521 521 l 347 521 l 347 694 l 521 694 l 521 1215 l 694 1215 l 694 0 l 174 0 m 1215 1042 l 1215 1215 l 1389 1215 l 1389 1042 l 1215 1042 m 1042 1215 l 1042 1389 l 1215 1389 l 1215 1215 l 1042 1215 m 1389 1215 l 1389 1389 l 1563 1389 l 1563 1215 l 1389 1215 z "},"Ǉ":{"ha":1736,"x_min":0,"x_max":1563,"o":"m 1042 0 l 1042 174 l 1389 174 l 1389 0 l 1042 0 m 868 174 l 868 347 l 1042 347 l 1042 174 l 868 174 m 0 0 l 0 1215 l 174 1215 l 174 174 l 694 174 l 694 0 l 0 0 m 1389 174 l 1389 1215 l 1563 1215 l 1563 174 l 1389 174 z "},"ǈ":{"ha":1736,"x_min":0,"x_max":1563,"o":"m 1042 -174 l 1042 0 l 1389 0 l 1389 -174 l 1042 -174 m 868 0 l 868 347 l 1042 347 l 1042 0 l 868 0 m 1389 0 l 1389 868 l 1563 868 l 1563 0 l 1389 0 m 0 0 l 0 1215 l 174 1215 l 174 174 l 694 174 l 694 0 l 0 0 m 1389 1042 l 1389 1215 l 1563 1215 l 1563 1042 l 1389 1042 z "},"ǉ":{"ha":1389,"x_min":0,"x_max":1215,"o":"m 694 -174 l 694 0 l 1042 0 l 1042 -174 l 694 -174 m 174 0 l 174 174 l 347 174 l 347 0 l 174 0 m 521 0 l 521 347 l 694 347 l 694 0 l 521 0 m 1042 0 l 1042 868 l 1215 868 l 1215 0 l 1042 0 m 0 174 l 0 1215 l 174 1215 l 174 174 l 0 174 m 1042 1042 l 1042 1215 l 1215 1215 l 1215 1042 l 1042 1042 z "},"Ǌ":{"ha":1736,"x_min":0,"x_max":1563,"o":"m 1042 0 l 1042 174 l 1389 174 l 1389 0 l 1042 0 m 868 174 l 868 347 l 1042 347 l 1042 174 l 868 174 m 0 0 l 0 1215 l 174 1215 l 174 1042 l 347 1042 l 347 694 l 174 694 l 174 0 l 0 0 m 521 0 l 521 347 l 347 347 l 347 694 l 521 694 l 521 1215 l 694 1215 l 694 0 l 521 0 m 1389 174 l 1389 1215 l 1563 1215 l 1563 174 l 1389 174 z "},"ǋ":{"ha":1736,"x_min":0,"x_max":1563,"o":"m 1042 -174 l 1042 0 l 1389 0 l 1389 -174 l 1042 -174 m 868 0 l 868 347 l 1042 347 l 1042 0 l 868 0 m 1389 0 l 1389 868 l 1563 868 l 1563 0 l 1389 0 m 0 0 l 0 1215 l 174 1215 l 174 1042 l 347 1042 l 347 694 l 174 694 l 174 0 l 0 0 m 521 0 l 521 347 l 347 347 l 347 694 l 521 694 l 521 1215 l 694 1215 l 694 0 l 521 0 m 1389 1042 l 1389 1215 l 1563 1215 l 1563 1042 l 1389 1042 z "},"ǌ":{"ha":1736,"x_min":0,"x_max":1563,"o":"m 1042 -174 l 1042 0 l 1389 0 l 1389 -174 l 1042 -174 m 868 0 l 868 347 l 1042 347 l 1042 0 l 868 0 m 521 0 l 521 694 l 694 694 l 694 0 l 521 0 m 0 0 l 0 868 l 521 868 l 521 694 l 174 694 l 174 0 l 0 0 m 1389 0 l 1389 868 l 1563 868 l 1563 0 l 1389 0 m 1389 1042 l 1389 1215 l 1563 1215 l 1563 1042 l 1389 1042 z "},"Ǎ":{"ha":1042,"x_min":0,"x_max":868,"o":"m 0 0 l 0 1042 l 174 1042 l 174 868 l 694 868 l 694 1042 l 868 1042 l 868 0 l 694 0 l 694 694 l 174 694 l 174 0 l 0 0 m 174 1042 l 174 1215 l 694 1215 l 694 1042 l 174 1042 m 347 1389 l 347 1563 l 521 1563 l 521 1389 l 347 1389 m 174 1563 l 174 1736 l 347 1736 l 347 1563 l 174 1563 m 521 1563 l 521 1736 l 694 1736 l 694 1563 l 521 1563 z "},"ǎ":{"ha":1042,"x_min":0,"x_max":868,"o":"m 0 174 l 0 347 l 174 347 l 174 174 l 0 174 m 174 0 l 174 174 l 694 174 l 694 347 l 174 347 l 174 521 l 694 521 l 694 694 l 868 694 l 868 0 l 174 0 m 174 694 l 174 868 l 694 868 l 694 694 l 174 694 m 347 1042 l 347 1215 l 521 1215 l 521 1042 l 347 1042 m 174 1215 l 174 1389 l 347 1389 l 347 1215 l 174 1215 m 521 1215 l 521 1389 l 694 1389 l 694 1215 l 521 1215 z "},"Ǐ":{"ha":694,"x_min":0,"x_max":521,"o":"m 0 0 l 0 174 l 174 174 l 174 1042 l 0 1042 l 0 1215 l 521 1215 l 521 1042 l 347 1042 l 347 174 l 521 174 l 521 0 l 0 0 m 174 1389 l 174 1563 l 347 1563 l 347 1389 l 174 1389 m 0 1563 l 0 1736 l 174 1736 l 174 1563 l 0 1563 m 347 1563 l 347 1736 l 521 1736 l 521 1563 l 347 1563 z "},"ǐ":{"ha":694,"x_min":0,"x_max":521,"o":"m 174 0 l 174 868 l 347 868 l 347 0 l 174 0 m 174 1042 l 174 1215 l 347 1215 l 347 1042 l 174 1042 m 0 1215 l 0 1389 l 174 1389 l 174 1215 l 0 1215 m 347 1215 l 347 1389 l 521 1389 l 521 1215 l 347 1215 z "},"Ǒ":{"ha":1042,"x_min":0,"x_max":868,"o":"m 174 0 l 174 174 l 694 174 l 694 0 l 174 0 m 0 174 l 0 1042 l 174 1042 l 174 174 l 0 174 m 694 174 l 694 1042 l 868 1042 l 868 174 l 694 174 m 174 1042 l 174 1215 l 694 1215 l 694 1042 l 174 1042 m 347 1389 l 347 1563 l 521 1563 l 521 1389 l 347 1389 m 174 1563 l 174 1736 l 347 1736 l 347 1563 l 174 1563 m 521 1563 l 521 1736 l 694 1736 l 694 1563 l 521 1563 z "},"ǒ":{"ha":1042,"x_min":0,"x_max":868,"o":"m 174 0 l 174 174 l 694 174 l 694 0 l 174 0 m 0 174 l 0 1042 l 174 1042 l 174 174 l 0 174 m 694 174 l 694 1042 l 868 1042 l 868 174 l 694 174 m 174 1042 l 174 1215 l 694 1215 l 694 1042 l 174 1042 m 347 1389 l 347 1563 l 521 1563 l 521 1389 l 347 1389 m 174 1563 l 174 1736 l 347 1736 l 347 1563 l 174 1563 m 521 1563 l 521 1736 l 694 1736 l 694 1563 l 521 1563 z "},"Ǔ":{"ha":1042,"x_min":0,"x_max":868,"o":"m 174 0 l 174 174 l 694 174 l 694 0 l 174 0 m 0 174 l 0 1215 l 174 1215 l 174 174 l 0 174 m 694 174 l 694 1215 l 868 1215 l 868 174 l 694 174 m 347 1389 l 347 1563 l 521 1563 l 521 1389 l 347 1389 m 174 1563 l 174 1736 l 347 1736 l 347 1563 l 174 1563 m 521 1563 l 521 1736 l 694 1736 l 694 1563 l 521 1563 z "},"ǔ":{"ha":1042,"x_min":0,"x_max":868,"o":"m 0 174 l 0 868 l 174 868 l 174 174 l 0 174 m 174 0 l 174 174 l 694 174 l 694 868 l 868 868 l 868 0 l 174 0 m 347 1042 l 347 1215 l 521 1215 l 521 1042 l 347 1042 m 174 1215 l 174 1389 l 347 1389 l 347 1215 l 174 1215 m 521 1215 l 521 1389 l 694 1389 l 694 1215 l 521 1215 z "},"ǝ":{"ha":1042,"x_min":0,"x_max":868,"o":"m 174 0 l 174 174 l 694 174 l 694 0 l 174 0 m 0 174 l 0 521 l 694 521 l 694 694 l 868 694 l 868 174 l 694 174 l 694 347 l 174 347 l 174 174 l 0 174 m 0 694 l 0 868 l 694 868 l 694 694 l 0 694 z "},"Ǣ":{"ha":1736,"x_min":0,"x_max":1563,"o":"m 0 0 l 0 1042 l 174 1042 l 174 868 l 694 868 l 694 1042 l 174 1042 l 174 1215 l 1563 1215 l 1563 1042 l 868 1042 l 868 868 l 1215 868 l 1215 694 l 868 694 l 868 174 l 1563 174 l 1563 0 l 694 0 l 694 694 l 174 694 l 174 0 l 0 0 m 521 1389 l 521 1563 l 1042 1563 l 1042 1389 l 521 1389 z "},"ǣ":{"ha":1736,"x_min":0,"x_max":1563,"o":"m 174 0 l 174 174 l 694 174 l 694 0 l 174 0 m 868 0 l 868 174 l 1389 174 l 1389 0 l 868 0 m 0 174 l 0 347 l 174 347 l 174 174 l 0 174 m 694 174 l 694 347 l 174 347 l 174 521 l 694 521 l 694 694 l 868 694 l 868 521 l 1389 521 l 1389 694 l 1563 694 l 1563 347 l 868 347 l 868 174 l 694 174 m 174 694 l 174 868 l 694 868 l 694 694 l 174 694 m 868 694 l 868 868 l 1389 868 l 1389 694 l 868 694 m 521 1042 l 521 1215 l 1042 1215 l 1042 1042 l 521 1042 z "},"Ǵ":{"ha":1042,"x_min":0,"x_max":868,"o":"m 174 0 l 174 174 l 694 174 l 694 0 l 174 0 m 694 174 l 694 694 l 347 694 l 347 868 l 868 868 l 868 174 l 694 174 m 0 174 l 0 1042 l 174 1042 l 174 174 l 0 174 m 174 1042 l 174 1215 l 868 1215 l 868 1042 l 174 1042 m 347 1389 l 347 1563 l 521 1563 l 521 1389 l 347 1389 m 521 1563 l 521 1736 l 694 1736 l 694 1563 l 521 1563 z "},"ǵ":{"ha":1042,"x_min":0,"x_max":868,"o":"m 0 -174 l 0 0 l 694 0 l 694 -174 l 0 -174 m 0 347 l 0 694 l 174 694 l 174 347 l 0 347 m 694 0 l 694 174 l 174 174 l 174 347 l 694 347 l 694 694 l 174 694 l 174 868 l 868 868 l 868 0 l 694 0 z "},"Ƿ":{"ha":1042,"x_min":0,"x_max":868,"o":"m 347 347 l 347 521 l 521 521 l 521 347 l 347 347 m 521 521 l 521 694 l 694 694 l 694 521 l 521 521 m 694 694 l 694 1042 l 868 1042 l 868 694 l 694 694 m 0 -174 l 0 1215 l 174 1215 l 174 1042 l 347 1042 l 347 868 l 174 868 l 174 347 l 347 347 l 347 174 l 174 174 l 174 -174 l 0 -174 m 347 1042 l 347 1215 l 694 1215 l 694 1042 l 347 1042 z "},"Ǹ":{"ha":1042,"x_min":0,"x_max":868,"o":"m 347 694 l 347 868 l 521 868 l 521 694 l 347 694 m 0 0 l 0 1215 l 174 1215 l 174 1042 l 347 1042 l 347 868 l 174 868 l 174 0 l 0 0 m 694 0 l 694 521 l 521 521 l 521 694 l 694 694 l 694 1215 l 868 1215 l 868 0 l 694 0 m 347 1389 l 347 1563 l 521 1563 l 521 1389 l 347 1389 m 174 1563 l 174 1736 l 347 1736 l 347 1563 l 174 1563 z "},"ǹ":{"ha":1042,"x_min":0,"x_max":868,"o":"m 694 0 l 694 694 l 868 694 l 868 0 l 694 0 m 0 0 l 0 868 l 694 868 l 694 694 l 174 694 l 174 0 l 0 0 m 347 1042 l 347 1215 l 521 1215 l 521 1042 l 347 1042 m 174 1215 l 174 1389 l 347 1389 l 347 1215 l 174 1215 z "},"Ǽ":{"ha":1736,"x_min":0,"x_max":1563,"o":"m 0 0 l 0 1042 l 174 1042 l 174 868 l 694 868 l 694 1042 l 174 1042 l 174 1215 l 1563 1215 l 1563 1042 l 868 1042 l 868 868 l 1215 868 l 1215 694 l 868 694 l 868 174 l 1563 174 l 1563 0 l 694 0 l 694 694 l 174 694 l 174 0 l 0 0 m 694 1389 l 694 1563 l 868 1563 l 868 1389 l 694 1389 m 868 1563 l 868 1736 l 1042 1736 l 1042 1563 l 868 1563 z "},"ǽ":{"ha":1736,"x_min":0,"x_max":1563,"o":"m 174 0 l 174 174 l 694 174 l 694 0 l 174 0 m 868 0 l 868 174 l 1563 174 l 1563 0 l 868 0 m 0 174 l 0 347 l 174 347 l 174 174 l 0 174 m 694 174 l 694 347 l 174 347 l 174 521 l 694 521 l 694 694 l 868 694 l 868 521 l 1389 521 l 1389 694 l 1563 694 l 1563 347 l 868 347 l 868 174 l 694 174 m 174 694 l 174 868 l 694 868 l 694 694 l 174 694 m 868 694 l 868 868 l 1389 868 l 1389 694 l 868 694 m 694 1042 l 694 1215 l 868 1215 l 868 1042 l 694 1042 m 868 1215 l 868 1389 l 1042 1389 l 1042 1215 l 868 1215 z "},"Ǿ":{"ha":1042,"x_min":0,"x_max":868,"o":"m 347 347 l 347 868 l 521 868 l 521 347 l 347 347 m 174 0 l 174 174 l 0 174 l 0 1042 l 174 1042 l 174 347 l 347 347 l 347 174 l 694 174 l 694 0 l 174 0 m 694 174 l 694 868 l 521 868 l 521 1042 l 174 1042 l 174 1215 l 694 1215 l 694 1042 l 868 1042 l 868 174 l 694 174 m 347 1389 l 347 1563 l 521 1563 l 521 1389 l 347 1389 m 521 1563 l 521 1736 l 694 1736 l 694 1563 l 521 1563 z "},"Ȃ":{"ha":1042,"x_min":0,"x_max":868,"o":"m 0 0 l 0 1042 l 174 1042 l 174 868 l 694 868 l 694 1042 l 868 1042 l 868 0 l 694 0 l 694 694 l 174 694 l 174 0 l 0 0 m 174 1042 l 174 1215 l 694 1215 l 694 1042 l 174 1042 m 174 1389 l 174 1563 l 347 1563 l 347 1389 l 174 1389 m 694 1389 l 694 1563 l 868 1563 l 868 1389 l 694 1389 m 347 1563 l 347 1736 l 694 1736 l 694 1563 l 347 1563 z "},"ȃ":{"ha":1042,"x_min":0,"x_max":868,"o":"m 0 174 l 0 347 l 174 347 l 174 174 l 0 174 m 174 0 l 174 174 l 694 174 l 694 347 l 174 347 l 174 521 l 694 521 l 694 694 l 868 694 l 868 0 l 174 0 m 174 694 l 174 868 l 694 868 l 694 694 l 174 694 m 174 1042 l 174 1215 l 347 1215 l 347 1042 l 174 1042 m 694 1042 l 694 1215 l 868 1215 l 868 1042 l 694 1042 m 347 1215 l 347 1389 l 694 1389 l 694 1215 l 347 1215 z "},"Ȇ":{"ha":1042,"x_min":0,"x_max":868,"o":"m 0 0 l 0 1215 l 868 1215 l 868 1042 l 174 1042 l 174 868 l 521 868 l 521 694 l 174 694 l 174 174 l 868 174 l 868 0 l 0 0 m 174 1389 l 174 1563 l 347 1563 l 347 1389 l 174 1389 m 694 1389 l 694 1563 l 868 1563 l 868 1389 l 694 1389 m 347 1563 l 347 1736 l 694 1736 l 694 1563 l 347 1563 z "},"ȇ":{"ha":1042,"x_min":0,"x_max":868,"o":"m 174 0 l 174 174 l 868 174 l 868 0 l 174 0 m 0 174 l 0 694 l 174 694 l 174 521 l 694 521 l 694 694 l 868 694 l 868 347 l 174 347 l 174 174 l 0 174 m 174 694 l 174 868 l 694 868 l 694 694 l 174 694 m 174 1042 l 174 1215 l 347 1215 l 347 1042 l 174 1042 m 694 1042 l 694 1215 l 868 1215 l 868 1042 l 694 1042 m 347 1215 l 347 1389 l 694 1389 l 694 1215 l 347 1215 z "},"Ȋ":{"ha":868,"x_min":0,"x_max":694,"o":"m 0 0 l 0 174 l 174 174 l 174 1042 l 0 1042 l 0 1215 l 521 1215 l 521 1042 l 347 1042 l 347 174 l 521 174 l 521 0 l 0 0 m 0 1389 l 0 1563 l 174 1563 l 174 1389 l 0 1389 m 521 1389 l 521 1563 l 694 1563 l 694 1389 l 521 1389 m 174 1563 l 174 1736 l 521 1736 l 521 1563 l 174 1563 z "},"ȋ":{"ha":868,"x_min":0,"x_max":694,"o":"m 174 0 l 174 868 l 347 868 l 347 0 l 174 0 m 0 1042 l 0 1215 l 174 1215 l 174 1042 l 0 1042 m 521 1042 l 521 1215 l 694 1215 l 694 1042 l 521 1042 m 174 1215 l 174 1389 l 521 1389 l 521 1215 l 174 1215 z "},"Ȗ":{"ha":1042,"x_min":0,"x_max":868,"o":"m 174 0 l 174 174 l 694 174 l 694 0 l 174 0 m 0 174 l 0 1215 l 174 1215 l 174 174 l 0 174 m 694 174 l 694 1215 l 868 1215 l 868 174 l 694 174 m 174 1389 l 174 1563 l 347 1563 l 347 1389 l 174 1389 m 694 1389 l 694 1563 l 868 1563 l 868 1389 l 694 1389 m 347 1563 l 347 1736 l 694 1736 l 694 1563 l 347 1563 z "},"ȗ":{"ha":1042,"x_min":0,"x_max":868,"o":"m 0 174 l 0 868 l 174 868 l 174 174 l 0 174 m 174 0 l 174 174 l 694 174 l 694 868 l 868 868 l 868 0 l 174 0 m 174 1042 l 174 1215 l 347 1215 l 347 1042 l 174 1042 m 694 1042 l 694 1215 l 868 1215 l 868 1042 l 694 1042 m 347 1215 l 347 1389 l 694 1389 l 694 1215 l 347 1215 z "},"Ȟ":{"ha":1042,"x_min":0,"x_max":868,"o":"m 0 0 l 0 1215 l 174 1215 l 174 868 l 694 868 l 694 1215 l 868 1215 l 868 0 l 694 0 l 694 694 l 174 694 l 174 0 l 0 0 m 347 1389 l 347 1563 l 521 1563 l 521 1389 l 347 1389 m 174 1563 l 174 1736 l 347 1736 l 347 1563 l 174 1563 m 521 1563 l 521 1736 l 694 1736 l 694 1563 l 521 1563 z "},"ȟ":{"ha":1042,"x_min":0,"x_max":868,"o":"m 694 0 l 694 694 l 868 694 l 868 0 l 694 0 m 0 0 l 0 1215 l 174 1215 l 174 868 l 694 868 l 694 694 l 174 694 l 174 0 l 0 0 m 347 1389 l 347 1563 l 521 1563 l 521 1389 l 347 1389 m 174 1563 l 174 1736 l 347 1736 l 347 1563 l 174 1563 m 521 1563 l 521 1736 l 694 1736 l 694 1563 l 521 1563 z "},"ɐ":{"ha":1042,"x_min":0,"x_max":868,"o":"m 174 0 l 174 174 l 694 174 l 694 0 l 174 0 m 694 521 l 694 694 l 868 694 l 868 521 l 694 521 m 0 174 l 0 868 l 694 868 l 694 694 l 174 694 l 174 521 l 694 521 l 694 347 l 174 347 l 174 174 l 0 174 z "},"ɑ":{"ha":1042,"x_min":0,"x_max":868,"o":"m 0 174 l 0 694 l 174 694 l 174 174 l 0 174 m 174 694 l 174 868 l 521 868 l 521 694 l 174 694 m 174 0 l 174 174 l 694 174 l 694 521 l 521 521 l 521 694 l 694 694 l 694 868 l 868 868 l 868 0 l 174 0 z "},"ɒ":{"ha":1042,"x_min":0,"x_max":868,"o":"m 347 0 l 347 174 l 694 174 l 694 0 l 347 0 m 694 174 l 694 694 l 868 694 l 868 174 l 694 174 m 0 0 l 0 868 l 694 868 l 694 694 l 174 694 l 174 347 l 347 347 l 347 174 l 174 174 l 174 0 l 0 0 z "},"ɓ":{"ha":1042,"x_min":0,"x_max":868,"o":"m 694 174 l 694 694 l 868 694 l 868 174 l 694 174 m 347 694 l 347 868 l 694 868 l 694 694 l 347 694 m 0 0 l 0 1042 l 174 1042 l 174 694 l 347 694 l 347 521 l 174 521 l 174 174 l 694 174 l 694 0 l 0 0 m 174 1042 l 174 1215 l 868 1215 l 868 1042 l 174 1042 z "},"ɔ":{"ha":1042,"x_min":0,"x_max":868,"o":"m 174 0 l 174 174 l 694 174 l 694 0 l 174 0 m 0 174 l 0 347 l 174 347 l 174 174 l 0 174 m 0 521 l 0 694 l 174 694 l 174 521 l 0 521 m 694 174 l 694 694 l 868 694 l 868 174 l 694 174 m 174 694 l 174 868 l 694 868 l 694 694 l 174 694 z "},"ɕ":{"ha":1042,"x_min":0,"x_max":868,"o":"m 347 -174 l 347 0 l 174 0 l 174 174 l 347 174 l 347 347 l 521 347 l 521 174 l 694 174 l 694 0 l 521 0 l 521 -174 l 347 -174 m 694 174 l 694 347 l 868 347 l 868 174 l 694 174 m 521 347 l 521 521 l 694 521 l 694 347 l 521 347 m 0 174 l 0 694 l 174 694 l 174 174 l 0 174 m 174 694 l 174 868 l 694 868 l 694 694 l 174 694 z "},"ɖ":{"ha":1215,"x_min":0,"x_max":1042,"o":"m 868 -174 l 868 0 l 1042 0 l 1042 -174 l 868 -174 m 0 174 l 0 694 l 174 694 l 174 174 l 0 174 m 174 694 l 174 868 l 521 868 l 521 694 l 174 694 m 174 0 l 174 174 l 694 174 l 694 521 l 521 521 l 521 694 l 694 694 l 694 1215 l 868 1215 l 868 0 l 174 0 z "},"ɗ":{"ha":1215,"x_min":0,"x_max":1042,"o":"m 0 174 l 0 694 l 174 694 l 174 174 l 0 174 m 174 694 l 174 868 l 521 868 l 521 694 l 174 694 m 174 0 l 174 174 l 694 174 l 694 521 l 521 521 l 521 694 l 694 694 l 694 1042 l 868 1042 l 868 0 l 174 0 m 868 1042 l 868 1215 l 1042 1215 l 1042 1042 l 868 1042 z "},"ɘ":{"ha":1042,"x_min":0,"x_max":868,"o":"m 0 0 l 0 174 l 694 174 l 694 0 l 0 0 m 694 174 l 694 347 l 0 347 l 0 694 l 174 694 l 174 521 l 694 521 l 694 694 l 868 694 l 868 174 l 694 174 m 174 694 l 174 868 l 694 868 l 694 694 l 174 694 z "},"ə":{"ha":1042,"x_min":0,"x_max":868,"o":"m 174 0 l 174 174 l 694 174 l 694 0 l 174 0 m 0 174 l 0 521 l 694 521 l 694 694 l 868 694 l 868 174 l 694 174 l 694 347 l 174 347 l 174 174 l 0 174 m 0 694 l 0 868 l 694 868 l 694 694 l 0 694 z "},"ɚ":{"ha":1389,"x_min":0,"x_max":1215,"o":"m 174 0 l 174 174 l 694 174 l 694 0 l 174 0 m 1042 347 l 1042 521 l 1215 521 l 1215 347 l 1042 347 m 0 174 l 0 521 l 694 521 l 694 694 l 1042 694 l 1042 521 l 868 521 l 868 174 l 694 174 l 694 347 l 174 347 l 174 174 l 0 174 m 0 694 l 0 868 l 694 868 l 694 694 l 0 694 z "},"ɛ":{"ha":1042,"x_min":0,"x_max":868,"o":"m 174 0 l 174 174 l 868 174 l 868 0 l 174 0 m 0 174 l 0 347 l 174 347 l 174 174 l 0 174 m 174 347 l 174 521 l 521 521 l 521 347 l 174 347 m 0 521 l 0 694 l 174 694 l 174 521 l 0 521 m 174 694 l 174 868 l 868 868 l 868 694 l 174 694 z "},"ɜ":{"ha":1042,"x_min":0,"x_max":868,"o":"m 0 0 l 0 174 l 694 174 l 694 0 l 0 0 m 694 174 l 694 347 l 868 347 l 868 174 l 694 174 m 347 347 l 347 521 l 694 521 l 694 347 l 347 347 m 694 521 l 694 694 l 868 694 l 868 521 l 694 521 m 0 694 l 0 868 l 694 868 l 694 694 l 0 694 z "},"ɝ":{"ha":1389,"x_min":0,"x_max":1215,"o":"m 0 0 l 0 174 l 694 174 l 694 0 l 0 0 m 694 174 l 694 347 l 868 347 l 868 174 l 694 174 m 347 347 l 347 521 l 694 521 l 694 347 l 347 347 m 1042 347 l 1042 521 l 1215 521 l 1215 347 l 1042 347 m 694 521 l 694 694 l 1042 694 l 1042 521 l 694 521 m 0 694 l 0 868 l 694 868 l 694 694 l 0 694 z "},"ɞ":{"ha":1042,"x_min":0,"x_max":868,"o":"m 174 0 l 174 174 l 694 174 l 694 0 l 174 0 m 694 174 l 694 347 l 868 347 l 868 174 l 694 174 m 347 347 l 347 521 l 694 521 l 694 347 l 347 347 m 0 174 l 0 694 l 174 694 l 174 174 l 0 174 m 694 521 l 694 694 l 868 694 l 868 521 l 694 521 m 174 694 l 174 868 l 694 868 l 694 694 l 174 694 z "},"ɟ":{"ha":868,"x_min":0,"x_max":694,"o":"m 0 -174 l 0 0 l 347 0 l 347 -174 l 0 -174 m 347 0 l 347 174 l 0 174 l 0 347 l 347 347 l 347 1215 l 521 1215 l 521 347 l 694 347 l 694 174 l 521 174 l 521 0 l 347 0 z "},"ɠ":{"ha":1215,"x_min":0,"x_max":1042,"o":"m 0 -174 l 0 0 l 694 0 l 694 -174 l 0 -174 m 0 347 l 0 694 l 174 694 l 174 347 l 0 347 m 694 0 l 694 174 l 174 174 l 174 347 l 694 347 l 694 694 l 174 694 l 174 868 l 694 868 l 694 1042 l 868 1042 l 868 0 l 694 0 m 868 1042 l 868 1215 l 1042 1215 l 1042 1042 l 868 1042 z "},"ɡ":{"ha":1042,"x_min":0,"x_max":868,"o":"m 0 -174 l 0 0 l 694 0 l 694 -174 l 0 -174 m 0 347 l 0 694 l 174 694 l 174 347 l 0 347 m 694 0 l 694 174 l 174 174 l 174 347 l 694 347 l 694 694 l 174 694 l 174 868 l 868 868 l 868 0 l 694 0 z "},"ɢ":{"ha":1042,"x_min":0,"x_max":868,"o":"m 174 0 l 174 174 l 694 174 l 694 0 l 174 0 m 694 174 l 694 347 l 521 347 l 521 521 l 868 521 l 868 174 l 694 174 m 0 174 l 0 694 l 174 694 l 174 174 l 0 174 m 174 694 l 174 868 l 868 868 l 868 694 l 174 694 z "},"ɣ":{"ha":1042,"x_min":0,"x_max":868,"o":"m 347 -174 l 347 0 l 521 0 l 521 -174 l 347 -174 m 174 0 l 174 347 l 347 347 l 347 0 l 174 0 m 521 0 l 521 347 l 694 347 l 694 0 l 521 0 m 347 347 l 347 521 l 521 521 l 521 347 l 347 347 m 174 521 l 174 694 l 347 694 l 347 521 l 174 521 m 521 521 l 521 694 l 694 694 l 694 521 l 521 521 m 0 694 l 0 868 l 174 868 l 174 694 l 0 694 m 694 694 l 694 868 l 868 868 l 868 694 l 694 694 z "},"ɤ":{"ha":1042,"x_min":0,"x_max":868,"o":"m 347 0 l 347 174 l 521 174 l 521 0 l 347 0 m 174 174 l 174 521 l 347 521 l 347 174 l 174 174 m 521 174 l 521 521 l 694 521 l 694 174 l 521 174 m 347 521 l 347 694 l 521 694 l 521 521 l 347 521 m 0 694 l 0 868 l 347 868 l 347 694 l 0 694 m 521 694 l 521 868 l 868 868 l 868 694 l 521 694 z "},"ɥ":{"ha":1042,"x_min":0,"x_max":868,"o":"m 174 174 l 174 347 l 521 347 l 521 174 l 174 174 m 0 347 l 0 1042 l 174 1042 l 174 347 l 0 347 m 694 -174 l 694 347 l 521 347 l 521 521 l 694 521 l 694 1042 l 868 1042 l 868 -174 l 694 -174 z "},"ɦ":{"ha":1042,"x_min":0,"x_max":868,"o":"m 694 0 l 694 694 l 868 694 l 868 0 l 694 0 m 347 694 l 347 868 l 694 868 l 694 694 l 347 694 m 0 0 l 0 1042 l 174 1042 l 174 694 l 347 694 l 347 521 l 174 521 l 174 0 l 0 0 m 174 1042 l 174 1215 l 868 1215 l 868 1042 l 174 1042 z "},"ɧ":{"ha":1042,"x_min":0,"x_max":868,"o":"m 347 -174 l 347 0 l 694 0 l 694 -174 l 347 -174 m 694 0 l 694 694 l 868 694 l 868 0 l 694 0 m 347 694 l 347 868 l 694 868 l 694 694 l 347 694 m 0 0 l 0 1042 l 174 1042 l 174 694 l 347 694 l 347 521 l 174 521 l 174 0 l 0 0 m 174 1042 l 174 1215 l 868 1215 l 868 1042 l 174 1042 z "},"ɨ":{"ha":694,"x_min":0,"x_max":521,"o":"m 174 0 l 174 347 l 0 347 l 0 521 l 174 521 l 174 868 l 347 868 l 347 521 l 521 521 l 521 347 l 347 347 l 347 0 l 174 0 m 174 1042 l 174 1215 l 347 1215 l 347 1042 l 174 1042 z "},"ɩ":{"ha":521,"x_min":0,"x_max":347,"o":"m 174 0 l 174 174 l 347 174 l 347 0 l 174 0 m 0 174 l 0 868 l 174 868 l 174 174 l 0 174 z "},"ɪ":{"ha":694,"x_min":0,"x_max":521,"o":"m 0 0 l 0 174 l 174 174 l 174 694 l 0 694 l 0 868 l 521 868 l 521 694 l 347 694 l 347 174 l 521 174 l 521 0 l 0 0 z "},"ɫ":{"ha":1042,"x_min":0,"x_max":868,"o":"m 521 0 l 521 174 l 694 174 l 694 0 l 521 0 m 0 521 l 0 694 l 174 694 l 174 521 l 0 521 m 694 694 l 694 868 l 868 868 l 868 694 l 694 694 m 347 174 l 347 694 l 174 694 l 174 868 l 347 868 l 347 1215 l 521 1215 l 521 694 l 694 694 l 694 521 l 521 521 l 521 174 l 347 174 z "},"ɬ":{"ha":868,"x_min":0,"x_max":694,"o":"m 521 0 l 521 174 l 694 174 l 694 0 l 521 0 m 0 521 l 0 694 l 174 694 l 174 521 l 0 521 m 347 174 l 347 347 l 174 347 l 174 521 l 347 521 l 347 694 l 174 694 l 174 868 l 347 868 l 347 1215 l 521 1215 l 521 521 l 694 521 l 694 347 l 521 347 l 521 174 l 347 174 z "},"ɭ":{"ha":521,"x_min":0,"x_max":347,"o":"m 174 -174 l 174 0 l 347 0 l 347 -174 l 174 -174 m 0 0 l 0 1215 l 174 1215 l 174 0 l 0 0 z "},"ɮ":{"ha":1042,"x_min":0,"x_max":868,"o":"m 347 -174 l 347 0 l 694 0 l 694 -174 l 347 -174 m 694 0 l 694 347 l 868 347 l 868 0 l 694 0 m 347 347 l 347 521 l 694 521 l 694 347 l 347 347 m 0 0 l 0 1215 l 174 1215 l 174 868 l 868 868 l 868 521 l 694 521 l 694 694 l 174 694 l 174 0 l 0 0 z "},"ɯ":{"ha":1042,"x_min":0,"x_max":868,"o":"m 174 0 l 174 174 l 347 174 l 347 0 l 174 0 m 347 174 l 347 521 l 521 521 l 521 174 l 347 174 m 0 174 l 0 868 l 174 868 l 174 174 l 0 174 m 521 0 l 521 174 l 694 174 l 694 868 l 868 868 l 868 0 l 521 0 z "},"ɰ":{"ha":1042,"x_min":0,"x_max":868,"o":"m 174 0 l 174 174 l 347 174 l 347 0 l 174 0 m 347 174 l 347 521 l 521 521 l 521 174 l 347 174 m 0 174 l 0 868 l 174 868 l 174 174 l 0 174 m 694 -174 l 694 0 l 521 0 l 521 174 l 694 174 l 694 868 l 868 868 l 868 -174 l 694 -174 z "},"ɱ":{"ha":1042,"x_min":0,"x_max":868,"o":"m 521 -174 l 521 0 l 694 0 l 694 -174 l 521 -174 m 347 347 l 347 694 l 521 694 l 521 347 l 347 347 m 694 0 l 694 694 l 868 694 l 868 0 l 694 0 m 0 0 l 0 868 l 347 868 l 347 694 l 174 694 l 174 0 l 0 0 m 521 694 l 521 868 l 694 868 l 694 694 l 521 694 z "},"ɲ":{"ha":1215,"x_min":0,"x_max":1042,"o":"m 0 -174 l 0 0 l 174 0 l 174 -174 l 0 -174 m 868 0 l 868 694 l 1042 694 l 1042 0 l 868 0 m 174 0 l 174 868 l 868 868 l 868 694 l 347 694 l 347 0 l 174 0 z "},"ɳ":{"ha":1215,"x_min":0,"x_max":1042,"o":"m 868 -174 l 868 0 l 1042 0 l 1042 -174 l 868 -174 m 694 0 l 694 694 l 868 694 l 868 0 l 694 0 m 0 0 l 0 868 l 694 868 l 694 694 l 174 694 l 174 0 l 0 0 z "},"ɴ":{"ha":1042,"x_min":0,"x_max":868,"o":"m 347 347 l 347 521 l 521 521 l 521 347 l 347 347 m 0 0 l 0 868 l 174 868 l 174 694 l 347 694 l 347 521 l 174 521 l 174 0 l 0 0 m 694 0 l 694 174 l 521 174 l 521 347 l 694 347 l 694 868 l 868 868 l 868 0 l 694 0 z "},"ɵ":{"ha":1042,"x_min":0,"x_max":868,"o":"m 174 0 l 174 174 l 694 174 l 694 0 l 174 0 m 0 174 l 0 694 l 174 694 l 174 521 l 694 521 l 694 694 l 868 694 l 868 174 l 694 174 l 694 347 l 174 347 l 174 174 l 0 174 m 174 694 l 174 868 l 694 868 l 694 694 l 174 694 z "},"ɶ":{"ha":1736,"x_min":0,"x_max":1563,"o":"m 0 174 l 0 694 l 174 694 l 174 174 l 0 174 m 174 0 l 174 174 l 694 174 l 694 694 l 174 694 l 174 868 l 1563 868 l 1563 694 l 868 694 l 868 521 l 1215 521 l 1215 347 l 868 347 l 868 174 l 1563 174 l 1563 0 l 174 0 z "},"ɷ":{"ha":1389,"x_min":0,"x_max":1215,"o":"m 174 0 l 174 174 l 521 174 l 521 0 l 174 0 m 694 0 l 694 174 l 1042 174 l 1042 0 l 694 0 m 521 174 l 521 521 l 694 521 l 694 174 l 521 174 m 0 174 l 0 694 l 174 694 l 174 174 l 0 174 m 1042 174 l 1042 694 l 1215 694 l 1215 174 l 1042 174 m 174 694 l 174 868 l 1042 868 l 1042 694 l 174 694 z "},"ɸ":{"ha":1042,"x_min":0,"x_max":868,"o":"m 0 174 l 0 694 l 174 694 l 174 174 l 0 174 m 694 174 l 694 694 l 868 694 l 868 174 l 694 174 m 347 -174 l 347 0 l 174 0 l 174 174 l 347 174 l 347 694 l 174 694 l 174 868 l 347 868 l 347 1042 l 521 1042 l 521 868 l 694 868 l 694 694 l 521 694 l 521 174 l 694 174 l 694 0 l 521 0 l 521 -174 l 347 -174 z "},"ɹ":{"ha":1042,"x_min":0,"x_max":868,"o":"m 174 0 l 174 174 l 521 174 l 521 0 l 174 0 m 0 174 l 0 347 l 174 347 l 174 174 l 0 174 m 694 0 l 694 174 l 521 174 l 521 347 l 694 347 l 694 868 l 868 868 l 868 0 l 694 0 z "},"ɺ":{"ha":1042,"x_min":0,"x_max":868,"o":"m 174 0 l 174 174 l 521 174 l 521 0 l 174 0 m 0 174 l 0 347 l 174 347 l 174 174 l 0 174 m 694 0 l 694 174 l 521 174 l 521 347 l 694 347 l 694 1215 l 868 1215 l 868 0 l 694 0 z "},"ɻ":{"ha":1215,"x_min":0,"x_max":1042,"o":"m 868 -174 l 868 0 l 1042 0 l 1042 -174 l 868 -174 m 174 0 l 174 174 l 521 174 l 521 0 l 174 0 m 0 174 l 0 347 l 174 347 l 174 174 l 0 174 m 694 0 l 694 174 l 521 174 l 521 347 l 694 347 l 694 868 l 868 868 l 868 0 l 694 0 z "},"ɼ":{"ha":1042,"x_min":0,"x_max":868,"o":"m 694 521 l 694 694 l 868 694 l 868 521 l 694 521 m 0 0 l 0 868 l 174 868 l 174 694 l 347 694 l 347 521 l 174 521 l 174 0 l 0 0 m 347 694 l 347 868 l 694 868 l 694 694 l 347 694 z "},"ɽ":{"ha":1042,"x_min":0,"x_max":868,"o":"m 174 -174 l 174 0 l 347 0 l 347 -174 l 174 -174 m 694 521 l 694 694 l 868 694 l 868 521 l 694 521 m 0 0 l 0 868 l 174 868 l 174 694 l 347 694 l 347 521 l 174 521 l 174 0 l 0 0 m 347 694 l 347 868 l 694 868 l 694 694 l 347 694 z "},"ɾ":{"ha":1042,"x_min":0,"x_max":868,"o":"m 0 0 l 0 694 l 174 694 l 174 0 l 0 0 m 694 521 l 694 694 l 868 694 l 868 521 l 694 521 m 174 694 l 174 868 l 694 868 l 694 694 l 174 694 z "},"ɿ":{"ha":1042,"x_min":0,"x_max":868,"o":"m 0 521 l 0 694 l 174 694 l 174 521 l 0 521 m 694 -174 l 694 694 l 868 694 l 868 -174 l 694 -174 m 174 694 l 174 868 l 694 868 l 694 694 l 174 694 z "},"ʀ":{"ha":1042,"x_min":0,"x_max":868,"o":"m 694 0 l 694 347 l 868 347 l 868 0 l 694 0 m 694 521 l 694 694 l 868 694 l 868 521 l 694 521 m 0 0 l 0 868 l 694 868 l 694 694 l 174 694 l 174 521 l 694 521 l 694 347 l 174 347 l 174 0 l 0 0 z "},"ʁ":{"ha":1042,"x_min":0,"x_max":868,"o":"m 694 174 l 694 347 l 868 347 l 868 174 l 694 174 m 0 0 l 0 868 l 174 868 l 174 521 l 694 521 l 694 347 l 174 347 l 174 174 l 694 174 l 694 0 l 0 0 m 694 521 l 694 868 l 868 868 l 868 521 l 694 521 z "},"ʂ":{"ha":1042,"x_min":0,"x_max":868,"o":"m 174 -347 l 174 -174 l 347 -174 l 347 -347 l 174 -347 m 0 -174 l 0 174 l 694 174 l 694 0 l 174 0 l 174 -174 l 0 -174 m 694 174 l 694 347 l 868 347 l 868 174 l 694 174 m 174 347 l 174 521 l 694 521 l 694 347 l 174 347 m 0 521 l 0 694 l 174 694 l 174 521 l 0 521 m 174 694 l 174 868 l 868 868 l 868 694 l 174 694 z "},"ʃ":{"ha":1042,"x_min":0,"x_max":868,"o":"m 0 -174 l 0 0 l 347 0 l 347 -174 l 0 -174 m 347 0 l 347 1042 l 521 1042 l 521 0 l 347 0 m 521 1042 l 521 1215 l 868 1215 l 868 1042 l 521 1042 z "},"ʄ":{"ha":1042,"x_min":0,"x_max":868,"o":"m 174 -174 l 174 0 l 521 0 l 521 -174 l 174 -174 m 0 0 l 0 347 l 174 347 l 174 0 l 0 0 m 521 0 l 521 174 l 347 174 l 347 347 l 521 347 l 521 1042 l 694 1042 l 694 347 l 868 347 l 868 174 l 694 174 l 694 0 l 521 0 m 694 1042 l 694 1215 l 868 1215 l 868 1042 l 694 1042 z "},"ʅ":{"ha":1042,"x_min":0,"x_max":868,"o":"m 521 0 l 521 174 l 868 174 l 868 0 l 521 0 m 347 174 l 347 694 l 521 694 l 521 174 l 347 174 m 0 694 l 0 868 l 347 868 l 347 694 l 0 694 z "},"ʆ":{"ha":1215,"x_min":0,"x_max":1042,"o":"m 174 0 l 174 174 l 521 174 l 521 0 l 174 0 m 0 174 l 0 347 l 174 347 l 174 174 l 0 174 m 521 174 l 521 347 l 174 347 l 174 521 l 521 521 l 521 1042 l 694 1042 l 694 521 l 868 521 l 868 347 l 694 347 l 694 174 l 521 174 m 694 1042 l 694 1215 l 1042 1215 l 1042 1042 l 694 1042 z "},"ʇ":{"ha":694,"x_min":0,"x_max":521,"o":"m 174 -174 l 174 174 l 0 174 l 0 347 l 174 347 l 174 868 l 347 868 l 347 347 l 521 347 l 521 174 l 347 174 l 347 -174 l 174 -174 m 0 868 l 0 1042 l 174 1042 l 174 868 l 0 868 z "},"ʈ":{"ha":694,"x_min":0,"x_max":521,"o":"m 347 -174 l 347 0 l 521 0 l 521 -174 l 347 -174 m 174 0 l 174 694 l 0 694 l 0 868 l 174 868 l 174 1215 l 347 1215 l 347 868 l 521 868 l 521 694 l 347 694 l 347 0 l 174 0 z "},"ʉ":{"ha":1389,"x_min":0,"x_max":1215,"o":"m 347 0 l 347 174 l 868 174 l 868 347 l 347 347 l 347 174 l 174 174 l 174 347 l 0 347 l 0 521 l 174 521 l 174 868 l 347 868 l 347 521 l 868 521 l 868 868 l 1042 868 l 1042 521 l 1215 521 l 1215 347 l 1042 347 l 1042 0 l 347 0 z "},"ʊ":{"ha":1042,"x_min":0,"x_max":868,"o":"m 174 0 l 174 174 l 694 174 l 694 0 l 174 0 m 0 174 l 0 521 l 174 521 l 174 174 l 0 174 m 694 174 l 694 521 l 868 521 l 868 174 l 694 174 m 174 521 l 174 694 l 0 694 l 0 868 l 347 868 l 347 521 l 174 521 m 521 521 l 521 868 l 868 868 l 868 694 l 694 694 l 694 521 l 521 521 z "},"ʋ":{"ha":1042,"x_min":0,"x_max":868,"o":"m 174 0 l 174 174 l 694 174 l 694 0 l 174 0 m 694 174 l 694 694 l 868 694 l 868 174 l 694 174 m 0 174 l 0 868 l 174 868 l 174 174 l 0 174 m 521 694 l 521 868 l 694 868 l 694 694 l 521 694 z "},"ʌ":{"ha":1042,"x_min":0,"x_max":868,"o":"m 0 0 l 0 521 l 174 521 l 174 0 l 0 0 m 694 0 l 694 521 l 868 521 l 868 0 l 694 0 m 174 521 l 174 694 l 347 694 l 347 521 l 174 521 m 521 521 l 521 694 l 694 694 l 694 521 l 521 521 m 347 694 l 347 868 l 521 868 l 521 694 l 347 694 z "},"ʍ":{"ha":1042,"x_min":0,"x_max":868,"o":"m 694 0 l 694 694 l 868 694 l 868 0 l 694 0 m 0 0 l 0 868 l 694 868 l 694 694 l 521 694 l 521 347 l 347 347 l 347 694 l 174 694 l 174 0 l 0 0 z "},"ʎ":{"ha":1042,"x_min":0,"x_max":868,"o":"m 694 0 l 694 521 l 868 521 l 868 0 l 694 0 m 0 0 l 0 868 l 174 868 l 174 694 l 694 694 l 694 521 l 174 521 l 174 0 l 0 0 m 174 868 l 174 1042 l 868 1042 l 868 868 l 174 868 z "},"ʏ":{"ha":1042,"x_min":0,"x_max":868,"o":"m 347 0 l 347 521 l 521 521 l 521 0 l 347 0 m 174 521 l 174 694 l 347 694 l 347 521 l 174 521 m 521 521 l 521 694 l 694 694 l 694 521 l 521 521 m 0 694 l 0 868 l 174 868 l 174 694 l 0 694 m 694 694 l 694 868 l 868 868 l 868 694 l 694 694 z "},"ʐ":{"ha":1215,"x_min":0,"x_max":1042,"o":"m 868 -347 l 868 -174 l 1042 -174 l 1042 -347 l 868 -347 m 694 -174 l 694 0 l 0 0 l 0 174 l 174 174 l 174 347 l 347 347 l 347 174 l 868 174 l 868 -174 l 694 -174 m 347 347 l 347 521 l 521 521 l 521 347 l 347 347 m 521 521 l 521 694 l 0 694 l 0 868 l 868 868 l 868 694 l 694 694 l 694 521 l 521 521 z "},"ʑ":{"ha":1042,"x_min":0,"x_max":868,"o":"m 347 -174 l 347 0 l 0 0 l 0 347 l 174 347 l 174 174 l 347 174 l 347 347 l 521 347 l 521 174 l 694 174 l 694 0 l 521 0 l 521 -174 l 347 -174 m 694 174 l 694 347 l 868 347 l 868 174 l 694 174 m 174 347 l 174 521 l 347 521 l 347 347 l 174 347 m 521 347 l 521 521 l 694 521 l 694 347 l 521 347 m 347 521 l 347 694 l 0 694 l 0 868 l 694 868 l 694 694 l 521 694 l 521 521 l 347 521 z "},"ʒ":{"ha":1042,"x_min":0,"x_max":868,"o":"m 174 -174 l 174 0 l 694 0 l 694 -174 l 174 -174 m 0 0 l 0 174 l 174 174 l 174 0 l 0 0 m 694 0 l 694 347 l 868 347 l 868 0 l 694 0 m 347 347 l 347 521 l 694 521 l 694 347 l 347 347 m 694 521 l 694 694 l 0 694 l 0 868 l 868 868 l 868 521 l 694 521 z "},"ʓ":{"ha":1042,"x_min":0,"x_max":868,"o":"m 0 0 l 0 174 l 174 174 l 174 0 l 0 0 m 174 -174 l 174 0 l 347 0 l 347 174 l 521 174 l 521 0 l 694 0 l 694 -174 l 174 -174 m 174 174 l 174 347 l 347 347 l 347 174 l 174 174 m 694 0 l 694 347 l 868 347 l 868 0 l 694 0 m 347 347 l 347 521 l 694 521 l 694 347 l 347 347 m 694 521 l 694 694 l 0 694 l 0 868 l 868 868 l 868 521 l 694 521 z "},"ʔ":{"ha":1042,"x_min":0,"x_max":868,"o":"m 347 0 l 347 521 l 694 521 l 694 347 l 521 347 l 521 0 l 347 0 m 0 868 l 0 1042 l 174 1042 l 174 868 l 0 868 m 694 521 l 694 1042 l 868 1042 l 868 521 l 694 521 m 174 1042 l 174 1215 l 694 1215 l 694 1042 l 174 1042 z "},"ʕ":{"ha":1042,"x_min":0,"x_max":868,"o":"m 347 0 l 347 347 l 174 347 l 174 521 l 521 521 l 521 0 l 347 0 m 0 521 l 0 1042 l 174 1042 l 174 521 l 0 521 m 694 868 l 694 1042 l 868 1042 l 868 868 l 694 868 m 174 1042 l 174 1215 l 694 1215 l 694 1042 l 174 1042 z "},"ʖ":{"ha":1042,"x_min":0,"x_max":868,"o":"m 174 0 l 174 174 l 694 174 l 694 0 l 174 0 m 0 174 l 0 347 l 174 347 l 174 174 l 0 174 m 694 174 l 694 694 l 868 694 l 868 174 l 694 174 m 347 694 l 347 1215 l 521 1215 l 521 868 l 694 868 l 694 694 l 347 694 z "},"ʗ":{"ha":1042,"x_min":0,"x_max":868,"o":"m 174 -174 l 174 0 l 694 0 l 694 -174 l 174 -174 m 694 0 l 694 174 l 868 174 l 868 0 l 694 0 m 0 0 l 0 694 l 174 694 l 174 0 l 0 0 m 694 521 l 694 694 l 868 694 l 868 521 l 694 521 m 174 694 l 174 868 l 694 868 l 694 694 l 174 694 z "},"ʘ":{"ha":1042,"x_min":0,"x_max":868,"o":"m 174 0 l 174 174 l 694 174 l 694 0 l 174 0 m 347 521 l 347 694 l 521 694 l 521 521 l 347 521 m 0 174 l 0 1042 l 174 1042 l 174 174 l 0 174 m 694 174 l 694 1042 l 868 1042 l 868 174 l 694 174 m 174 1042 l 174 1215 l 694 1215 l 694 1042 l 174 1042 z "},"ʙ":{"ha":1042,"x_min":0,"x_max":868,"o":"m 694 174 l 694 347 l 868 347 l 868 174 l 694 174 m 694 521 l 694 694 l 868 694 l 868 521 l 694 521 m 0 0 l 0 868 l 694 868 l 694 694 l 174 694 l 174 521 l 694 521 l 694 347 l 174 347 l 174 174 l 694 174 l 694 0 l 0 0 z "},"ʚ":{"ha":1042,"x_min":0,"x_max":868,"o":"m 174 0 l 174 174 l 694 174 l 694 0 l 174 0 m 0 174 l 0 347 l 174 347 l 174 174 l 0 174 m 174 347 l 174 521 l 521 521 l 521 347 l 174 347 m 0 521 l 0 694 l 174 694 l 174 521 l 0 521 m 694 174 l 694 694 l 868 694 l 868 174 l 694 174 m 174 694 l 174 868 l 694 868 l 694 694 l 174 694 z "},"ʛ":{"ha":1215,"x_min":0,"x_max":1042,"o":"m 174 0 l 174 174 l 694 174 l 694 0 l 174 0 m 694 174 l 694 347 l 521 347 l 521 521 l 868 521 l 868 174 l 694 174 m 0 174 l 0 694 l 174 694 l 174 174 l 0 174 m 174 694 l 174 868 l 694 868 l 694 1042 l 868 1042 l 868 694 l 174 694 m 868 1042 l 868 1215 l 1042 1215 l 1042 1042 l 868 1042 z "},"ʜ":{"ha":1042,"x_min":0,"x_max":868,"o":"m 0 0 l 0 868 l 174 868 l 174 521 l 694 521 l 694 868 l 868 868 l 868 0 l 694 0 l 694 347 l 174 347 l 174 0 l 0 0 z "},"ʝ":{"ha":1042,"x_min":0,"x_max":868,"o":"m 174 -174 l 174 0 l 521 0 l 521 -174 l 174 -174 m 0 0 l 0 174 l 174 174 l 174 0 l 0 0 m 521 0 l 521 174 l 174 174 l 174 347 l 521 347 l 521 868 l 694 868 l 694 347 l 868 347 l 868 174 l 694 174 l 694 0 l 521 0 m 521 1042 l 521 1215 l 694 1215 l 694 1042 l 521 1042 z "},"ʞ":{"ha":868,"x_min":0,"x_max":694,"o":"m 0 174 l 0 347 l 174 347 l 174 174 l 0 174 m 174 347 l 174 521 l 347 521 l 347 347 l 174 347 m 174 694 l 174 868 l 347 868 l 347 694 l 174 694 m 0 868 l 0 1042 l 174 1042 l 174 868 l 0 868 m 521 -174 l 521 521 l 347 521 l 347 694 l 521 694 l 521 1042 l 694 1042 l 694 -174 l 521 -174 z "},"ʟ":{"ha":1042,"x_min":0,"x_max":868,"o":"m 0 0 l 0 868 l 174 868 l 174 174 l 868 174 l 868 0 l 0 0 z "},"ʠ":{"ha":1215,"x_min":0,"x_max":1042,"o":"m 0 347 l 0 694 l 174 694 l 174 347 l 0 347 m 174 694 l 174 868 l 521 868 l 521 694 l 174 694 m 694 -174 l 694 174 l 174 174 l 174 347 l 694 347 l 694 521 l 521 521 l 521 694 l 694 694 l 694 1042 l 868 1042 l 868 -174 l 694 -174 m 868 1042 l 868 1215 l 1042 1215 l 1042 1042 l 868 1042 z "},"ʡ":{"ha":1042,"x_min":0,"x_max":868,"o":"m 347 -174 l 347 0 l 0 0 l 0 174 l 347 174 l 347 521 l 694 521 l 694 347 l 521 347 l 521 174 l 868 174 l 868 0 l 521 0 l 521 -174 l 347 -174 m 0 694 l 0 868 l 174 868 l 174 694 l 0 694 m 694 521 l 694 868 l 868 868 l 868 521 l 694 521 m 174 868 l 174 1042 l 694 1042 l 694 868 l 174 868 z "},"ʢ":{"ha":1042,"x_min":0,"x_max":868,"o":"m 347 -174 l 347 0 l 0 0 l 0 174 l 347 174 l 347 347 l 174 347 l 174 521 l 521 521 l 521 174 l 868 174 l 868 0 l 521 0 l 521 -174 l 347 -174 m 0 521 l 0 868 l 174 868 l 174 521 l 0 521 m 694 694 l 694 868 l 868 868 l 868 694 l 694 694 m 174 868 l 174 1042 l 694 1042 l 694 868 l 174 868 z "},"ʣ":{"ha":1736,"x_min":0,"x_max":1563,"o":"m 1042 347 l 1042 521 l 1389 521 l 1389 347 l 1042 347 m 0 174 l 0 694 l 174 694 l 174 174 l 0 174 m 174 694 l 174 868 l 521 868 l 521 694 l 174 694 m 174 0 l 174 174 l 694 174 l 694 521 l 521 521 l 521 694 l 694 694 l 694 1215 l 868 1215 l 868 868 l 1563 868 l 1563 521 l 1389 521 l 1389 694 l 868 694 l 868 347 l 1042 347 l 1042 174 l 1563 174 l 1563 0 l 174 0 z "},"ʤ":{"ha":1736,"x_min":0,"x_max":1563,"o":"m 1042 -174 l 1042 0 l 1389 0 l 1389 -174 l 1042 -174 m 1389 0 l 1389 347 l 1563 347 l 1563 0 l 1389 0 m 1042 347 l 1042 521 l 1389 521 l 1389 347 l 1042 347 m 0 174 l 0 694 l 174 694 l 174 174 l 0 174 m 174 694 l 174 868 l 521 868 l 521 694 l 174 694 m 174 0 l 174 174 l 694 174 l 694 521 l 521 521 l 521 694 l 694 694 l 694 1215 l 868 1215 l 868 868 l 1563 868 l 1563 521 l 1389 521 l 1389 694 l 868 694 l 868 0 l 174 0 z "},"ʥ":{"ha":1910,"x_min":0,"x_max":1736,"o":"m 1563 174 l 1563 347 l 1736 347 l 1736 174 l 1563 174 m 1042 347 l 1042 521 l 1215 521 l 1215 347 l 1042 347 m 1389 347 l 1389 521 l 1563 521 l 1563 347 l 1389 347 m 0 174 l 0 694 l 174 694 l 174 174 l 0 174 m 174 694 l 174 868 l 521 868 l 521 694 l 174 694 m 1215 -174 l 1215 0 l 174 0 l 174 174 l 694 174 l 694 521 l 521 521 l 521 694 l 694 694 l 694 1215 l 868 1215 l 868 868 l 1563 868 l 1563 694 l 1389 694 l 1389 521 l 1215 521 l 1215 694 l 868 694 l 868 347 l 1042 347 l 1042 174 l 1215 174 l 1215 347 l 1389 347 l 1389 174 l 1563 174 l 1563 0 l 1389 0 l 1389 -174 l 1215 -174 z "},"ʦ":{"ha":1563,"x_min":0,"x_max":1389,"o":"m 347 0 l 347 174 l 1215 174 l 1215 0 l 347 0 m 1215 174 l 1215 347 l 1389 347 l 1389 174 l 1215 174 m 694 347 l 694 521 l 1215 521 l 1215 347 l 694 347 m 521 521 l 521 694 l 694 694 l 694 521 l 521 521 m 694 694 l 694 868 l 1389 868 l 1389 694 l 694 694 m 174 174 l 174 694 l 0 694 l 0 868 l 174 868 l 174 1215 l 347 1215 l 347 868 l 521 868 l 521 694 l 347 694 l 347 174 l 174 174 z "},"ʧ":{"ha":1389,"x_min":0,"x_max":1215,"o":"m 347 -174 l 347 0 l 694 0 l 694 -174 l 347 -174 m 694 0 l 694 1042 l 868 1042 l 868 0 l 694 0 m 174 0 l 174 694 l 0 694 l 0 868 l 174 868 l 174 1215 l 347 1215 l 347 868 l 521 868 l 521 694 l 347 694 l 347 0 l 174 0 m 868 1042 l 868 1215 l 1215 1215 l 1215 1042 l 868 1042 z "},"ʨ":{"ha":1563,"x_min":0,"x_max":1389,"o":"m 1215 174 l 1215 347 l 1389 347 l 1389 174 l 1215 174 m 1042 347 l 1042 521 l 1215 521 l 1215 347 l 1042 347 m 868 -174 l 868 0 l 347 0 l 347 174 l 521 174 l 521 694 l 694 694 l 694 174 l 868 174 l 868 347 l 1042 347 l 1042 174 l 1215 174 l 1215 0 l 1042 0 l 1042 -174 l 868 -174 m 694 694 l 694 868 l 1215 868 l 1215 694 l 694 694 m 174 174 l 174 694 l 0 694 l 0 868 l 174 868 l 174 1215 l 347 1215 l 347 868 l 521 868 l 521 694 l 347 694 l 347 174 l 174 174 z "},"ʩ":{"ha":1736,"x_min":0,"x_max":1563,"o":"m 1215 -174 l 1215 0 l 1389 0 l 1389 -174 l 1215 -174 m 1389 0 l 1389 694 l 1563 694 l 1563 0 l 1389 0 m 174 0 l 174 694 l 0 694 l 0 868 l 174 868 l 174 1042 l 347 1042 l 347 868 l 1389 868 l 1389 694 l 868 694 l 868 0 l 694 0 l 694 694 l 347 694 l 347 0 l 174 0 m 347 1042 l 347 1215 l 694 1215 l 694 1042 l 347 1042 z "},"ʪ":{"ha":1389,"x_min":0,"x_max":1215,"o":"m 174 0 l 174 174 l 1042 174 l 1042 0 l 174 0 m 1042 174 l 1042 347 l 1215 347 l 1215 174 l 1042 174 m 521 347 l 521 521 l 1042 521 l 1042 347 l 521 347 m 347 521 l 347 694 l 521 694 l 521 521 l 347 521 m 521 694 l 521 868 l 1215 868 l 1215 694 l 521 694 m 0 174 l 0 1215 l 174 1215 l 174 174 l 0 174 z "},"ʫ":{"ha":1389,"x_min":0,"x_max":1215,"o":"m 174 0 l 174 174 l 521 174 l 521 347 l 694 347 l 694 174 l 1215 174 l 1215 0 l 174 0 m 694 347 l 694 521 l 868 521 l 868 347 l 694 347 m 868 521 l 868 694 l 347 694 l 347 868 l 1215 868 l 1215 694 l 1042 694 l 1042 521 l 868 521 m 0 174 l 0 1215 l 174 1215 l 174 174 l 0 174 z "},"ʬ":{"ha":1042,"x_min":0,"x_max":868,"o":"m 0 0 l 0 521 l 174 521 l 174 174 l 347 174 l 347 347 l 521 347 l 521 174 l 694 174 l 694 0 l 0 0 m 694 174 l 694 521 l 868 521 l 868 174 l 694 174 m 0 694 l 0 1215 l 174 1215 l 174 868 l 347 868 l 347 1042 l 521 1042 l 521 868 l 694 868 l 694 694 l 0 694 m 694 868 l 694 1215 l 868 1215 l 868 868 l 694 868 z "},"ʭ":{"ha":1042,"x_min":0,"x_max":868,"o":"m 0 0 l 0 521 l 868 521 l 868 0 l 694 0 l 694 347 l 174 347 l 174 0 l 0 0 m 0 694 l 0 1215 l 868 1215 l 868 694 l 694 694 l 694 1042 l 174 1042 l 174 694 l 0 694 z "},"ʮ":{"ha":1215,"x_min":0,"x_max":1042,"o":"m 347 0 l 347 174 l 694 174 l 694 0 l 347 0 m 174 174 l 174 694 l 347 694 l 347 174 l 174 174 m 0 694 l 0 868 l 174 868 l 174 694 l 0 694 m 868 -174 l 868 174 l 694 174 l 694 347 l 868 347 l 868 868 l 1042 868 l 1042 -174 l 868 -174 z "},"ʯ":{"ha":1389,"x_min":0,"x_max":1215,"o":"m 1042 -174 l 1042 0 l 1215 0 l 1215 -174 l 1042 -174 m 347 0 l 347 174 l 694 174 l 694 0 l 347 0 m 174 174 l 174 694 l 347 694 l 347 174 l 174 174 m 0 694 l 0 868 l 174 868 l 174 694 l 0 694 m 868 0 l 868 174 l 694 174 l 694 347 l 868 347 l 868 868 l 1042 868 l 1042 0 l 868 0 z "},"ˆ":{"ha":1042,"x_min":0,"x_max":868,"o":"m 0 694 l 0 868 l 174 868 l 174 694 l 0 694 m 694 694 l 694 868 l 868 868 l 868 694 l 694 694 m 174 868 l 174 1042 l 347 1042 l 347 868 l 174 868 m 521 868 l 521 1042 l 694 1042 l 694 868 l 521 868 m 347 1042 l 347 1215 l 521 1215 l 521 1042 l 347 1042 z "},"˜":{"ha":1215,"x_min":0,"x_max":1042,"o":"m 0 868 l 0 1042 l 174 1042 l 174 868 l 0 868 m 521 868 l 521 1042 l 868 1042 l 868 868 l 521 868 m 174 1042 l 174 1215 l 521 1215 l 521 1042 l 174 1042 m 868 1042 l 868 1215 l 1042 1215 l 1042 1042 l 868 1042 z "},"Ά":{"ha":1389,"x_min":0,"x_max":1215,"o":"m 347 0 l 347 1042 l 521 1042 l 521 868 l 1042 868 l 1042 1042 l 1215 1042 l 1215 0 l 1042 0 l 1042 694 l 521 694 l 521 0 l 347 0 m 0 868 l 0 1215 l 174 1215 l 174 868 l 0 868 m 521 1042 l 521 1215 l 1042 1215 l 1042 1042 l 521 1042 z "},"·":{"ha":347,"x_min":0,"x_max":174,"o":"m 0 521 l 0 694 l 174 694 l 174 521 l 0 521 z "},"Έ":{"ha":1389,"x_min":0,"x_max":1215,"o":"m 0 868 l 0 1215 l 174 1215 l 174 868 l 0 868 m 347 0 l 347 1215 l 1215 1215 l 1215 1042 l 521 1042 l 521 868 l 868 868 l 868 694 l 521 694 l 521 174 l 1215 174 l 1215 0 l 347 0 z "},"Ή":{"ha":1389,"x_min":0,"x_max":1215,"o":"m 0 868 l 0 1215 l 174 1215 l 174 868 l 0 868 m 347 0 l 347 1215 l 521 1215 l 521 868 l 1042 868 l 1042 1215 l 1215 1215 l 1215 0 l 1042 0 l 1042 694 l 521 694 l 521 0 l 347 0 z "},"Ί":{"ha":1042,"x_min":0,"x_max":868,"o":"m 0 868 l 0 1215 l 174 1215 l 174 868 l 0 868 m 347 0 l 347 174 l 521 174 l 521 1042 l 347 1042 l 347 1215 l 868 1215 l 868 1042 l 694 1042 l 694 174 l 868 174 l 868 0 l 347 0 z "},"Ό":{"ha":1389,"x_min":0,"x_max":1215,"o":"m 521 0 l 521 174 l 1042 174 l 1042 0 l 521 0 m 347 174 l 347 1042 l 521 1042 l 521 174 l 347 174 m 1042 174 l 1042 1042 l 1215 1042 l 1215 174 l 1042 174 m 0 868 l 0 1215 l 174 1215 l 174 868 l 0 868 m 521 1042 l 521 1215 l 1042 1215 l 1042 1042 l 521 1042 z "},"Ύ":{"ha":1389,"x_min":0,"x_max":1215,"o":"m 694 0 l 694 868 l 868 868 l 868 0 l 694 0 m 521 868 l 521 1042 l 694 1042 l 694 868 l 521 868 m 868 868 l 868 1042 l 1042 1042 l 1042 868 l 868 868 m 0 868 l 0 1215 l 174 1215 l 174 868 l 0 868 m 347 1042 l 347 1215 l 521 1215 l 521 1042 l 347 1042 m 1042 1042 l 1042 1215 l 1215 1215 l 1215 1042 l 1042 1042 z "},"Ώ":{"ha":1389,"x_min":0,"x_max":1215,"o":"m 347 0 l 347 174 l 521 174 l 521 347 l 694 347 l 694 0 l 347 0 m 868 0 l 868 347 l 1042 347 l 1042 174 l 1215 174 l 1215 0 l 868 0 m 347 347 l 347 1042 l 521 1042 l 521 347 l 347 347 m 1042 347 l 1042 1042 l 1215 1042 l 1215 347 l 1042 347 m 0 868 l 0 1215 l 174 1215 l 174 868 l 0 868 m 521 1042 l 521 1215 l 1042 1215 l 1042 1042 l 521 1042 z "},"ΐ":{"ha":1042,"x_min":0,"x_max":868,"o":"m 347 0 l 347 868 l 521 868 l 521 0 l 347 0 m 0 1042 l 0 1215 l 174 1215 l 174 1042 l 0 1042 m 694 1042 l 694 1215 l 868 1215 l 868 1042 l 694 1042 m 347 1042 l 347 1389 l 521 1389 l 521 1042 l 347 1042 z "},"Α":{"ha":1042,"x_min":0,"x_max":868,"o":"m 0 0 l 0 1042 l 174 1042 l 174 868 l 694 868 l 694 1042 l 868 1042 l 868 0 l 694 0 l 694 694 l 174 694 l 174 0 l 0 0 m 174 1042 l 174 1215 l 694 1215 l 694 1042 l 174 1042 z "},"Β":{"ha":1042,"x_min":0,"x_max":868,"o":"m 694 174 l 694 694 l 868 694 l 868 174 l 694 174 m 694 868 l 694 1042 l 868 1042 l 868 868 l 694 868 m 0 0 l 0 1215 l 694 1215 l 694 1042 l 174 1042 l 174 868 l 694 868 l 694 694 l 174 694 l 174 174 l 694 174 l 694 0 l 0 0 z "},"Γ":{"ha":1042,"x_min":0,"x_max":868,"o":"m 0 0 l 0 1215 l 868 1215 l 868 1042 l 174 1042 l 174 0 l 0 0 z "},"Δ":{"ha":1042,"x_min":0,"x_max":868,"o":"m 0 0 l 0 347 l 174 347 l 174 174 l 694 174 l 694 347 l 868 347 l 868 0 l 0 0 m 174 347 l 174 868 l 347 868 l 347 347 l 174 347 m 521 347 l 521 868 l 694 868 l 694 347 l 521 347 m 347 868 l 347 1215 l 521 1215 l 521 868 l 347 868 z "},"Ε":{"ha":1042,"x_min":0,"x_max":868,"o":"m 0 0 l 0 1215 l 868 1215 l 868 1042 l 174 1042 l 174 868 l 521 868 l 521 694 l 174 694 l 174 174 l 868 174 l 868 0 l 0 0 z "},"Ζ":{"ha":1042,"x_min":0,"x_max":868,"o":"m 0 0 l 0 347 l 174 347 l 174 174 l 868 174 l 868 0 l 0 0 m 174 347 l 174 521 l 347 521 l 347 347 l 174 347 m 347 521 l 347 694 l 521 694 l 521 521 l 347 521 m 521 694 l 521 868 l 694 868 l 694 694 l 521 694 m 694 868 l 694 1042 l 0 1042 l 0 1215 l 868 1215 l 868 868 l 694 868 z "},"Η":{"ha":1042,"x_min":0,"x_max":868,"o":"m 0 0 l 0 1215 l 174 1215 l 174 868 l 694 868 l 694 1215 l 868 1215 l 868 0 l 694 0 l 694 694 l 174 694 l 174 0 l 0 0 z "},"Θ":{"ha":1042,"x_min":0,"x_max":868,"o":"m 174 0 l 174 174 l 694 174 l 694 0 l 174 0 m 347 521 l 347 694 l 521 694 l 521 521 l 347 521 m 0 174 l 0 1042 l 174 1042 l 174 174 l 0 174 m 694 174 l 694 1042 l 868 1042 l 868 174 l 694 174 m 174 1042 l 174 1215 l 694 1215 l 694 1042 l 174 1042 z "},"Ι":{"ha":694,"x_min":0,"x_max":521,"o":"m 0 0 l 0 174 l 174 174 l 174 1042 l 0 1042 l 0 1215 l 521 1215 l 521 1042 l 347 1042 l 347 174 l 521 174 l 521 0 l 0 0 z "},"Κ":{"ha":1042,"x_min":0,"x_max":868,"o":"m 694 0 l 694 521 l 868 521 l 868 0 l 694 0 m 521 521 l 521 694 l 694 694 l 694 521 l 521 521 m 521 868 l 521 1042 l 694 1042 l 694 868 l 521 868 m 0 0 l 0 1215 l 174 1215 l 174 868 l 521 868 l 521 694 l 174 694 l 174 0 l 0 0 m 694 1042 l 694 1215 l 868 1215 l 868 1042 l 694 1042 z "},"Λ":{"ha":1042,"x_min":0,"x_max":868,"o":"m 0 0 l 0 347 l 174 347 l 174 0 l 0 0 m 694 0 l 694 347 l 868 347 l 868 0 l 694 0 m 174 347 l 174 868 l 347 868 l 347 347 l 174 347 m 521 347 l 521 868 l 694 868 l 694 347 l 521 347 m 347 868 l 347 1215 l 521 1215 l 521 868 l 347 868 z "},"Μ":{"ha":1042,"x_min":0,"x_max":868,"o":"m 347 694 l 347 868 l 521 868 l 521 694 l 347 694 m 0 0 l 0 1215 l 174 1215 l 174 1042 l 347 1042 l 347 868 l 174 868 l 174 0 l 0 0 m 694 0 l 694 868 l 521 868 l 521 1042 l 694 1042 l 694 1215 l 868 1215 l 868 0 l 694 0 z "},"Ν":{"ha":1042,"x_min":0,"x_max":868,"o":"m 347 694 l 347 868 l 521 868 l 521 694 l 347 694 m 0 0 l 0 1215 l 174 1215 l 174 1042 l 347 1042 l 347 868 l 174 868 l 174 0 l 0 0 m 694 0 l 694 521 l 521 521 l 521 694 l 694 694 l 694 1215 l 868 1215 l 868 0 l 694 0 z "},"Ξ":{"ha":1042,"x_min":0,"x_max":868,"o":"m 0 0 l 0 174 l 868 174 l 868 0 l 0 0 m 174 521 l 174 694 l 694 694 l 694 521 l 174 521 m 0 1042 l 0 1215 l 868 1215 l 868 1042 l 0 1042 z "},"Ο":{"ha":1042,"x_min":0,"x_max":868,"o":"m 174 0 l 174 174 l 694 174 l 694 0 l 174 0 m 0 174 l 0 1042 l 174 1042 l 174 174 l 0 174 m 694 174 l 694 1042 l 868 1042 l 868 174 l 694 174 m 174 1042 l 174 1215 l 694 1215 l 694 1042 l 174 1042 z "},"Π":{"ha":1042,"x_min":0,"x_max":868,"o":"m 0 0 l 0 1215 l 868 1215 l 868 0 l 694 0 l 694 1042 l 174 1042 l 174 0 l 0 0 z "},"Ρ":{"ha":1042,"x_min":0,"x_max":868,"o":"m 694 868 l 694 1042 l 868 1042 l 868 868 l 694 868 m 0 0 l 0 1215 l 694 1215 l 694 1042 l 174 1042 l 174 868 l 694 868 l 694 694 l 174 694 l 174 0 l 0 0 z "},"Σ":{"ha":1042,"x_min":0,"x_max":868,"o":"m 0 0 l 0 347 l 174 347 l 174 174 l 868 174 l 868 0 l 0 0 m 174 347 l 174 521 l 347 521 l 347 347 l 174 347 m 347 521 l 347 694 l 521 694 l 521 521 l 347 521 m 174 694 l 174 868 l 347 868 l 347 694 l 174 694 m 0 868 l 0 1215 l 868 1215 l 868 1042 l 174 1042 l 174 868 l 0 868 z "},"Τ":{"ha":1042,"x_min":0,"x_max":868,"o":"m 347 0 l 347 1042 l 0 1042 l 0 1215 l 868 1215 l 868 1042 l 521 1042 l 521 0 l 347 0 z "},"Υ":{"ha":1042,"x_min":0,"x_max":868,"o":"m 347 0 l 347 868 l 521 868 l 521 0 l 347 0 m 174 868 l 174 1042 l 347 1042 l 347 868 l 174 868 m 521 868 l 521 1042 l 694 1042 l 694 868 l 521 868 m 0 1042 l 0 1215 l 174 1215 l 174 1042 l 0 1042 m 694 1042 l 694 1215 l 868 1215 l 868 1042 l 694 1042 z "},"Φ":{"ha":1042,"x_min":0,"x_max":868,"o":"m 0 347 l 0 868 l 174 868 l 174 347 l 0 347 m 694 347 l 694 868 l 868 868 l 868 347 l 694 347 m 347 0 l 347 174 l 174 174 l 174 347 l 347 347 l 347 868 l 174 868 l 174 1042 l 347 1042 l 347 1215 l 521 1215 l 521 1042 l 694 1042 l 694 868 l 521 868 l 521 347 l 694 347 l 694 174 l 521 174 l 521 0 l 347 0 z "},"Χ":{"ha":1042,"x_min":0,"x_max":868,"o":"m 0 0 l 0 521 l 174 521 l 174 0 l 0 0 m 694 0 l 694 521 l 868 521 l 868 0 l 694 0 m 174 521 l 174 694 l 347 694 l 347 521 l 174 521 m 521 521 l 521 694 l 694 694 l 694 521 l 521 521 m 347 694 l 347 868 l 521 868 l 521 694 l 347 694 m 174 868 l 174 1042 l 347 1042 l 347 868 l 174 868 m 521 868 l 521 1042 l 694 1042 l 694 868 l 521 868 m 0 1042 l 0 1215 l 174 1215 l 174 1042 l 0 1042 m 694 1042 l 694 1215 l 868 1215 l 868 1042 l 694 1042 z "},"Ψ":{"ha":1042,"x_min":0,"x_max":868,"o":"m 0 868 l 0 1215 l 174 1215 l 174 868 l 0 868 m 347 0 l 347 694 l 174 694 l 174 868 l 347 868 l 347 1215 l 521 1215 l 521 868 l 694 868 l 694 694 l 521 694 l 521 0 l 347 0 m 694 868 l 694 1215 l 868 1215 l 868 868 l 694 868 z "},"Ω":{"ha":1042,"x_min":0,"x_max":868,"o":"m 0 0 l 0 174 l 174 174 l 174 347 l 347 347 l 347 0 l 0 0 m 521 0 l 521 347 l 694 347 l 694 174 l 868 174 l 868 0 l 521 0 m 0 347 l 0 1042 l 174 1042 l 174 347 l 0 347 m 694 347 l 694 1042 l 868 1042 l 868 347 l 694 347 m 174 1042 l 174 1215 l 694 1215 l 694 1042 l 174 1042 z "},"ά":{"ha":1042,"x_min":0,"x_max":868,"o":"m 174 0 l 174 174 l 521 174 l 521 0 l 174 0 m 694 0 l 694 174 l 868 174 l 868 0 l 694 0 m 0 174 l 0 694 l 174 694 l 174 174 l 0 174 m 521 174 l 521 694 l 694 694 l 694 174 l 521 174 m 174 694 l 174 868 l 521 868 l 521 694 l 174 694 m 694 694 l 694 868 l 868 868 l 868 694 l 694 694 m 347 1042 l 347 1215 l 521 1215 l 521 1042 l 347 1042 m 521 1215 l 521 1389 l 694 1389 l 694 1215 l 521 1215 z "},"έ":{"ha":1042,"x_min":0,"x_max":868,"o":"m 174 0 l 174 174 l 868 174 l 868 0 l 174 0 m 0 174 l 0 347 l 174 347 l 174 174 l 0 174 m 174 347 l 174 521 l 521 521 l 521 347 l 174 347 m 0 521 l 0 694 l 174 694 l 174 521 l 0 521 m 174 694 l 174 868 l 868 868 l 868 694 l 174 694 m 347 1042 l 347 1215 l 521 1215 l 521 1042 l 347 1042 m 521 1215 l 521 1389 l 694 1389 l 694 1215 l 521 1215 z "},"ή":{"ha":1042,"x_min":0,"x_max":868,"o":"m 694 -174 l 694 694 l 868 694 l 868 -174 l 694 -174 m 0 0 l 0 868 l 694 868 l 694 694 l 174 694 l 174 0 l 0 0 m 347 1042 l 347 1215 l 521 1215 l 521 1042 l 347 1042 m 521 1215 l 521 1389 l 694 1389 l 694 1215 l 521 1215 z "},"ί":{"ha":521,"x_min":0,"x_max":347,"o":"m 174 0 l 174 174 l 347 174 l 347 0 l 174 0 m 0 174 l 0 868 l 174 868 l 174 174 l 0 174 m 0 1042 l 0 1215 l 174 1215 l 174 1042 l 0 1042 m 174 1215 l 174 1389 l 347 1389 l 347 1215 l 174 1215 z "},"ΰ":{"ha":1042,"x_min":0,"x_max":868,"o":"m 174 0 l 174 174 l 694 174 l 694 0 l 174 0 m 694 174 l 694 694 l 868 694 l 868 174 l 694 174 m 0 174 l 0 868 l 174 868 l 174 174 l 0 174 m 521 694 l 521 868 l 694 868 l 694 694 l 521 694 m 0 1042 l 0 1215 l 174 1215 l 174 1042 l 0 1042 m 694 1042 l 694 1215 l 868 1215 l 868 1042 l 694 1042 m 347 1042 l 347 1389 l 521 1389 l 521 1042 l 347 1042 z "},"α":{"ha":1042,"x_min":0,"x_max":868,"o":"m 174 0 l 174 174 l 521 174 l 521 0 l 174 0 m 694 0 l 694 174 l 868 174 l 868 0 l 694 0 m 0 174 l 0 694 l 174 694 l 174 174 l 0 174 m 521 174 l 521 694 l 694 694 l 694 174 l 521 174 m 174 694 l 174 868 l 521 868 l 521 694 l 174 694 m 694 694 l 694 868 l 868 868 l 868 694 l 694 694 z "},"β":{"ha":1042,"x_min":0,"x_max":868,"o":"m 694 174 l 694 521 l 868 521 l 868 174 l 694 174 m 521 521 l 521 694 l 694 694 l 694 521 l 521 521 m 347 694 l 347 868 l 521 868 l 521 694 l 347 694 m 0 -174 l 0 1042 l 174 1042 l 174 174 l 694 174 l 694 0 l 174 0 l 174 -174 l 0 -174 m 521 868 l 521 1042 l 694 1042 l 694 868 l 521 868 m 174 1042 l 174 1215 l 521 1215 l 521 1042 l 174 1042 z "},"γ":{"ha":1042,"x_min":0,"x_max":868,"o":"m 347 -174 l 347 0 l 521 0 l 521 -174 l 347 -174 m 174 0 l 174 347 l 347 347 l 347 0 l 174 0 m 521 0 l 521 347 l 694 347 l 694 0 l 521 0 m 347 347 l 347 521 l 521 521 l 521 347 l 347 347 m 174 521 l 174 694 l 347 694 l 347 521 l 174 521 m 521 521 l 521 694 l 694 694 l 694 521 l 521 521 m 0 694 l 0 868 l 174 868 l 174 694 l 0 694 m 694 694 l 694 868 l 868 868 l 868 694 l 694 694 z "},"δ":{"ha":1042,"x_min":0,"x_max":868,"o":"m 174 0 l 174 174 l 694 174 l 694 0 l 174 0 m 0 174 l 0 521 l 174 521 l 174 174 l 0 174 m 694 174 l 694 521 l 868 521 l 868 174 l 694 174 m 174 521 l 174 694 l 347 694 l 347 521 l 174 521 m 521 521 l 521 694 l 694 694 l 694 521 l 521 521 m 347 694 l 347 868 l 521 868 l 521 694 l 347 694 m 174 868 l 174 1042 l 347 1042 l 347 868 l 174 868 m 347 1042 l 347 1215 l 694 1215 l 694 1042 l 347 1042 z "},"ε":{"ha":1042,"x_min":0,"x_max":868,"o":"m 174 0 l 174 174 l 868 174 l 868 0 l 174 0 m 0 174 l 0 347 l 174 347 l 174 174 l 0 174 m 174 347 l 174 521 l 521 521 l 521 347 l 174 347 m 0 521 l 0 694 l 174 694 l 174 521 l 0 521 m 174 694 l 174 868 l 868 868 l 868 694 l 174 694 z "},"ζ":{"ha":1042,"x_min":0,"x_max":868,"o":"m 521 -174 l 521 0 l 694 0 l 694 -174 l 521 -174 m 694 0 l 694 174 l 868 174 l 868 0 l 694 0 m 347 174 l 347 347 l 694 347 l 694 174 l 347 174 m 174 347 l 174 521 l 347 521 l 347 347 l 174 347 m 347 521 l 347 694 l 521 694 l 521 521 l 347 521 m 521 694 l 521 868 l 694 868 l 694 694 l 521 694 m 694 868 l 694 1042 l 868 1042 l 868 868 l 694 868 m 0 1042 l 0 1215 l 694 1215 l 694 1042 l 0 1042 z "},"η":{"ha":1042,"x_min":0,"x_max":868,"o":"m 694 -174 l 694 694 l 868 694 l 868 -174 l 694 -174 m 0 0 l 0 868 l 694 868 l 694 694 l 174 694 l 174 0 l 0 0 z "},"θ":{"ha":1042,"x_min":0,"x_max":868,"o":"m 174 0 l 174 174 l 694 174 l 694 0 l 174 0 m 0 174 l 0 1042 l 174 1042 l 174 694 l 694 694 l 694 1042 l 868 1042 l 868 174 l 694 174 l 694 521 l 174 521 l 174 174 l 0 174 m 174 1042 l 174 1215 l 694 1215 l 694 1042 l 174 1042 z "},"ι":{"ha":521,"x_min":0,"x_max":347,"o":"m 174 0 l 174 174 l 347 174 l 347 0 l 174 0 m 0 174 l 0 868 l 174 868 l 174 174 l 0 174 z "},"κ":{"ha":868,"x_min":0,"x_max":694,"o":"m 521 0 l 521 174 l 694 174 l 694 0 l 521 0 m 347 174 l 347 347 l 521 347 l 521 174 l 347 174 m 347 521 l 347 694 l 521 694 l 521 521 l 347 521 m 0 0 l 0 868 l 174 868 l 174 521 l 347 521 l 347 347 l 174 347 l 174 0 l 0 0 m 521 694 l 521 868 l 694 868 l 694 694 l 521 694 z "},"λ":{"ha":1042,"x_min":0,"x_max":868,"o":"m 0 0 l 0 347 l 174 347 l 174 0 l 0 0 m 694 0 l 694 347 l 868 347 l 868 0 l 694 0 m 174 347 l 174 694 l 347 694 l 347 347 l 174 347 m 521 347 l 521 694 l 694 694 l 694 347 l 521 347 m 347 694 l 347 1042 l 521 1042 l 521 694 l 347 694 m 0 1042 l 0 1215 l 347 1215 l 347 1042 l 0 1042 z "},"μ":{"ha":1042,"x_min":0,"x_max":868,"o":"m 0 -174 l 0 868 l 174 868 l 174 174 l 694 174 l 694 0 l 174 0 l 174 -174 l 0 -174 m 694 174 l 694 868 l 868 868 l 868 174 l 694 174 z "},"ν":{"ha":1042,"x_min":0,"x_max":868,"o":"m 347 0 l 347 174 l 521 174 l 521 0 l 347 0 m 174 174 l 174 521 l 347 521 l 347 174 l 174 174 m 521 174 l 521 521 l 694 521 l 694 174 l 521 174 m 0 521 l 0 868 l 174 868 l 174 521 l 0 521 m 694 521 l 694 868 l 868 868 l 868 521 l 694 521 z "},"ξ":{"ha":1042,"x_min":0,"x_max":868,"o":"m 521 -174 l 521 0 l 694 0 l 694 -174 l 521 -174 m 694 0 l 694 174 l 868 174 l 868 0 l 694 0 m 174 174 l 174 347 l 694 347 l 694 174 l 174 174 m 0 347 l 0 521 l 174 521 l 174 347 l 0 347 m 174 521 l 174 694 l 694 694 l 694 521 l 174 521 m 0 694 l 0 868 l 174 868 l 174 694 l 0 694 m 174 868 l 174 1042 l 694 1042 l 694 868 l 174 868 m 0 1042 l 0 1215 l 174 1215 l 174 1042 l 0 1042 z "},"ο":{"ha":1042,"x_min":0,"x_max":868,"o":"m 174 0 l 174 174 l 694 174 l 694 0 l 174 0 m 0 174 l 0 694 l 174 694 l 174 174 l 0 174 m 694 174 l 694 694 l 868 694 l 868 174 l 694 174 m 174 694 l 174 868 l 694 868 l 694 694 l 174 694 z "},"π":{"ha":1042,"x_min":0,"x_max":868,"o":"m 174 0 l 174 694 l 0 694 l 0 868 l 868 868 l 868 694 l 694 694 l 694 0 l 521 0 l 521 694 l 347 694 l 347 0 l 174 0 z "},"ρ":{"ha":1042,"x_min":0,"x_max":868,"o":"m 0 -174 l 0 694 l 174 694 l 174 347 l 694 347 l 694 174 l 174 174 l 174 -174 l 0 -174 m 694 347 l 694 694 l 868 694 l 868 347 l 694 347 m 174 694 l 174 868 l 694 868 l 694 694 l 174 694 z "},"ς":{"ha":1042,"x_min":0,"x_max":868,"o":"m 521 -174 l 521 0 l 694 0 l 694 -174 l 521 -174 m 694 0 l 694 174 l 868 174 l 868 0 l 694 0 m 174 174 l 174 347 l 694 347 l 694 174 l 174 174 m 0 347 l 0 694 l 174 694 l 174 347 l 0 347 m 694 521 l 694 694 l 868 694 l 868 521 l 694 521 m 174 694 l 174 868 l 694 868 l 694 694 l 174 694 z "},"σ":{"ha":1215,"x_min":0,"x_max":1042,"o":"m 174 0 l 174 174 l 694 174 l 694 0 l 174 0 m 0 174 l 0 694 l 174 694 l 174 174 l 0 174 m 694 174 l 694 694 l 174 694 l 174 868 l 1042 868 l 1042 694 l 868 694 l 868 174 l 694 174 z "},"τ":{"ha":1042,"x_min":0,"x_max":868,"o":"m 521 0 l 521 174 l 694 174 l 694 0 l 521 0 m 347 174 l 347 694 l 0 694 l 0 868 l 868 868 l 868 694 l 521 694 l 521 174 l 347 174 z "},"υ":{"ha":1042,"x_min":0,"x_max":868,"o":"m 174 0 l 174 174 l 694 174 l 694 0 l 174 0 m 694 174 l 694 694 l 868 694 l 868 174 l 694 174 m 0 174 l 0 868 l 174 868 l 174 174 l 0 174 m 521 694 l 521 868 l 694 868 l 694 694 l 521 694 z "},"φ":{"ha":1042,"x_min":0,"x_max":868,"o":"m 0 174 l 0 694 l 174 694 l 174 174 l 0 174 m 347 -174 l 347 0 l 174 0 l 174 174 l 347 174 l 347 694 l 521 694 l 521 174 l 694 174 l 694 0 l 521 0 l 521 -174 l 347 -174 m 694 174 l 694 694 l 868 694 l 868 174 l 694 174 m 521 694 l 521 868 l 694 868 l 694 694 l 521 694 z "},"χ":{"ha":1042,"x_min":0,"x_max":868,"o":"m 0 -174 l 0 174 l 174 174 l 174 -174 l 0 -174 m 694 -174 l 694 174 l 868 174 l 868 -174 l 694 -174 m 174 174 l 174 347 l 347 347 l 347 174 l 174 174 m 521 174 l 521 347 l 694 347 l 694 174 l 521 174 m 347 347 l 347 521 l 521 521 l 521 347 l 347 347 m 174 521 l 174 694 l 347 694 l 347 521 l 174 521 m 521 521 l 521 694 l 694 694 l 694 521 l 521 521 m 0 694 l 0 868 l 174 868 l 174 694 l 0 694 m 694 694 l 694 868 l 868 868 l 868 694 l 694 694 z "},"ψ":{"ha":1042,"x_min":0,"x_max":868,"o":"m 0 347 l 0 868 l 174 868 l 174 347 l 0 347 m 347 -174 l 347 174 l 174 174 l 174 347 l 347 347 l 347 868 l 521 868 l 521 347 l 694 347 l 694 174 l 521 174 l 521 -174 l 347 -174 m 694 347 l 694 868 l 868 868 l 868 347 l 694 347 z "},"ω":{"ha":1389,"x_min":0,"x_max":1215,"o":"m 174 0 l 174 174 l 521 174 l 521 0 l 174 0 m 694 0 l 694 174 l 1042 174 l 1042 0 l 694 0 m 521 174 l 521 521 l 694 521 l 694 174 l 521 174 m 0 174 l 0 694 l 174 694 l 174 174 l 0 174 m 1042 174 l 1042 694 l 1215 694 l 1215 174 l 1042 174 m 174 694 l 174 868 l 347 868 l 347 694 l 174 694 m 868 694 l 868 868 l 1042 868 l 1042 694 l 868 694 z "},"ϊ":{"ha":694,"x_min":0,"x_max":521,"o":"m 347 0 l 347 174 l 521 174 l 521 0 l 347 0 m 174 174 l 174 868 l 347 868 l 347 174 l 174 174 m 0 1042 l 0 1215 l 174 1215 l 174 1042 l 0 1042 m 347 1042 l 347 1215 l 521 1215 l 521 1042 l 347 1042 z "},"ϋ":{"ha":1042,"x_min":0,"x_max":868,"o":"m 174 0 l 174 174 l 694 174 l 694 0 l 174 0 m 694 174 l 694 694 l 868 694 l 868 174 l 694 174 m 0 174 l 0 868 l 174 868 l 174 174 l 0 174 m 521 694 l 521 868 l 694 868 l 694 694 l 521 694 m 174 1042 l 174 1215 l 347 1215 l 347 1042 l 174 1042 m 521 1042 l 521 1215 l 694 1215 l 694 1042 l 521 1042 z "},"ό":{"ha":1042,"x_min":0,"x_max":868,"o":"m 174 0 l 174 174 l 694 174 l 694 0 l 174 0 m 0 174 l 0 694 l 174 694 l 174 174 l 0 174 m 694 174 l 694 694 l 868 694 l 868 174 l 694 174 m 174 694 l 174 868 l 694 868 l 694 694 l 174 694 m 347 1042 l 347 1215 l 521 1215 l 521 1042 l 347 1042 m 521 1215 l 521 1389 l 694 1389 l 694 1215 l 521 1215 z "},"ύ":{"ha":1042,"x_min":0,"x_max":868,"o":"m 174 0 l 174 174 l 694 174 l 694 0 l 174 0 m 694 174 l 694 694 l 868 694 l 868 174 l 694 174 m 0 174 l 0 868 l 174 868 l 174 174 l 0 174 m 521 694 l 521 868 l 694 868 l 694 694 l 521 694 m 347 1042 l 347 1215 l 521 1215 l 521 1042 l 347 1042 m 521 1215 l 521 1389 l 694 1389 l 694 1215 l 521 1215 z "},"ώ":{"ha":1389,"x_min":0,"x_max":1215,"o":"m 174 0 l 174 174 l 521 174 l 521 0 l 174 0 m 694 0 l 694 174 l 1042 174 l 1042 0 l 694 0 m 521 174 l 521 521 l 694 521 l 694 174 l 521 174 m 0 174 l 0 694 l 174 694 l 174 174 l 0 174 m 1042 174 l 1042 694 l 1215 694 l 1215 174 l 1042 174 m 174 694 l 174 868 l 347 868 l 347 694 l 174 694 m 868 694 l 868 868 l 1042 868 l 1042 694 l 868 694 m 521 868 l 521 1042 l 694 1042 l 694 868 l 521 868 m 694 1042 l 694 1215 l 868 1215 l 868 1042 l 694 1042 z "},"Ѐ":{"ha":1042,"x_min":0,"x_max":868,"o":"m 0 0 l 0 1215 l 868 1215 l 868 1042 l 174 1042 l 174 868 l 521 868 l 521 694 l 174 694 l 174 174 l 868 174 l 868 0 l 0 0 m 347 1389 l 347 1563 l 521 1563 l 521 1389 l 347 1389 m 174 1563 l 174 1736 l 347 1736 l 347 1563 l 174 1563 z "},"Ё":{"ha":1042,"x_min":0,"x_max":868,"o":"m 0 0 l 0 1215 l 868 1215 l 868 1042 l 174 1042 l 174 868 l 521 868 l 521 694 l 174 694 l 174 174 l 868 174 l 868 0 l 0 0 m 174 1389 l 174 1563 l 347 1563 l 347 1389 l 174 1389 m 521 1389 l 521 1563 l 694 1563 l 694 1389 l 521 1389 z "},"Ђ":{"ha":1389,"x_min":0,"x_max":1215,"o":"m 868 0 l 868 174 l 1042 174 l 1042 0 l 868 0 m 1042 174 l 1042 694 l 1215 694 l 1215 174 l 1042 174 m 694 694 l 694 868 l 1042 868 l 1042 694 l 694 694 m 347 0 l 347 1042 l 0 1042 l 0 1215 l 868 1215 l 868 1042 l 521 1042 l 521 694 l 694 694 l 694 521 l 521 521 l 521 0 l 347 0 z "},"Ѓ":{"ha":1042,"x_min":0,"x_max":868,"o":"m 0 0 l 0 1215 l 868 1215 l 868 1042 l 174 1042 l 174 0 l 0 0 m 347 1389 l 347 1563 l 521 1563 l 521 1389 l 347 1389 m 521 1563 l 521 1736 l 694 1736 l 694 1563 l 521 1563 z "},"Є":{"ha":1042,"x_min":0,"x_max":868,"o":"m 174 0 l 174 174 l 694 174 l 694 0 l 174 0 m 694 174 l 694 347 l 868 347 l 868 174 l 694 174 m 0 174 l 0 1042 l 174 1042 l 174 694 l 521 694 l 521 521 l 174 521 l 174 174 l 0 174 m 694 868 l 694 1042 l 868 1042 l 868 868 l 694 868 m 174 1042 l 174 1215 l 694 1215 l 694 1042 l 174 1042 z "},"Ѕ":{"ha":1042,"x_min":0,"x_max":868,"o":"m 174 0 l 174 174 l 694 174 l 694 0 l 174 0 m 0 174 l 0 347 l 174 347 l 174 174 l 0 174 m 694 174 l 694 694 l 868 694 l 868 174 l 694 174 m 174 694 l 174 868 l 694 868 l 694 694 l 174 694 m 0 868 l 0 1042 l 174 1042 l 174 868 l 0 868 m 174 1042 l 174 1215 l 868 1215 l 868 1042 l 174 1042 z "},"І":{"ha":694,"x_min":0,"x_max":521,"o":"m 0 0 l 0 174 l 174 174 l 174 1042 l 0 1042 l 0 1215 l 521 1215 l 521 1042 l 347 1042 l 347 174 l 521 174 l 521 0 l 0 0 z "},"Ї":{"ha":694,"x_min":0,"x_max":521,"o":"m 0 0 l 0 174 l 174 174 l 174 1042 l 0 1042 l 0 1215 l 521 1215 l 521 1042 l 347 1042 l 347 174 l 521 174 l 521 0 l 0 0 m 0 1389 l 0 1563 l 174 1563 l 174 1389 l 0 1389 m 347 1389 l 347 1563 l 521 1563 l 521 1389 l 347 1389 z "},"Ј":{"ha":1042,"x_min":0,"x_max":868,"o":"m 174 0 l 174 174 l 694 174 l 694 0 l 174 0 m 0 174 l 0 347 l 174 347 l 174 174 l 0 174 m 694 174 l 694 1215 l 868 1215 l 868 174 l 694 174 z "},"Љ":{"ha":1389,"x_min":0,"x_max":1215,"o":"m 0 0 l 0 174 l 174 174 l 174 0 l 0 0 m 1042 174 l 1042 694 l 1215 694 l 1215 174 l 1042 174 m 521 0 l 521 1042 l 347 1042 l 347 174 l 174 174 l 174 1215 l 694 1215 l 694 868 l 1042 868 l 1042 694 l 694 694 l 694 174 l 1042 174 l 1042 0 l 521 0 z "},"Њ":{"ha":1389,"x_min":0,"x_max":1215,"o":"m 1042 174 l 1042 694 l 1215 694 l 1215 174 l 1042 174 m 0 0 l 0 1215 l 174 1215 l 174 868 l 521 868 l 521 1215 l 694 1215 l 694 868 l 1042 868 l 1042 694 l 694 694 l 694 174 l 1042 174 l 1042 0 l 521 0 l 521 694 l 174 694 l 174 0 l 0 0 z "},"Ћ":{"ha":1215,"x_min":0,"x_max":1042,"o":"m 868 0 l 868 521 l 1042 521 l 1042 0 l 868 0 m 521 521 l 521 694 l 868 694 l 868 521 l 521 521 m 174 0 l 174 868 l 0 868 l 0 1042 l 174 1042 l 174 1215 l 347 1215 l 347 1042 l 868 1042 l 868 868 l 347 868 l 347 521 l 521 521 l 521 347 l 347 347 l 347 0 l 174 0 z "},"Ќ":{"ha":1042,"x_min":0,"x_max":868,"o":"m 694 0 l 694 521 l 868 521 l 868 0 l 694 0 m 521 521 l 521 694 l 694 694 l 694 521 l 521 521 m 521 868 l 521 1042 l 694 1042 l 694 868 l 521 868 m 0 0 l 0 1215 l 174 1215 l 174 868 l 521 868 l 521 694 l 174 694 l 174 0 l 0 0 m 694 1042 l 694 1215 l 868 1215 l 868 1042 l 694 1042 m 347 1389 l 347 1563 l 521 1563 l 521 1389 l 347 1389 m 521 1563 l 521 1736 l 694 1736 l 694 1563 l 521 1563 z "},"Ѝ":{"ha":1042,"x_min":0,"x_max":868,"o":"m 347 694 l 347 868 l 521 868 l 521 694 l 347 694 m 0 0 l 0 1215 l 174 1215 l 174 694 l 347 694 l 347 521 l 174 521 l 174 0 l 0 0 m 694 0 l 694 868 l 521 868 l 521 1042 l 694 1042 l 694 1215 l 868 1215 l 868 0 l 694 0 m 347 1389 l 347 1563 l 521 1563 l 521 1389 l 347 1389 m 174 1563 l 174 1736 l 347 1736 l 347 1563 l 174 1563 z "},"Ў":{"ha":1042,"x_min":0,"x_max":868,"o":"m 0 0 l 0 174 l 694 174 l 694 0 l 0 0 m 0 694 l 0 1215 l 174 1215 l 174 694 l 0 694 m 694 174 l 694 521 l 174 521 l 174 694 l 694 694 l 694 1215 l 868 1215 l 868 174 l 694 174 m 347 1389 l 347 1563 l 694 1563 l 694 1389 l 347 1389 m 174 1563 l 174 1736 l 347 1736 l 347 1563 l 174 1563 m 694 1563 l 694 1736 l 868 1736 l 868 1563 l 694 1563 z "},"Џ":{"ha":1042,"x_min":0,"x_max":868,"o":"m 347 -347 l 347 0 l 0 0 l 0 1215 l 174 1215 l 174 174 l 694 174 l 694 1215 l 868 1215 l 868 0 l 521 0 l 521 -347 l 347 -347 z "},"А":{"ha":1042,"x_min":0,"x_max":868,"o":"m 0 0 l 0 1042 l 174 1042 l 174 868 l 694 868 l 694 1042 l 868 1042 l 868 0 l 694 0 l 694 694 l 174 694 l 174 0 l 0 0 m 174 1042 l 174 1215 l 694 1215 l 694 1042 l 174 1042 z "},"Б":{"ha":1042,"x_min":0,"x_max":868,"o":"m 694 174 l 694 694 l 868 694 l 868 174 l 694 174 m 0 0 l 0 1215 l 868 1215 l 868 1042 l 174 1042 l 174 868 l 694 868 l 694 694 l 174 694 l 174 174 l 694 174 l 694 0 l 0 0 z "},"В":{"ha":1042,"x_min":0,"x_max":868,"o":"m 694 174 l 694 694 l 868 694 l 868 174 l 694 174 m 694 868 l 694 1042 l 868 1042 l 868 868 l 694 868 m 0 0 l 0 1215 l 694 1215 l 694 1042 l 174 1042 l 174 868 l 694 868 l 694 694 l 174 694 l 174 174 l 694 174 l 694 0 l 0 0 z "},"Г":{"ha":1042,"x_min":0,"x_max":868,"o":"m 0 0 l 0 1215 l 868 1215 l 868 1042 l 174 1042 l 174 0 l 0 0 z "},"Д":{"ha":1215,"x_min":0,"x_max":1042,"o":"m 0 -174 l 0 174 l 174 174 l 174 694 l 347 694 l 347 174 l 694 174 l 694 1042 l 521 1042 l 521 694 l 347 694 l 347 1215 l 868 1215 l 868 174 l 1042 174 l 1042 -174 l 868 -174 l 868 0 l 174 0 l 174 -174 l 0 -174 z "},"Е":{"ha":1042,"x_min":0,"x_max":868,"o":"m 0 0 l 0 1215 l 868 1215 l 868 1042 l 174 1042 l 174 868 l 521 868 l 521 694 l 174 694 l 174 174 l 868 174 l 868 0 l 0 0 z "},"Ж":{"ha":1389,"x_min":0,"x_max":1215,"o":"m 0 0 l 0 521 l 174 521 l 174 0 l 0 0 m 1042 0 l 1042 521 l 1215 521 l 1215 0 l 1042 0 m 174 521 l 174 694 l 347 694 l 347 521 l 174 521 m 868 521 l 868 694 l 1042 694 l 1042 521 l 868 521 m 174 868 l 174 1042 l 347 1042 l 347 868 l 174 868 m 868 868 l 868 1042 l 1042 1042 l 1042 868 l 868 868 m 0 1042 l 0 1215 l 174 1215 l 174 1042 l 0 1042 m 521 0 l 521 694 l 347 694 l 347 868 l 521 868 l 521 1215 l 694 1215 l 694 868 l 868 868 l 868 694 l 694 694 l 694 0 l 521 0 m 1042 1042 l 1042 1215 l 1215 1215 l 1215 1042 l 1042 1042 z "},"З":{"ha":1042,"x_min":0,"x_max":868,"o":"m 174 0 l 174 174 l 694 174 l 694 0 l 174 0 m 0 174 l 0 347 l 174 347 l 174 174 l 0 174 m 694 174 l 694 694 l 868 694 l 868 174 l 694 174 m 347 694 l 347 868 l 694 868 l 694 694 l 347 694 m 0 868 l 0 1042 l 174 1042 l 174 868 l 0 868 m 694 868 l 694 1042 l 868 1042 l 868 868 l 694 868 m 174 1042 l 174 1215 l 694 1215 l 694 1042 l 174 1042 z "},"И":{"ha":1042,"x_min":0,"x_max":868,"o":"m 347 694 l 347 868 l 521 868 l 521 694 l 347 694 m 0 0 l 0 1215 l 174 1215 l 174 694 l 347 694 l 347 521 l 174 521 l 174 0 l 0 0 m 694 0 l 694 868 l 521 868 l 521 1042 l 694 1042 l 694 1215 l 868 1215 l 868 0 l 694 0 z "},"Й":{"ha":1042,"x_min":0,"x_max":868,"o":"m 347 694 l 347 868 l 521 868 l 521 694 l 347 694 m 0 0 l 0 1215 l 174 1215 l 174 694 l 347 694 l 347 521 l 174 521 l 174 0 l 0 0 m 694 0 l 694 868 l 521 868 l 521 1042 l 694 1042 l 694 1215 l 868 1215 l 868 0 l 694 0 m 347 1389 l 347 1563 l 694 1563 l 694 1389 l 347 1389 m 174 1563 l 174 1736 l 347 1736 l 347 1563 l 174 1563 m 694 1563 l 694 1736 l 868 1736 l 868 1563 l 694 1563 z "},"К":{"ha":1042,"x_min":0,"x_max":868,"o":"m 694 0 l 694 521 l 868 521 l 868 0 l 694 0 m 521 521 l 521 694 l 694 694 l 694 521 l 521 521 m 521 868 l 521 1042 l 694 1042 l 694 868 l 521 868 m 0 0 l 0 1215 l 174 1215 l 174 868 l 521 868 l 521 694 l 174 694 l 174 0 l 0 0 m 694 1042 l 694 1215 l 868 1215 l 868 1042 l 694 1042 z "},"Л":{"ha":1042,"x_min":0,"x_max":868,"o":"m 0 0 l 0 174 l 174 174 l 174 0 l 0 0 m 694 0 l 694 1042 l 347 1042 l 347 174 l 174 174 l 174 1215 l 868 1215 l 868 0 l 694 0 z "},"М":{"ha":1042,"x_min":0,"x_max":868,"o":"m 347 694 l 347 868 l 521 868 l 521 694 l 347 694 m 0 0 l 0 1215 l 174 1215 l 174 1042 l 347 1042 l 347 868 l 174 868 l 174 0 l 0 0 m 694 0 l 694 868 l 521 868 l 521 1042 l 694 1042 l 694 1215 l 868 1215 l 868 0 l 694 0 z "},"Н":{"ha":1042,"x_min":0,"x_max":868,"o":"m 0 0 l 0 1215 l 174 1215 l 174 868 l 694 868 l 694 1215 l 868 1215 l 868 0 l 694 0 l 694 694 l 174 694 l 174 0 l 0 0 z "},"О":{"ha":1042,"x_min":0,"x_max":868,"o":"m 174 0 l 174 174 l 694 174 l 694 0 l 174 0 m 0 174 l 0 1042 l 174 1042 l 174 174 l 0 174 m 694 174 l 694 1042 l 868 1042 l 868 174 l 694 174 m 174 1042 l 174 1215 l 694 1215 l 694 1042 l 174 1042 z "},"П":{"ha":1042,"x_min":0,"x_max":868,"o":"m 0 0 l 0 1215 l 868 1215 l 868 0 l 694 0 l 694 1042 l 174 1042 l 174 0 l 0 0 z "},"Р":{"ha":1042,"x_min":0,"x_max":868,"o":"m 694 868 l 694 1042 l 868 1042 l 868 868 l 694 868 m 0 0 l 0 1215 l 694 1215 l 694 1042 l 174 1042 l 174 868 l 694 868 l 694 694 l 174 694 l 174 0 l 0 0 z "},"С":{"ha":1042,"x_min":0,"x_max":868,"o":"m 174 0 l 174 174 l 694 174 l 694 0 l 174 0 m 694 174 l 694 347 l 868 347 l 868 174 l 694 174 m 0 174 l 0 1042 l 174 1042 l 174 174 l 0 174 m 694 868 l 694 1042 l 868 1042 l 868 868 l 694 868 m 174 1042 l 174 1215 l 694 1215 l 694 1042 l 174 1042 z "},"Т":{"ha":1042,"x_min":0,"x_max":868,"o":"m 347 0 l 347 1042 l 0 1042 l 0 1215 l 868 1215 l 868 1042 l 521 1042 l 521 0 l 347 0 z "},"У":{"ha":1042,"x_min":0,"x_max":868,"o":"m 0 0 l 0 174 l 694 174 l 694 0 l 0 0 m 0 694 l 0 1215 l 174 1215 l 174 694 l 0 694 m 694 174 l 694 521 l 174 521 l 174 694 l 694 694 l 694 1215 l 868 1215 l 868 174 l 694 174 z "},"Ф":{"ha":1389,"x_min":0,"x_max":1215,"o":"m 0 174 l 0 868 l 174 868 l 174 174 l 0 174 m 1042 174 l 1042 868 l 1215 868 l 1215 174 l 1042 174 m 521 -174 l 521 0 l 174 0 l 174 174 l 521 174 l 521 868 l 174 868 l 174 1042 l 521 1042 l 521 1215 l 694 1215 l 694 1042 l 1042 1042 l 1042 868 l 694 868 l 694 174 l 1042 174 l 1042 0 l 694 0 l 694 -174 l 521 -174 z "},"Х":{"ha":1042,"x_min":0,"x_max":868,"o":"m 0 0 l 0 521 l 174 521 l 174 0 l 0 0 m 694 0 l 694 521 l 868 521 l 868 0 l 694 0 m 174 521 l 174 694 l 347 694 l 347 521 l 174 521 m 521 521 l 521 694 l 694 694 l 694 521 l 521 521 m 347 694 l 347 868 l 521 868 l 521 694 l 347 694 m 174 868 l 174 1042 l 347 1042 l 347 868 l 174 868 m 521 868 l 521 1042 l 694 1042 l 694 868 l 521 868 m 0 1042 l 0 1215 l 174 1215 l 174 1042 l 0 1042 m 694 1042 l 694 1215 l 868 1215 l 868 1042 l 694 1042 z "},"Ц":{"ha":1215,"x_min":0,"x_max":1042,"o":"m 868 -174 l 868 0 l 0 0 l 0 1215 l 174 1215 l 174 174 l 694 174 l 694 1215 l 868 1215 l 868 174 l 1042 174 l 1042 -174 l 868 -174 z "},"Ч":{"ha":1042,"x_min":0,"x_max":868,"o":"m 0 694 l 0 1215 l 174 1215 l 174 694 l 0 694 m 694 0 l 694 521 l 174 521 l 174 694 l 694 694 l 694 1215 l 868 1215 l 868 0 l 694 0 z "},"Ш":{"ha":1389,"x_min":0,"x_max":1215,"o":"m 0 0 l 0 1215 l 174 1215 l 174 174 l 521 174 l 521 1215 l 694 1215 l 694 174 l 1042 174 l 1042 1215 l 1215 1215 l 1215 0 l 0 0 z "},"Щ":{"ha":1563,"x_min":0,"x_max":1389,"o":"m 1215 -174 l 1215 0 l 0 0 l 0 1215 l 174 1215 l 174 174 l 521 174 l 521 1215 l 694 1215 l 694 174 l 1042 174 l 1042 1215 l 1215 1215 l 1215 174 l 1389 174 l 1389 -174 l 1215 -174 z "},"Ъ":{"ha":1215,"x_min":0,"x_max":1042,"o":"m 868 174 l 868 521 l 1042 521 l 1042 174 l 868 174 m 174 0 l 174 1042 l 0 1042 l 0 1215 l 347 1215 l 347 694 l 868 694 l 868 521 l 347 521 l 347 174 l 868 174 l 868 0 l 174 0 z "},"Ы":{"ha":1389,"x_min":0,"x_max":1215,"o":"m 694 174 l 694 521 l 868 521 l 868 174 l 694 174 m 0 0 l 0 1215 l 174 1215 l 174 694 l 694 694 l 694 521 l 174 521 l 174 174 l 694 174 l 694 0 l 0 0 m 1042 0 l 1042 1215 l 1215 1215 l 1215 0 l 1042 0 z "},"Ь":{"ha":1042,"x_min":0,"x_max":868,"o":"m 694 174 l 694 521 l 868 521 l 868 174 l 694 174 m 0 0 l 0 1215 l 174 1215 l 174 694 l 694 694 l 694 521 l 174 521 l 174 174 l 694 174 l 694 0 l 0 0 z "},"Э":{"ha":1042,"x_min":0,"x_max":868,"o":"m 174 0 l 174 174 l 694 174 l 694 0 l 174 0 m 0 174 l 0 347 l 174 347 l 174 174 l 0 174 m 0 868 l 0 1042 l 174 1042 l 174 868 l 0 868 m 694 174 l 694 521 l 347 521 l 347 694 l 694 694 l 694 1042 l 868 1042 l 868 174 l 694 174 m 174 1042 l 174 1215 l 694 1215 l 694 1042 l 174 1042 z "},"Ю":{"ha":1389,"x_min":0,"x_max":1215,"o":"m 521 0 l 521 174 l 1042 174 l 1042 0 l 521 0 m 1042 174 l 1042 1042 l 1215 1042 l 1215 174 l 1042 174 m 0 0 l 0 1215 l 174 1215 l 174 694 l 347 694 l 347 1042 l 521 1042 l 521 174 l 347 174 l 347 521 l 174 521 l 174 0 l 0 0 m 521 1042 l 521 1215 l 1042 1215 l 1042 1042 l 521 1042 z "},"Я":{"ha":1042,"x_min":0,"x_max":868,"o":"m 0 0 l 0 694 l 174 694 l 174 0 l 0 0 m 0 868 l 0 1042 l 174 1042 l 174 868 l 0 868 m 694 0 l 694 694 l 174 694 l 174 868 l 694 868 l 694 1042 l 174 1042 l 174 1215 l 868 1215 l 868 0 l 694 0 z "},"а":{"ha":1042,"x_min":0,"x_max":868,"o":"m 0 174 l 0 347 l 174 347 l 174 174 l 0 174 m 174 0 l 174 174 l 694 174 l 694 347 l 174 347 l 174 521 l 694 521 l 694 694 l 868 694 l 868 0 l 174 0 m 174 694 l 174 868 l 694 868 l 694 694 l 174 694 z "},"б":{"ha":1042,"x_min":0,"x_max":868,"o":"m 174 0 l 174 174 l 694 174 l 694 0 l 174 0 m 694 174 l 694 694 l 868 694 l 868 174 l 694 174 m 0 174 l 0 1042 l 174 1042 l 174 868 l 694 868 l 694 694 l 174 694 l 174 174 l 0 174 m 174 1042 l 174 1215 l 868 1215 l 868 1042 l 174 1042 z "},"в":{"ha":1042,"x_min":0,"x_max":868,"o":"m 694 174 l 694 347 l 868 347 l 868 174 l 694 174 m 694 521 l 694 694 l 868 694 l 868 521 l 694 521 m 0 0 l 0 868 l 694 868 l 694 694 l 174 694 l 174 521 l 694 521 l 694 347 l 174 347 l 174 174 l 694 174 l 694 0 l 0 0 z "},"г":{"ha":1042,"x_min":0,"x_max":868,"o":"m 0 0 l 0 868 l 868 868 l 868 694 l 174 694 l 174 0 l 0 0 z "},"д":{"ha":1215,"x_min":0,"x_max":1042,"o":"m 0 -174 l 0 174 l 174 174 l 174 521 l 347 521 l 347 174 l 694 174 l 694 694 l 521 694 l 521 521 l 347 521 l 347 868 l 868 868 l 868 174 l 1042 174 l 1042 -174 l 868 -174 l 868 0 l 174 0 l 174 -174 l 0 -174 z "},"е":{"ha":1042,"x_min":0,"x_max":868,"o":"m 174 0 l 174 174 l 868 174 l 868 0 l 174 0 m 0 174 l 0 694 l 174 694 l 174 521 l 694 521 l 694 694 l 868 694 l 868 347 l 174 347 l 174 174 l 0 174 m 174 694 l 174 868 l 694 868 l 694 694 l 174 694 z "},"ж":{"ha":1042,"x_min":0,"x_max":868,"o":"m 0 0 l 0 347 l 174 347 l 174 0 l 0 0 m 694 0 l 694 347 l 868 347 l 868 0 l 694 0 m 0 521 l 0 868 l 174 868 l 174 521 l 0 521 m 347 0 l 347 347 l 174 347 l 174 521 l 347 521 l 347 868 l 521 868 l 521 521 l 694 521 l 694 347 l 521 347 l 521 0 l 347 0 m 694 521 l 694 868 l 868 868 l 868 521 l 694 521 z "},"з":{"ha":1042,"x_min":0,"x_max":868,"o":"m 174 0 l 174 174 l 694 174 l 694 0 l 174 0 m 0 174 l 0 347 l 174 347 l 174 174 l 0 174 m 694 174 l 694 347 l 868 347 l 868 174 l 694 174 m 347 347 l 347 521 l 694 521 l 694 347 l 347 347 m 0 521 l 0 694 l 174 694 l 174 521 l 0 521 m 694 521 l 694 694 l 868 694 l 868 521 l 694 521 m 174 694 l 174 868 l 694 868 l 694 694 l 174 694 z "},"и":{"ha":1042,"x_min":0,"x_max":868,"o":"m 347 347 l 347 521 l 521 521 l 521 347 l 347 347 m 0 0 l 0 868 l 174 868 l 174 347 l 347 347 l 347 174 l 174 174 l 174 0 l 0 0 m 694 0 l 694 521 l 521 521 l 521 694 l 694 694 l 694 868 l 868 868 l 868 0 l 694 0 z "},"й":{"ha":1042,"x_min":0,"x_max":868,"o":"m 347 347 l 347 521 l 521 521 l 521 347 l 347 347 m 0 0 l 0 868 l 174 868 l 174 347 l 347 347 l 347 174 l 174 174 l 174 0 l 0 0 m 694 0 l 694 521 l 521 521 l 521 694 l 694 694 l 694 868 l 868 868 l 868 0 l 694 0 m 347 1042 l 347 1215 l 694 1215 l 694 1042 l 347 1042 m 174 1215 l 174 1389 l 347 1389 l 347 1215 l 174 1215 m 694 1215 l 694 1389 l 868 1389 l 868 1215 l 694 1215 z "},"к":{"ha":868,"x_min":0,"x_max":694,"o":"m 521 0 l 521 174 l 694 174 l 694 0 l 521 0 m 347 174 l 347 347 l 521 347 l 521 174 l 347 174 m 347 521 l 347 694 l 521 694 l 521 521 l 347 521 m 0 0 l 0 868 l 174 868 l 174 521 l 347 521 l 347 347 l 174 347 l 174 0 l 0 0 m 521 694 l 521 868 l 694 868 l 694 694 l 521 694 z "},"л":{"ha":1042,"x_min":0,"x_max":868,"o":"m 0 0 l 0 174 l 174 174 l 174 0 l 0 0 m 694 0 l 694 694 l 347 694 l 347 174 l 174 174 l 174 868 l 868 868 l 868 0 l 694 0 z "},"м":{"ha":1042,"x_min":0,"x_max":868,"o":"m 347 347 l 347 521 l 521 521 l 521 347 l 347 347 m 0 0 l 0 868 l 174 868 l 174 694 l 347 694 l 347 521 l 174 521 l 174 0 l 0 0 m 694 0 l 694 521 l 521 521 l 521 694 l 694 694 l 694 868 l 868 868 l 868 0 l 694 0 z "},"н":{"ha":1042,"x_min":0,"x_max":868,"o":"m 0 0 l 0 868 l 174 868 l 174 521 l 694 521 l 694 868 l 868 868 l 868 0 l 694 0 l 694 347 l 174 347 l 174 0 l 0 0 z "},"о":{"ha":1042,"x_min":0,"x_max":868,"o":"m 174 0 l 174 174 l 694 174 l 694 0 l 174 0 m 0 174 l 0 694 l 174 694 l 174 174 l 0 174 m 694 174 l 694 694 l 868 694 l 868 174 l 694 174 m 174 694 l 174 868 l 694 868 l 694 694 l 174 694 z "},"п":{"ha":1042,"x_min":0,"x_max":868,"o":"m 0 0 l 0 868 l 868 868 l 868 0 l 694 0 l 694 694 l 174 694 l 174 0 l 0 0 z "},"р":{"ha":1042,"x_min":0,"x_max":868,"o":"m 694 347 l 694 694 l 868 694 l 868 347 l 694 347 m 0 -174 l 0 868 l 174 868 l 174 694 l 347 694 l 347 521 l 174 521 l 174 347 l 694 347 l 694 174 l 174 174 l 174 -174 l 0 -174 m 347 694 l 347 868 l 694 868 l 694 694 l 347 694 z "},"с":{"ha":1042,"x_min":0,"x_max":868,"o":"m 174 0 l 174 174 l 694 174 l 694 0 l 174 0 m 694 174 l 694 347 l 868 347 l 868 174 l 694 174 m 0 174 l 0 694 l 174 694 l 174 174 l 0 174 m 694 521 l 694 694 l 868 694 l 868 521 l 694 521 m 174 694 l 174 868 l 694 868 l 694 694 l 174 694 z "},"т":{"ha":1042,"x_min":0,"x_max":868,"o":"m 347 0 l 347 694 l 0 694 l 0 868 l 868 868 l 868 694 l 521 694 l 521 0 l 347 0 z "},"у":{"ha":1042,"x_min":0,"x_max":868,"o":"m 0 -174 l 0 0 l 694 0 l 694 -174 l 0 -174 m 0 347 l 0 868 l 174 868 l 174 347 l 0 347 m 694 0 l 694 174 l 174 174 l 174 347 l 694 347 l 694 868 l 868 868 l 868 0 l 694 0 z "},"ф":{"ha":1042,"x_min":0,"x_max":868,"o":"m 0 174 l 0 694 l 174 694 l 174 174 l 0 174 m 694 174 l 694 694 l 868 694 l 868 174 l 694 174 m 347 -174 l 347 0 l 174 0 l 174 174 l 347 174 l 347 694 l 174 694 l 174 868 l 694 868 l 694 694 l 521 694 l 521 174 l 694 174 l 694 0 l 521 0 l 521 -174 l 347 -174 z "},"х":{"ha":1042,"x_min":0,"x_max":868,"o":"m 0 0 l 0 174 l 174 174 l 174 0 l 0 0 m 694 0 l 694 174 l 868 174 l 868 0 l 694 0 m 174 174 l 174 347 l 347 347 l 347 174 l 174 174 m 521 174 l 521 347 l 694 347 l 694 174 l 521 174 m 347 347 l 347 521 l 521 521 l 521 347 l 347 347 m 174 521 l 174 694 l 347 694 l 347 521 l 174 521 m 521 521 l 521 694 l 694 694 l 694 521 l 521 521 m 0 694 l 0 868 l 174 868 l 174 694 l 0 694 m 694 694 l 694 868 l 868 868 l 868 694 l 694 694 z "},"ц":{"ha":1042,"x_min":0,"x_max":868,"o":"m 694 -174 l 694 0 l 0 0 l 0 868 l 174 868 l 174 174 l 521 174 l 521 868 l 694 868 l 694 174 l 868 174 l 868 -174 l 694 -174 z "},"ч":{"ha":1042,"x_min":0,"x_max":868,"o":"m 0 521 l 0 868 l 174 868 l 174 521 l 0 521 m 694 0 l 694 347 l 174 347 l 174 521 l 694 521 l 694 868 l 868 868 l 868 0 l 694 0 z "},"ш":{"ha":1042,"x_min":0,"x_max":868,"o":"m 0 0 l 0 868 l 174 868 l 174 174 l 347 174 l 347 868 l 521 868 l 521 174 l 694 174 l 694 868 l 868 868 l 868 0 l 0 0 z "},"щ":{"ha":1215,"x_min":0,"x_max":1042,"o":"m 868 -174 l 868 0 l 0 0 l 0 868 l 174 868 l 174 174 l 347 174 l 347 868 l 521 868 l 521 174 l 694 174 l 694 868 l 868 868 l 868 174 l 1042 174 l 1042 -174 l 868 -174 z "},"ъ":{"ha":1215,"x_min":0,"x_max":1042,"o":"m 868 174 l 868 347 l 1042 347 l 1042 174 l 868 174 m 174 0 l 174 694 l 0 694 l 0 868 l 347 868 l 347 521 l 868 521 l 868 347 l 347 347 l 347 174 l 868 174 l 868 0 l 174 0 z "},"ы":{"ha":1215,"x_min":0,"x_max":1042,"o":"m 521 174 l 521 347 l 694 347 l 694 174 l 521 174 m 0 0 l 0 868 l 174 868 l 174 521 l 521 521 l 521 347 l 174 347 l 174 174 l 521 174 l 521 0 l 0 0 m 868 0 l 868 868 l 1042 868 l 1042 0 l 868 0 z "},"ь":{"ha":1042,"x_min":0,"x_max":868,"o":"m 694 174 l 694 347 l 868 347 l 868 174 l 694 174 m 0 0 l 0 868 l 174 868 l 174 521 l 694 521 l 694 347 l 174 347 l 174 174 l 694 174 l 694 0 l 0 0 z "},"э":{"ha":1042,"x_min":0,"x_max":868,"o":"m 174 0 l 174 174 l 694 174 l 694 0 l 174 0 m 0 174 l 0 347 l 174 347 l 174 174 l 0 174 m 0 521 l 0 694 l 174 694 l 174 521 l 0 521 m 694 174 l 694 347 l 347 347 l 347 521 l 694 521 l 694 694 l 868 694 l 868 174 l 694 174 m 174 694 l 174 868 l 694 868 l 694 694 l 174 694 z "},"ю":{"ha":1389,"x_min":0,"x_max":1215,"o":"m 521 0 l 521 174 l 1042 174 l 1042 0 l 521 0 m 1042 174 l 1042 694 l 1215 694 l 1215 174 l 1042 174 m 0 0 l 0 868 l 174 868 l 174 521 l 347 521 l 347 694 l 521 694 l 521 174 l 347 174 l 347 347 l 174 347 l 174 0 l 0 0 m 521 694 l 521 868 l 1042 868 l 1042 694 l 521 694 z "},"я":{"ha":1042,"x_min":0,"x_max":868,"o":"m 0 0 l 0 347 l 174 347 l 174 0 l 0 0 m 0 521 l 0 694 l 174 694 l 174 521 l 0 521 m 694 0 l 694 347 l 174 347 l 174 521 l 694 521 l 694 694 l 174 694 l 174 868 l 868 868 l 868 0 l 694 0 z "},"ѐ":{"ha":1042,"x_min":0,"x_max":868,"o":"m 174 0 l 174 174 l 868 174 l 868 0 l 174 0 m 0 174 l 0 694 l 174 694 l 174 521 l 694 521 l 694 694 l 868 694 l 868 347 l 174 347 l 174 174 l 0 174 m 174 694 l 174 868 l 694 868 l 694 694 l 174 694 m 347 1042 l 347 1215 l 521 1215 l 521 1042 l 347 1042 m 174 1215 l 174 1389 l 347 1389 l 347 1215 l 174 1215 z "},"ё":{"ha":1042,"x_min":0,"x_max":868,"o":"m 174 0 l 174 174 l 868 174 l 868 0 l 174 0 m 0 174 l 0 694 l 174 694 l 174 521 l 694 521 l 694 694 l 868 694 l 868 347 l 174 347 l 174 174 l 0 174 m 174 694 l 174 868 l 694 868 l 694 694 l 174 694 m 174 1042 l 174 1215 l 347 1215 l 347 1042 l 174 1042 m 521 1042 l 521 1215 l 694 1215 l 694 1042 l 521 1042 z "},"ђ":{"ha":1215,"x_min":0,"x_max":1042,"o":"m 521 -174 l 521 0 l 868 0 l 868 -174 l 521 -174 m 868 0 l 868 521 l 1042 521 l 1042 0 l 868 0 m 521 521 l 521 694 l 868 694 l 868 521 l 521 521 m 174 0 l 174 868 l 0 868 l 0 1042 l 174 1042 l 174 1215 l 347 1215 l 347 1042 l 694 1042 l 694 868 l 347 868 l 347 521 l 521 521 l 521 347 l 347 347 l 347 0 l 174 0 z "},"ѓ":{"ha":1042,"x_min":0,"x_max":868,"o":"m 0 0 l 0 868 l 868 868 l 868 694 l 174 694 l 174 0 l 0 0 m 347 1042 l 347 1215 l 521 1215 l 521 1042 l 347 1042 m 521 1215 l 521 1389 l 694 1389 l 694 1215 l 521 1215 z "},"є":{"ha":1042,"x_min":0,"x_max":868,"o":"m 174 0 l 174 174 l 694 174 l 694 0 l 174 0 m 694 174 l 694 347 l 868 347 l 868 174 l 694 174 m 0 174 l 0 694 l 174 694 l 174 521 l 521 521 l 521 347 l 174 347 l 174 174 l 0 174 m 694 521 l 694 694 l 868 694 l 868 521 l 694 521 m 174 694 l 174 868 l 694 868 l 694 694 l 174 694 z "},"ѕ":{"ha":1042,"x_min":0,"x_max":868,"o":"m 0 0 l 0 174 l 694 174 l 694 0 l 0 0 m 694 174 l 694 347 l 868 347 l 868 174 l 694 174 m 174 347 l 174 521 l 694 521 l 694 347 l 174 347 m 0 521 l 0 694 l 174 694 l 174 521 l 0 521 m 174 694 l 174 868 l 868 868 l 868 694 l 174 694 z "},"і":{"ha":347,"x_min":0,"x_max":174,"o":"m 0 0 l 0 868 l 174 868 l 174 0 l 0 0 m 0 1042 l 0 1215 l 174 1215 l 174 1042 l 0 1042 z "},"ї":{"ha":694,"x_min":0,"x_max":521,"o":"m 174 0 l 174 868 l 347 868 l 347 0 l 174 0 m 0 1042 l 0 1215 l 174 1215 l 174 1042 l 0 1042 m 347 1042 l 347 1215 l 521 1215 l 521 1042 l 347 1042 z "},"ј":{"ha":1042,"x_min":0,"x_max":868,"o":"m 174 -174 l 174 0 l 694 0 l 694 -174 l 174 -174 m 0 0 l 0 347 l 174 347 l 174 0 l 0 0 m 694 0 l 694 868 l 868 868 l 868 0 l 694 0 m 694 1042 l 694 1215 l 868 1215 l 868 1042 l 694 1042 z "},"љ":{"ha":1389,"x_min":0,"x_max":1215,"o":"m 0 0 l 0 174 l 174 174 l 174 0 l 0 0 m 1042 174 l 1042 347 l 1215 347 l 1215 174 l 1042 174 m 521 0 l 521 694 l 347 694 l 347 174 l 174 174 l 174 868 l 694 868 l 694 521 l 1042 521 l 1042 347 l 694 347 l 694 174 l 1042 174 l 1042 0 l 521 0 z "},"њ":{"ha":1215,"x_min":0,"x_max":1042,"o":"m 868 174 l 868 347 l 1042 347 l 1042 174 l 868 174 m 0 0 l 0 868 l 174 868 l 174 521 l 347 521 l 347 868 l 521 868 l 521 521 l 868 521 l 868 347 l 521 347 l 521 174 l 868 174 l 868 0 l 347 0 l 347 347 l 174 347 l 174 0 l 0 0 z "},"ћ":{"ha":1215,"x_min":0,"x_max":1042,"o":"m 868 0 l 868 521 l 1042 521 l 1042 0 l 868 0 m 521 521 l 521 694 l 868 694 l 868 521 l 521 521 m 174 0 l 174 868 l 0 868 l 0 1042 l 174 1042 l 174 1215 l 347 1215 l 347 1042 l 868 1042 l 868 868 l 347 868 l 347 521 l 521 521 l 521 347 l 347 347 l 347 0 l 174 0 z "},"ќ":{"ha":868,"x_min":0,"x_max":694,"o":"m 521 0 l 521 174 l 694 174 l 694 0 l 521 0 m 347 174 l 347 347 l 521 347 l 521 174 l 347 174 m 347 521 l 347 694 l 521 694 l 521 521 l 347 521 m 0 0 l 0 868 l 174 868 l 174 521 l 347 521 l 347 347 l 174 347 l 174 0 l 0 0 m 521 694 l 521 868 l 694 868 l 694 694 l 521 694 m 174 1042 l 174 1215 l 347 1215 l 347 1042 l 174 1042 m 347 1215 l 347 1389 l 521 1389 l 521 1215 l 347 1215 z "},"ѝ":{"ha":1042,"x_min":0,"x_max":868,"o":"m 347 347 l 347 521 l 521 521 l 521 347 l 347 347 m 0 0 l 0 868 l 174 868 l 174 347 l 347 347 l 347 174 l 174 174 l 174 0 l 0 0 m 694 0 l 694 521 l 521 521 l 521 694 l 694 694 l 694 868 l 868 868 l 868 0 l 694 0 m 347 1042 l 347 1215 l 521 1215 l 521 1042 l 347 1042 m 174 1215 l 174 1389 l 347 1389 l 347 1215 l 174 1215 z "},"ў":{"ha":1042,"x_min":0,"x_max":868,"o":"m 0 -174 l 0 0 l 694 0 l 694 -174 l 0 -174 m 0 347 l 0 868 l 174 868 l 174 347 l 0 347 m 694 0 l 694 174 l 174 174 l 174 347 l 694 347 l 694 868 l 868 868 l 868 0 l 694 0 m 347 1042 l 347 1215 l 694 1215 l 694 1042 l 347 1042 m 174 1215 l 174 1389 l 347 1389 l 347 1215 l 174 1215 m 694 1215 l 694 1389 l 868 1389 l 868 1215 l 694 1215 z "},"џ":{"ha":1042,"x_min":0,"x_max":868,"o":"m 347 -347 l 347 0 l 0 0 l 0 868 l 174 868 l 174 174 l 694 174 l 694 868 l 868 868 l 868 0 l 521 0 l 521 -347 l 347 -347 z "},"Ѣ":{"ha":1215,"x_min":0,"x_max":1042,"o":"m 868 174 l 868 521 l 1042 521 l 1042 174 l 868 174 m 174 0 l 174 868 l 0 868 l 0 1042 l 174 1042 l 174 1215 l 347 1215 l 347 1042 l 521 1042 l 521 868 l 347 868 l 347 694 l 868 694 l 868 521 l 347 521 l 347 174 l 868 174 l 868 0 l 174 0 z "},"ѣ":{"ha":1215,"x_min":0,"x_max":1042,"o":"m 868 174 l 868 347 l 1042 347 l 1042 174 l 868 174 m 174 0 l 174 694 l 0 694 l 0 868 l 174 868 l 174 1042 l 347 1042 l 347 868 l 521 868 l 521 694 l 347 694 l 347 521 l 868 521 l 868 347 l 347 347 l 347 174 l 868 174 l 868 0 l 174 0 z "},"Ѳ":{"ha":1042,"x_min":0,"x_max":868,"o":"m 174 0 l 174 174 l 694 174 l 694 0 l 174 0 m 0 174 l 0 1042 l 174 1042 l 174 694 l 694 694 l 694 1042 l 868 1042 l 868 174 l 694 174 l 694 521 l 174 521 l 174 174 l 0 174 m 174 1042 l 174 1215 l 694 1215 l 694 1042 l 174 1042 z "},"ѳ":{"ha":1042,"x_min":0,"x_max":868,"o":"m 174 0 l 174 174 l 694 174 l 694 0 l 174 0 m 0 174 l 0 694 l 174 694 l 174 521 l 694 521 l 694 694 l 868 694 l 868 174 l 694 174 l 694 347 l 174 347 l 174 174 l 0 174 m 174 694 l 174 868 l 694 868 l 694 694 l 174 694 z "},"Ѵ":{"ha":1215,"x_min":0,"x_max":1042,"o":"m 347 0 l 347 174 l 521 174 l 521 0 l 347 0 m 174 174 l 174 521 l 347 521 l 347 174 l 174 174 m 521 174 l 521 521 l 694 521 l 694 174 l 521 174 m 694 521 l 694 1042 l 868 1042 l 868 521 l 694 521 m 0 521 l 0 1215 l 174 1215 l 174 521 l 0 521 m 868 1042 l 868 1215 l 1042 1215 l 1042 1042 l 868 1042 z "},"ѵ":{"ha":1215,"x_min":0,"x_max":1042,"o":"m 347 0 l 347 174 l 521 174 l 521 0 l 347 0 m 174 174 l 174 347 l 347 347 l 347 174 l 174 174 m 521 174 l 521 347 l 694 347 l 694 174 l 521 174 m 694 347 l 694 694 l 868 694 l 868 347 l 694 347 m 0 347 l 0 868 l 174 868 l 174 347 l 0 347 m 868 694 l 868 868 l 1042 868 l 1042 694 l 868 694 z "},"Ҍ":{"ha":1215,"x_min":0,"x_max":1042,"o":"m 868 174 l 868 521 l 1042 521 l 1042 174 l 868 174 m 174 0 l 174 868 l 0 868 l 0 1042 l 174 1042 l 174 1215 l 347 1215 l 347 1042 l 521 1042 l 521 868 l 347 868 l 347 694 l 868 694 l 868 521 l 347 521 l 347 174 l 868 174 l 868 0 l 174 0 z "},"ҍ":{"ha":1215,"x_min":0,"x_max":1042,"o":"m 868 174 l 868 347 l 1042 347 l 1042 174 l 868 174 m 174 0 l 174 868 l 0 868 l 0 1042 l 174 1042 l 174 1215 l 347 1215 l 347 1042 l 521 1042 l 521 868 l 347 868 l 347 521 l 868 521 l 868 347 l 347 347 l 347 174 l 868 174 l 868 0 l 174 0 z "},"Ҏ":{"ha":1042,"x_min":0,"x_max":868,"o":"m 694 521 l 694 694 l 868 694 l 868 521 l 694 521 m 694 868 l 694 1042 l 868 1042 l 868 868 l 694 868 m 0 0 l 0 1215 l 694 1215 l 694 1042 l 174 1042 l 174 868 l 694 868 l 694 694 l 174 694 l 174 0 l 0 0 z "}}}
